STARTFONT 2.1
FONT -FontForge-Inter Thin-Thin-R-Normal--30-290-75-75-P-169-ISO10646-1
SIZE 29 75 75
FONTBOUNDINGBOX 99 43 -21 -10
COMMENT "Generated by fontforge, http://fontforge.sourceforge.net"
COMMENT "Copyright (c) 2020 The Inter Project Authors"
STARTPROPERTIES 39
FOUNDRY "FontForge"
FAMILY_NAME "Inter Thin"
WEIGHT_NAME "Thin"
SLANT "R"
SETWIDTH_NAME "Normal"
ADD_STYLE_NAME ""
PIXEL_SIZE 30
POINT_SIZE 290
RESOLUTION_X 75
RESOLUTION_Y 75
SPACING "P"
AVERAGE_WIDTH 169
CHARSET_REGISTRY "ISO10646"
CHARSET_ENCODING "1"
FONTNAME_REGISTRY ""
CHARSET_COLLECTIONS "ISO8859-2 ISO8859-5 ISO8859-7 ISO8859-9 ISO8859-4 ISO10646-1"
FONT_NAME "Inter-Thin"
FACE_NAME "Inter Thin"
COPYRIGHT "Copyright (c) 2020 The Inter Project Authors"
FONT_VERSION "3.019;git-0a5106e0b"
FONT_ASCENT 24
FONT_DESCENT 6
UNDERLINE_POSITION -5
UNDERLINE_THICKNESS 1
X_HEIGHT 16
CAP_HEIGHT 21
RAW_ASCENT 799
RAW_DESCENT 200
NORM_SPACE 8
RELATIVE_WEIGHT 10
RELATIVE_SETWIDTH 50
SUPERSCRIPT_X 0
SUPERSCRIPT_Y 10
SUPERSCRIPT_SIZE 18
SUBSCRIPT_X 0
SUBSCRIPT_Y 2
SUBSCRIPT_SIZE 18
AVG_LOWERCASE_WIDTH 158
AVG_UPPERCASE_WIDTH 219
ENDPROPERTIES
CHARS 2564
STARTCHAR uni0020
ENCODING 32
SWIDTH 281 0
DWIDTH 8 0
BBX 1 1 0 0
BITMAP
00
ENDCHAR
STARTCHAR uni0021
ENCODING 33
SWIDTH 261 0
DWIDTH 8 0
BBX 2 22 3 0
BITMAP
80
80
80
80
80
80
80
80
80
80
80
80
80
80
80
00
00
00
00
00
80
C0
ENDCHAR
STARTCHAR uni0022
ENCODING 34
SWIDTH 340 0
DWIDTH 10 0
BBX 5 7 3 15
BITMAP
88
88
88
88
88
88
88
ENDCHAR
STARTCHAR uni0023
ENCODING 35
SWIDTH 633 0
DWIDTH 19 0
BBX 17 22 1 0
BITMAP
020200
020400
040400
040400
040400
040400
7FFF80
040800
080800
080800
080800
080800
080800
081000
FFFF00
101000
101000
101000
101000
102000
102000
202000
ENDCHAR
STARTCHAR uni0024
ENCODING 36
SWIDTH 612 0
DWIDTH 18 0
BBX 14 28 2 -2
BITMAP
0100
0100
0100
0100
0FC0
1130
2108
4108
4104
4104
4100
4100
2100
1900
0700
01E0
0110
0108
0104
0104
0104
8104
4104
4108
3110
0FE0
0100
0100
ENDCHAR
STARTCHAR uni0025
ENCODING 37
SWIDTH 772 0
DWIDTH 23 0
BBX 19 22 2 0
BITMAP
3C0080
420080
820100
810200
810200
810400
420800
421000
3C1000
002000
004000
004000
008380
010440
010820
020820
041020
041020
080820
100820
100840
200780
ENDCHAR
STARTCHAR uni0026
ENCODING 38
SWIDTH 583 0
DWIDTH 18 0
BBX 15 22 2 0
BITMAP
0F00
1080
2040
4040
4020
4040
2040
2080
1100
0A00
0C00
1200
2200
4100
8084
8044
8024
8018
8018
4018
2064
1F82
ENDCHAR
STARTCHAR uni0027
ENCODING 39
SWIDTH 204 0
DWIDTH 6 0
BBX 1 7 3 15
BITMAP
80
80
80
80
80
80
80
ENDCHAR
STARTCHAR uni0028
ENCODING 40
SWIDTH 315 0
DWIDTH 9 0
BBX 4 28 3 -5
BITMAP
10
10
20
20
20
40
40
40
40
40
40
80
80
80
80
80
80
40
40
40
40
40
40
20
20
20
10
10
ENDCHAR
STARTCHAR uni0029
ENCODING 41
SWIDTH 315 0
DWIDTH 9 0
BBX 4 28 2 -5
BITMAP
80
40
40
40
20
20
20
20
10
10
10
10
10
10
10
10
10
10
10
10
20
20
20
20
40
40
40
80
ENDCHAR
STARTCHAR uni002A
ENCODING 42
SWIDTH 500 0
DWIDTH 15 0
BBX 11 12 2 10
BITMAP
0400
0400
0400
C460
2480
1F00
0E00
1500
64C0
8420
0400
0400
ENDCHAR
STARTCHAR uni002B
ENCODING 43
SWIDTH 636 0
DWIDTH 19 0
BBX 13 13 3 2
BITMAP
0200
0200
0200
0200
0200
0200
FFF8
0200
0200
0200
0200
0200
0200
ENDCHAR
STARTCHAR uni002C
ENCODING 44
SWIDTH 256 0
DWIDTH 8 0
BBX 2 9 3 -5
BITMAP
40
40
40
80
80
80
80
80
80
ENDCHAR
STARTCHAR uni002D
ENCODING 45
SWIDTH 438 0
DWIDTH 13 0
BBX 8 1 3 9
BITMAP
FF
ENDCHAR
STARTCHAR uni002E
ENCODING 46
SWIDTH 252 0
DWIDTH 8 0
BBX 2 2 3 0
BITMAP
80
C0
ENDCHAR
STARTCHAR uni002F
ENCODING 47
SWIDTH 323 0
DWIDTH 10 0
BBX 8 27 1 -3
BITMAP
01
01
02
02
02
02
04
04
04
08
08
08
08
10
10
10
10
20
20
20
20
40
40
40
80
80
80
ENDCHAR
STARTCHAR uni0030
ENCODING 48
SWIDTH 590 0
DWIDTH 18 0
BBX 14 22 2 0
BITMAP
0F80
1060
2010
2010
4008
4008
8008
8008
8004
8004
8004
8004
8004
8004
8008
8008
4008
4008
2010
2010
1060
0F80
ENDCHAR
STARTCHAR uni0031
ENCODING 49
SWIDTH 407 0
DWIDTH 12 0
BBX 6 22 2 0
BITMAP
0C
34
44
84
04
04
04
04
04
04
04
04
04
04
04
04
04
04
04
04
04
04
ENDCHAR
STARTCHAR uni0032
ENCODING 50
SWIDTH 620 0
DWIDTH 19 0
BBX 13 22 3 0
BITMAP
1F80
2040
4020
8020
8010
8010
0010
0010
0020
0020
0040
0080
0100
0200
0200
0400
0800
1000
2000
4000
4000
FFF8
ENDCHAR
STARTCHAR uni0033
ENCODING 51
SWIDTH 613 0
DWIDTH 18 0
BBX 13 22 3 0
BITMAP
1F80
2040
4020
4010
8010
8010
0010
0010
0020
0040
0780
0040
0020
0010
0008
0008
8008
8008
8010
4010
2060
1F80
ENDCHAR
STARTCHAR uni0034
ENCODING 52
SWIDTH 595 0
DWIDTH 18 0
BBX 14 22 2 0
BITMAP
0020
0060
0060
00A0
0120
0120
0220
0220
0420
0820
0820
1020
2020
2020
4020
4020
FFFC
0020
0020
0020
0020
0020
ENDCHAR
STARTCHAR uni0035
ENCODING 53
SWIDTH 571 0
DWIDTH 17 0
BBX 13 22 2 0
BITMAP
3FF0
2000
2000
2000
2000
4000
4000
4F80
7040
4020
0010
0010
0008
0008
0008
0008
8008
4010
4010
4020
3040
0F80
ENDCHAR
STARTCHAR uni0036
ENCODING 54
SWIDTH 582 0
DWIDTH 17 0
BBX 13 22 2 0
BITMAP
07C0
1820
2010
2010
4008
4000
4000
4000
8F80
9060
A010
C010
C008
8008
8008
4008
4008
4008
2010
2010
1060
0F80
ENDCHAR
STARTCHAR uni0037
ENCODING 55
SWIDTH 547 0
DWIDTH 16 0
BBX 12 22 2 0
BITMAP
FFF0
0010
0010
0020
0020
0040
0040
0080
0080
0100
0100
0200
0200
0400
0400
0800
0800
1000
1000
2000
2000
4000
ENDCHAR
STARTCHAR uni0038
ENCODING 56
SWIDTH 602 0
DWIDTH 18 0
BBX 14 22 2 0
BITMAP
0FC0
1020
2010
4008
4008
4008
4008
4008
2010
1020
0FC0
1020
2010
4008
8004
8004
8004
8004
4008
4008
3030
0FC0
ENDCHAR
STARTCHAR uni0039
ENCODING 57
SWIDTH 582 0
DWIDTH 17 0
BBX 13 22 2 0
BITMAP
0F80
1040
2020
4010
4010
8008
8008
8008
4008
4018
2018
1068
0F88
0008
0008
0008
4010
4010
4010
2020
1040
0F80
ENDCHAR
STARTCHAR uni003A
ENCODING 58
SWIDTH 252 0
DWIDTH 8 0
BBX 2 13 3 2
BITMAP
C0
80
00
00
00
00
00
00
00
00
00
80
C0
ENDCHAR
STARTCHAR uni003B
ENCODING 59
SWIDTH 258 0
DWIDTH 8 0
BBX 2 20 3 -5
BITMAP
40
C0
00
00
00
00
00
00
00
00
00
00
40
40
40
80
80
80
80
80
ENDCHAR
STARTCHAR uni003C
ENCODING 60
SWIDTH 636 0
DWIDTH 19 0
BBX 11 15 4 1
BITMAP
0020
00C0
0100
0600
0800
3000
4000
8000
4000
3000
0800
0600
0100
00C0
0020
ENDCHAR
STARTCHAR uni003D
ENCODING 61
SWIDTH 636 0
DWIDTH 19 0
BBX 11 7 4 5
BITMAP
FFE0
0000
0000
0000
0000
0000
FFE0
ENDCHAR
STARTCHAR uni003E
ENCODING 62
SWIDTH 636 0
DWIDTH 19 0
BBX 11 15 4 1
BITMAP
8000
6000
1000
0C00
0200
0180
0040
0020
0040
0180
0200
0C00
1000
6000
8000
ENDCHAR
STARTCHAR uni003F
ENCODING 63
SWIDTH 478 0
DWIDTH 14 0
BBX 12 22 1 0
BITMAP
1F80
2040
4020
4020
8010
8010
0010
0020
0040
0080
0100
0200
0400
0400
0400
0000
0000
0000
0000
0000
0400
0400
ENDCHAR
STARTCHAR uni0040
ENCODING 64
SWIDTH 936 0
DWIDTH 28 0
BBX 26 28 1 -6
BITMAP
007F8000
01806000
02001000
04000800
08000400
10000200
20000100
201E2100
40612080
4080A080
40806080
41002040
81002040
81002040
81002040
81002040
41002080
41002080
40806100
4080A300
20611C00
201E0000
10000000
08000000
04000000
02001000
01806000
007F8000
ENDCHAR
STARTCHAR uni0041
ENCODING 65
SWIDTH 616 0
DWIDTH 19 0
BBX 17 22 1 0
BITMAP
008000
018000
014000
024000
024000
022000
042000
042000
041000
081000
080800
080800
100800
100400
1FFC00
200400
200200
400200
400200
400100
800100
800180
ENDCHAR
STARTCHAR uni0042
ENCODING 66
SWIDTH 640 0
DWIDTH 19 0
BBX 14 22 3 0
BITMAP
FFC0
8030
8010
8008
8008
8008
8008
8008
8010
8030
FFC0
8030
8008
8008
8004
8004
8004
8004
8004
8008
8010
FFE0
ENDCHAR
STARTCHAR uni0043
ENCODING 67
SWIDTH 723 0
DWIDTH 22 0
BBX 18 22 2 0
BITMAP
03F000
0C0C00
100200
200100
200080
400080
400040
800000
800000
800000
800000
800000
800000
800000
800000
400040
400080
200080
200100
100200
0C0C00
03F000
ENDCHAR
STARTCHAR uni0044
ENCODING 68
SWIDTH 714 0
DWIDTH 21 0
BBX 16 22 3 0
BITMAP
FFC0
8030
8008
8004
8002
8002
8001
8001
8001
8001
8001
8001
8001
8001
8001
8001
8002
8002
8004
8008
8030
FFC0
ENDCHAR
STARTCHAR uni0045
ENCODING 69
SWIDTH 583 0
DWIDTH 18 0
BBX 12 22 3 0
BITMAP
FFF0
8000
8000
8000
8000
8000
8000
8000
8000
8000
FFE0
8000
8000
8000
8000
8000
8000
8000
8000
8000
8000
FFF0
ENDCHAR
STARTCHAR uni0046
ENCODING 70
SWIDTH 585 0
DWIDTH 18 0
BBX 12 22 3 0
BITMAP
FFF0
8000
8000
8000
8000
8000
8000
8000
8000
8000
FFE0
8000
8000
8000
8000
8000
8000
8000
8000
8000
8000
8000
ENDCHAR
STARTCHAR uni0047
ENCODING 71
SWIDTH 738 0
DWIDTH 22 0
BBX 18 22 2 0
BITMAP
03F800
0C0400
100200
200100
200080
400080
400040
800000
800000
800000
800000
807FC0
800040
800040
800040
400080
400080
200080
200100
100200
0C0C00
03F000
ENDCHAR
STARTCHAR uni0048
ENCODING 72
SWIDTH 735 0
DWIDTH 22 0
BBX 16 22 3 0
BITMAP
8001
8001
8001
8001
8001
8001
8001
8001
8001
8001
FFFF
8001
8001
8001
8001
8001
8001
8001
8001
8001
8001
8001
ENDCHAR
STARTCHAR uni0049
ENCODING 73
SWIDTH 250 0
DWIDTH 8 0
BBX 1 22 3 0
BITMAP
80
80
80
80
80
80
80
80
80
80
80
80
80
80
80
80
80
80
80
80
80
80
ENDCHAR
STARTCHAR uni004A
ENCODING 74
SWIDTH 519 0
DWIDTH 16 0
BBX 10 22 2 0
BITMAP
0040
0040
0040
0040
0040
0040
0040
0040
0040
0040
0040
0040
0040
0040
0040
0040
0040
0040
8040
8080
4180
3E00
ENDCHAR
STARTCHAR uni004B
ENCODING 75
SWIDTH 616 0
DWIDTH 19 0
BBX 14 22 3 0
BITMAP
8004
8008
8010
8020
8040
8040
8080
8100
8200
8400
8800
9400
A400
C200
8100
8080
8040
8020
8020
8010
8008
8004
ENDCHAR
STARTCHAR uni004C
ENCODING 76
SWIDTH 562 0
DWIDTH 17 0
BBX 12 22 3 0
BITMAP
8000
8000
8000
8000
8000
8000
8000
8000
8000
8000
8000
8000
8000
8000
8000
8000
8000
8000
8000
8000
8000
FFF0
ENDCHAR
STARTCHAR uni004D
ENCODING 77
SWIDTH 863 0
DWIDTH 26 0
BBX 20 22 3 0
BITMAP
800010
C00030
C00030
A00050
A00050
A00090
900090
900090
880110
880110
840210
840210
840410
820410
820410
810810
810810
809010
809010
80A010
806010
806010
ENDCHAR
STARTCHAR uni004E
ENCODING 78
SWIDTH 772 0
DWIDTH 23 0
BBX 17 22 3 0
BITMAP
800080
C00080
A00080
900080
900080
880080
840080
820080
820080
810080
808080
808080
804080
802080
801080
801080
800880
800480
800480
800280
800180
800080
ENDCHAR
STARTCHAR uni004F
ENCODING 79
SWIDTH 747 0
DWIDTH 22 0
BBX 18 22 2 0
BITMAP
03F000
0C0C00
100200
200100
200080
400080
400040
800040
800040
800040
800040
800040
800040
800040
800040
400040
400080
200080
200100
100200
0C0C00
03F000
ENDCHAR
STARTCHAR uni0050
ENCODING 80
SWIDTH 606 0
DWIDTH 18 0
BBX 13 22 3 0
BITMAP
FFC0
8020
8010
8008
8008
8008
8008
8008
8008
8010
8010
8060
FF80
8000
8000
8000
8000
8000
8000
8000
8000
8000
ENDCHAR
STARTCHAR uni0051
ENCODING 81
SWIDTH 747 0
DWIDTH 22 0
BBX 18 24 2 -2
BITMAP
03F000
0C0C00
100200
200100
200080
400080
400040
800040
800040
800040
800040
800040
800040
800040
800040
402040
401080
200880
200500
100600
0C0600
03F900
000080
0000C0
ENDCHAR
STARTCHAR uni0052
ENCODING 82
SWIDTH 615 0
DWIDTH 18 0
BBX 14 22 3 0
BITMAP
FFC0
8020
8010
8008
8008
8008
8008
8008
8008
8008
8010
8060
FF80
8080
8040
8020
8020
8010
8010
8008
8008
8004
ENDCHAR
STARTCHAR uni0053
ENCODING 83
SWIDTH 612 0
DWIDTH 18 0
BBX 14 22 2 0
BITMAP
0FC0
1030
2008
4008
4004
4004
4000
4000
2000
1800
0700
00E0
0010
0008
0004
0004
0004
8004
4004
4008
3030
0FC0
ENDCHAR
STARTCHAR uni0054
ENCODING 84
SWIDTH 613 0
DWIDTH 18 0
BBX 15 22 2 0
BITMAP
FFFE
0100
0100
0100
0100
0100
0100
0100
0100
0100
0100
0100
0100
0100
0100
0100
0100
0100
0100
0100
0100
0100
ENDCHAR
STARTCHAR uni0055
ENCODING 85
SWIDTH 750 0
DWIDTH 23 0
BBX 16 22 3 0
BITMAP
8001
8001
8001
8001
8001
8001
8001
8001
8001
8001
8001
8001
8001
8001
8001
8001
4001
4001
2002
2004
1818
07E0
ENDCHAR
STARTCHAR uni0056
ENCODING 86
SWIDTH 616 0
DWIDTH 19 0
BBX 17 22 1 0
BITMAP
800180
800100
400100
400200
400200
200200
200400
200400
100400
100800
080800
080800
081000
041000
041000
042000
022000
024000
024000
014000
018000
008000
ENDCHAR
STARTCHAR uni0057
ENCODING 87
SWIDTH 892 0
DWIDTH 27 0
BBX 25 22 1 0
BITMAP
80080080
80180080
80140100
40140100
40140100
40240100
40220200
20220200
20220200
20410400
10410400
10410400
10810400
10808800
08808800
08808800
09008800
09005000
05005000
05005000
06006000
02002000
ENDCHAR
STARTCHAR uni0058
ENCODING 88
SWIDTH 585 0
DWIDTH 18 0
BBX 16 22 1 0
BITMAP
8003
4002
2004
2008
1008
0810
0820
0420
0240
0280
0180
0180
0280
0240
0420
0820
0810
1008
2008
2004
4002
8003
ENDCHAR
STARTCHAR uni0059
ENCODING 89
SWIDTH 613 0
DWIDTH 18 0
BBX 16 22 1 0
BITMAP
8001
4002
2002
2004
1008
0808
0810
0420
0220
0240
0180
0080
0080
0080
0080
0080
0080
0080
0080
0080
0080
0080
ENDCHAR
STARTCHAR uni005A
ENCODING 90
SWIDTH 605 0
DWIDTH 18 0
BBX 14 22 2 0
BITMAP
FFFC
0004
0008
0010
0010
0020
0040
0040
0080
0080
0100
0200
0200
0400
0800
0800
1000
1000
2000
4000
4000
FFFC
ENDCHAR
STARTCHAR uni005B
ENCODING 91
SWIDTH 315 0
DWIDTH 9 0
BBX 4 28 4 -5
BITMAP
F0
80
80
80
80
80
80
80
80
80
80
80
80
80
80
80
80
80
80
80
80
80
80
80
80
80
80
F0
ENDCHAR
STARTCHAR uni005C
ENCODING 92
SWIDTH 323 0
DWIDTH 10 0
BBX 8 27 1 -3
BITMAP
80
80
80
40
40
40
40
20
20
20
20
10
10
10
08
08
08
08
04
04
04
04
02
02
02
02
01
ENDCHAR
STARTCHAR uni005D
ENCODING 93
SWIDTH 315 0
DWIDTH 9 0
BBX 4 28 2 -5
BITMAP
F0
10
10
10
10
10
10
10
10
10
10
10
10
10
10
10
10
10
10
10
10
10
10
10
10
10
10
F0
ENDCHAR
STARTCHAR uni005E
ENCODING 94
SWIDTH 400 0
DWIDTH 12 0
BBX 10 10 1 12
BITMAP
0400
0C00
0C00
1200
1200
2100
2100
4080
4080
C0C0
ENDCHAR
STARTCHAR uni005F
ENCODING 95
SWIDTH 426 0
DWIDTH 13 0
BBX 13 1 0 -1
BITMAP
FFF8
ENDCHAR
STARTCHAR uni0060
ENCODING 96
SWIDTH 497 0
DWIDTH 15 0
BBX 4 5 5 19
BITMAP
80
40
20
20
10
ENDCHAR
STARTCHAR uni0061
ENCODING 97
SWIDTH 541 0
DWIDTH 16 0
BBX 11 17 2 0
BITMAP
1F80
2040
4020
8020
0020
0020
0020
03E0
3C20
4020
8020
8020
8020
8060
8060
40A0
3F20
ENDCHAR
STARTCHAR uni0062
ENCODING 98
SWIDTH 598 0
DWIDTH 18 0
BBX 13 22 3 0
BITMAP
8000
8000
8000
8000
8000
8F80
9040
A020
C010
C010
8008
8008
8008
8008
8008
8008
8008
C010
C010
A020
9040
8F80
ENDCHAR
STARTCHAR uni0063
ENCODING 99
SWIDTH 552 0
DWIDTH 17 0
BBX 13 17 2 0
BITMAP
0F80
1060
2010
4010
4008
8000
8000
8000
8000
8000
8000
8000
4008
4010
2010
1060
0F80
ENDCHAR
STARTCHAR uni0064
ENCODING 100
SWIDTH 598 0
DWIDTH 18 0
BBX 13 22 2 0
BITMAP
0008
0008
0008
0008
0008
0F88
3048
2028
4018
8018
8018
8008
8008
8008
8008
8008
8018
8018
4018
2028
3048
0F08
ENDCHAR
STARTCHAR uni0065
ENCODING 101
SWIDTH 576 0
DWIDTH 17 0
BBX 13 17 2 0
BITMAP
0F80
1060
2010
4008
8008
8008
8008
FFF8
8000
8000
8000
8000
4000
4008
2010
1020
0FC0
ENDCHAR
STARTCHAR uni0066
ENCODING 102
SWIDTH 330 0
DWIDTH 10 0
BBX 7 23 2 0
BITMAP
0E
10
20
20
20
20
FE
20
20
20
20
20
20
20
20
20
20
20
20
20
20
20
20
ENDCHAR
STARTCHAR uni0067
ENCODING 103
SWIDTH 583 0
DWIDTH 18 0
BBX 13 23 2 -6
BITMAP
0F88
3048
2028
4028
8018
8018
8008
8008
8008
8008
8008
8008
8018
4018
4028
3048
0F88
0008
0008
0010
4010
2020
1FC0
ENDCHAR
STARTCHAR uni0068
ENCODING 104
SWIDTH 568 0
DWIDTH 17 0
BBX 11 22 3 0
BITMAP
8000
8000
8000
8000
8000
9F00
A080
C040
8020
8020
8020
8020
8020
8020
8020
8020
8020
8020
8020
8020
8020
8020
ENDCHAR
STARTCHAR uni0069
ENCODING 105
SWIDTH 221 0
DWIDTH 7 0
BBX 1 21 3 0
BITMAP
80
00
00
00
80
80
80
80
80
80
80
80
80
80
80
80
80
80
80
80
80
ENDCHAR
STARTCHAR uni006A
ENCODING 106
SWIDTH 221 0
DWIDTH 7 0
BBX 4 27 0 -6
BITMAP
10
00
00
00
10
10
10
10
10
10
10
10
10
10
10
10
10
10
10
10
10
10
10
10
10
20
C0
ENDCHAR
STARTCHAR uni006B
ENCODING 107
SWIDTH 487 0
DWIDTH 15 0
BBX 11 22 3 0
BITMAP
8000
8000
8000
8000
8000
8040
8080
8100
8200
8400
8800
9000
A000
D000
8800
8400
8400
8200
8100
8080
8040
8060
ENDCHAR
STARTCHAR uni006C
ENCODING 108
SWIDTH 215 0
DWIDTH 6 0
BBX 1 22 3 0
BITMAP
80
80
80
80
80
80
80
80
80
80
80
80
80
80
80
80
80
80
80
80
80
80
ENDCHAR
STARTCHAR uni006D
ENCODING 109
SWIDTH 835 0
DWIDTH 25 0
BBX 19 17 3 0
BITMAP
9E0F80
E19040
80A020
804020
804020
804020
804020
804020
804020
804020
804020
804020
804020
804020
804020
804020
804020
ENDCHAR
STARTCHAR uni006E
ENCODING 110
SWIDTH 568 0
DWIDTH 17 0
BBX 11 17 3 0
BITMAP
9F00
A080
C040
8020
8020
8020
8020
8020
8020
8020
8020
8020
8020
8020
8020
8020
8020
ENDCHAR
STARTCHAR uni006F
ENCODING 111
SWIDTH 579 0
DWIDTH 17 0
BBX 13 17 2 0
BITMAP
0F80
1060
2010
4010
4008
8008
8008
8008
8008
8008
8008
8008
4008
4010
2010
1060
0F80
ENDCHAR
STARTCHAR uni0070
ENCODING 112
SWIDTH 580 0
DWIDTH 17 0
BBX 13 23 3 -6
BITMAP
8F80
B040
A020
C010
8010
8010
8008
8008
8008
8008
8010
8010
8010
C010
A020
B040
8F00
8000
8000
8000
8000
8000
8000
ENDCHAR
STARTCHAR uni0071
ENCODING 113
SWIDTH 580 0
DWIDTH 17 0
BBX 13 23 2 -6
BITMAP
0F88
3048
2028
4028
8018
8018
8008
8008
8008
8008
8008
8018
8018
4018
2028
3048
0F08
0008
0008
0008
0008
0008
0008
ENDCHAR
STARTCHAR uni0072
ENCODING 114
SWIDTH 325 0
DWIDTH 10 0
BBX 6 17 3 0
BITMAP
9C
A0
C0
80
80
80
80
80
80
80
80
80
80
80
80
80
80
ENDCHAR
STARTCHAR uni0073
ENCODING 115
SWIDTH 492 0
DWIDTH 15 0
BBX 11 17 2 0
BITMAP
1F00
2080
4040
4020
8000
4000
4000
3000
0F00
0080
0040
0020
0020
8020
8040
60C0
1F00
ENDCHAR
STARTCHAR uni0074
ENCODING 116
SWIDTH 348 0
DWIDTH 10 0
BBX 7 21 2 0
BITMAP
20
20
20
20
FC
20
20
20
20
20
20
20
20
20
20
20
20
20
20
10
0E
ENDCHAR
STARTCHAR uni0075
ENCODING 117
SWIDTH 568 0
DWIDTH 17 0
BBX 11 17 3 0
BITMAP
8020
8020
8020
8020
8020
8020
8020
8020
8020
8020
8020
8020
8020
8020
4060
20A0
1F20
ENDCHAR
STARTCHAR uni0076
ENCODING 118
SWIDTH 522 0
DWIDTH 16 0
BBX 12 17 2 0
BITMAP
8010
8010
8020
4020
4020
4040
2040
2040
2080
1080
1080
1100
0900
0900
0A00
0600
0400
ENDCHAR
STARTCHAR uni0077
ENCODING 119
SWIDTH 789 0
DWIDTH 24 0
BBX 20 17 2 0
BITMAP
804010
806010
806010
80A020
409020
409020
411040
211040
210840
210840
220880
120480
120480
140500
0C0500
0C0300
080200
ENDCHAR
STARTCHAR uni0078
ENCODING 120
SWIDTH 500 0
DWIDTH 15 0
BBX 11 17 2 0
BITMAP
8020
4040
4040
2080
1100
1100
0A00
0A00
0400
0A00
0A00
1100
1100
2080
4040
4040
8020
ENDCHAR
STARTCHAR uni0079
ENCODING 121
SWIDTH 522 0
DWIDTH 16 0
BBX 12 23 2 -6
BITMAP
8010
8010
8020
4020
4020
4040
2040
2040
2080
1080
1080
1100
0900
0900
0A00
0600
0400
0400
0400
0800
0800
1000
E000
ENDCHAR
STARTCHAR uni007A
ENCODING 122
SWIDTH 508 0
DWIDTH 15 0
BBX 11 17 2 0
BITMAP
7FE0
0020
0040
0080
0080
0100
0200
0200
0400
0800
0800
1000
1000
2000
4000
4000
FFE0
ENDCHAR
STARTCHAR uni007B
ENCODING 123
SWIDTH 315 0
DWIDTH 9 0
BBX 7 28 2 -5
BITMAP
06
08
10
10
10
10
10
10
10
10
10
10
20
C0
20
10
10
10
10
10
10
10
10
10
10
10
08
06
ENDCHAR
STARTCHAR uni007C
ENCODING 124
SWIDTH 272 0
DWIDTH 8 0
BBX 1 36 4 -7
BITMAP
80
80
80
80
80
80
80
80
80
80
80
80
80
80
80
80
80
80
80
80
80
80
80
80
80
80
80
80
80
80
80
80
80
80
80
80
ENDCHAR
STARTCHAR uni007D
ENCODING 125
SWIDTH 315 0
DWIDTH 9 0
BBX 8 28 0 -5
BITMAP
E0
10
10
10
10
08
08
08
08
08
08
08
08
07
08
08
08
08
08
08
08
08
08
10
10
10
30
C0
ENDCHAR
STARTCHAR uni007E
ENCODING 126
SWIDTH 636 0
DWIDTH 19 0
BBX 13 3 3 7
BITMAP
3C08
4308
80F0
ENDCHAR
STARTCHAR uni00A0
ENCODING 160
SWIDTH 281 0
DWIDTH 8 0
BBX 1 1 0 0
BITMAP
00
ENDCHAR
STARTCHAR uni00A1
ENCODING 161
SWIDTH 261 0
DWIDTH 8 0
BBX 2 23 3 -6
BITMAP
C0
C0
00
00
00
00
00
80
80
80
80
80
80
80
80
80
80
80
80
80
80
80
80
ENDCHAR
STARTCHAR uni00A2
ENCODING 162
SWIDTH 552 0
DWIDTH 17 0
BBX 13 22 2 0
BITMAP
0200
0200
0F80
1260
2220
4210
4208
8200
8200
8200
8200
8200
8200
8200
8200
4208
4210
2210
1260
0F80
0200
0200
ENDCHAR
STARTCHAR uni00A3
ENCODING 163
SWIDTH 630 0
DWIDTH 19 0
BBX 14 22 2 0
BITMAP
03E0
0418
0804
0804
1004
1000
1000
1000
1000
1000
1000
1000
FFC0
1000
1000
1000
1000
1000
1000
1000
1000
FFFC
ENDCHAR
STARTCHAR uni00A4
ENCODING 164
SWIDTH 681 0
DWIDTH 20 0
BBX 17 19 2 0
BITMAP
83E080
8C1900
500500
200200
400200
800100
800100
800080
800080
800080
800080
800080
800100
800100
400100
400200
600600
981900
87E080
ENDCHAR
STARTCHAR uni00A5
ENCODING 165
SWIDTH 522 0
DWIDTH 16 0
BBX 14 22 1 0
BITMAP
8004
8008
4008
4010
2010
1020
1020
0840
0840
0480
0500
0300
7FF0
0200
0200
7FF0
0200
0200
0200
0200
0200
0200
ENDCHAR
STARTCHAR uni00A6
ENCODING 166
SWIDTH 186 0
DWIDTH 6 0
BBX 1 26 2 -4
BITMAP
80
80
80
80
80
80
80
80
80
80
00
00
00
00
00
00
00
80
80
80
80
80
80
80
80
80
ENDCHAR
STARTCHAR uni00A7
ENCODING 167
SWIDTH 529 0
DWIDTH 16 0
BBX 12 27 2 -5
BITMAP
0F00
3080
2040
4020
4020
4000
2000
1000
3800
4600
8180
8040
8020
8010
4010
3010
0C20
03E0
0180
0040
0020
0020
8020
4020
4020
30C0
0F00
ENDCHAR
STARTCHAR uni00A8
ENCODING 168
SWIDTH 659 0
DWIDTH 20 0
BBX 6 1 7 20
BITMAP
CC
ENDCHAR
STARTCHAR uni00A9
ENCODING 169
SWIDTH 914 0
DWIDTH 27 0
BBX 23 23 2 0
BITMAP
007E00
038180
040060
080010
100008
203C08
20C304
410084
420082
820002
820002
820002
820002
820002
420082
410084
40C304
203C08
100008
080010
040060
030180
00FE00
ENDCHAR
STARTCHAR uni00AA
ENCODING 170
SWIDTH 360 0
DWIDTH 11 0
BBX 7 12 2 10
BITMAP
7C
84
82
02
02
7E
82
82
82
82
86
7A
ENDCHAR
STARTCHAR uni00AB
ENCODING 171
SWIDTH 525 0
DWIDTH 16 0
BBX 11 14 2 2
BITMAP
0420
0840
1040
1080
2080
4100
4200
8200
4100
2100
2080
1080
0840
0C20
ENDCHAR
STARTCHAR uni00AC
ENCODING 172
SWIDTH 499 0
DWIDTH 15 0
BBX 11 6 2 6
BITMAP
FFE0
0020
0020
0020
0020
0020
ENDCHAR
STARTCHAR uni00AD
ENCODING 173
SWIDTH 438 0
DWIDTH 13 0
BBX 8 1 3 9
BITMAP
FF
ENDCHAR
STARTCHAR uni00AE
ENCODING 174
SWIDTH 670 0
DWIDTH 20 0
BBX 17 18 2 5
BITMAP
07E000
181800
200400
400200
400200
87C100
842100
842080
842080
87C080
844080
842100
842100
401200
400200
200400
181800
07E000
ENDCHAR
STARTCHAR uni00AF
ENCODING 175
SWIDTH 292 0
DWIDTH 9 0
BBX 7 1 1 20
BITMAP
FE
ENDCHAR
STARTCHAR uni00B0
ENCODING 176
SWIDTH 454 0
DWIDTH 14 0
BBX 9 9 2 13
BITMAP
1E00
2100
4080
8080
8080
8080
4080
2100
1E00
ENDCHAR
STARTCHAR uni00B1
ENCODING 177
SWIDTH 636 0
DWIDTH 19 0
BBX 13 15 3 2
BITMAP
0200
0200
0200
0200
0200
FFF8
0200
0200
0200
0200
0200
0200
0000
0000
FFF8
ENDCHAR
STARTCHAR uni00B2
ENCODING 178
SWIDTH 411 0
DWIDTH 12 0
BBX 9 13 2 11
BITMAP
3C00
4200
8100
8100
0100
0200
0200
0400
0800
1000
2000
4000
FF80
ENDCHAR
STARTCHAR uni00B3
ENCODING 179
SWIDTH 410 0
DWIDTH 12 0
BBX 9 14 2 11
BITMAP
3C00
4200
8100
8100
0100
0100
0200
1C00
0300
0080
0080
8080
C100
3E00
ENDCHAR
STARTCHAR uni00B4
ENCODING 180
SWIDTH 497 0
DWIDTH 15 0
BBX 4 5 7 19
BITMAP
10
20
20
40
80
ENDCHAR
STARTCHAR uni00B5
ENCODING 181
SWIDTH 563 0
DWIDTH 17 0
BBX 11 23 3 -6
BITMAP
8020
8020
8020
8020
8020
8020
8020
8020
8020
8020
8020
8020
8020
8020
C060
A0A0
9F20
8000
8000
8000
8000
8000
8000
ENDCHAR
STARTCHAR uni00B6
ENCODING 182
SWIDTH 553 0
DWIDTH 17 0
BBX 11 22 2 0
BITMAP
0FE0
3F20
7F20
7F20
FF20
FF20
FF20
FF20
FF20
FF20
7F20
3F20
1F20
0720
0020
0020
0020
0020
0020
0020
0020
0020
ENDCHAR
STARTCHAR uni00B7
ENCODING 183
SWIDTH 252 0
DWIDTH 8 0
BBX 2 2 3 9
BITMAP
80
C0
ENDCHAR
STARTCHAR uni00B8
ENCODING 184
SWIDTH 204 0
DWIDTH 6 0
BBX 4 6 2 -6
BITMAP
40
A0
10
10
20
40
ENDCHAR
STARTCHAR uni00B9
ENCODING 185
SWIDTH 272 0
DWIDTH 8 0
BBX 4 13 1 11
BITMAP
30
50
90
10
10
10
10
10
10
10
10
10
10
ENDCHAR
STARTCHAR uni00BA
ENCODING 186
SWIDTH 390 0
DWIDTH 12 0
BBX 9 12 1 10
BITMAP
1E00
6100
4080
8080
8080
8080
8080
8080
8080
4080
6100
1E00
ENDCHAR
STARTCHAR uni00BB
ENCODING 187
SWIDTH 532 0
DWIDTH 16 0
BBX 11 14 3 2
BITMAP
8400
8200
4100
2100
2080
1040
1040
0820
1040
1080
2080
4100
4200
8600
ENDCHAR
STARTCHAR uni00BC
ENCODING 188
SWIDTH 784 0
DWIDTH 24 0
BBX 21 22 1 0
BITMAP
100040
700080
900080
100100
100200
100200
100400
100800
100800
101000
102000
102030
004050
008050
008090
010110
020110
020210
040410
0807F8
080010
300010
ENDCHAR
STARTCHAR uni00BD
ENCODING 189
SWIDTH 859 0
DWIDTH 26 0
BBX 23 23 1 0
BITMAP
100040
700080
900080
100100
100200
100200
100400
100800
100800
101000
102000
102078
104084
004102
008002
010004
010004
020008
040010
040020
080040
100080
3001FE
ENDCHAR
STARTCHAR uni00BE
ENCODING 190
SWIDTH 899 0
DWIDTH 27 0
BBX 24 22 2 0
BITMAP
3C0008
C20010
820020
020020
060040
180080
060100
010100
010200
810400
820404
7C080C
00100C
001014
002024
004024
004044
008084
010084
0101FF
020004
040004
ENDCHAR
STARTCHAR uni00BF
ENCODING 191
SWIDTH 478 0
DWIDTH 14 0
BBX 11 23 2 -6
BITMAP
0600
0400
0000
0000
0000
0000
0000
0400
0400
0400
0400
0800
1000
2000
4000
8000
8000
8020
8020
8020
4040
6080
1F00
ENDCHAR
STARTCHAR uni00C0
ENCODING 192
SWIDTH 616 0
DWIDTH 19 0
BBX 17 29 1 0
BITMAP
040000
020000
020000
010000
008000
000000
000000
008000
018000
014000
024000
024000
022000
042000
042000
041000
081000
080800
080800
100800
100400
1FFC00
200400
200200
400200
400200
400100
800100
800180
ENDCHAR
STARTCHAR uni00C1
ENCODING 193
SWIDTH 616 0
DWIDTH 19 0
BBX 17 29 1 0
BITMAP
003000
002000
004000
008000
008000
000000
000000
008000
018000
014000
024000
024000
022000
042000
042000
041000
081000
080800
080800
100800
100400
1FFC00
200400
200200
400200
400200
400100
800100
800180
ENDCHAR
STARTCHAR uni00C2
ENCODING 194
SWIDTH 616 0
DWIDTH 19 0
BBX 17 28 1 0
BITMAP
018000
024000
022000
0C1000
000000
000000
008000
018000
014000
024000
024000
022000
042000
042000
041000
081000
080800
080800
100800
100400
1FFC00
200400
200200
400200
400200
400100
800100
800180
ENDCHAR
STARTCHAR uni00C3
ENCODING 195
SWIDTH 616 0
DWIDTH 19 0
BBX 17 28 1 0
BITMAP
070800
088800
107000
000000
000000
000000
008000
018000
014000
024000
024000
022000
042000
042000
041000
081000
080800
080800
100800
100400
1FFC00
200400
200200
400200
400200
400100
800100
800180
ENDCHAR
STARTCHAR uni00C4
ENCODING 196
SWIDTH 616 0
DWIDTH 19 0
BBX 17 27 1 0
BITMAP
022000
000000
000000
000000
000000
008000
018000
014000
024000
024000
022000
042000
042000
041000
081000
080800
080800
100800
100400
1FFC00
200400
200200
400200
400200
400100
800100
800180
ENDCHAR
STARTCHAR uni00C5
ENCODING 197
SWIDTH 616 0
DWIDTH 19 0
BBX 17 29 1 0
BITMAP
018000
024000
022000
022000
024000
018000
000000
008000
018000
014000
024000
024000
022000
042000
042000
041000
081000
080800
080800
100800
100400
1FFC00
200400
200200
400200
400200
400100
800100
800180
ENDCHAR
STARTCHAR uni00C6
ENCODING 198
SWIDTH 958 0
DWIDTH 29 0
BBX 26 22 1 0
BITMAP
001FFF80
00240000
00240000
00440000
00440000
00840000
00840000
01040000
01040000
02040000
0203FF80
04040000
04040000
08040000
0FFC0000
10040000
10040000
20040000
20040000
40040000
40040000
8003FFC0
ENDCHAR
STARTCHAR uni00C7
ENCODING 199
SWIDTH 723 0
DWIDTH 22 0
BBX 18 27 2 -5
BITMAP
03F000
0C0C00
100200
200100
200080
400080
400040
800000
800000
800000
800000
800000
800000
800000
800000
400040
400080
200080
200100
100200
0C0C00
03F000
004000
002000
001000
001000
006000
ENDCHAR
STARTCHAR uni00C8
ENCODING 200
SWIDTH 583 0
DWIDTH 18 0
BBX 12 29 3 0
BITMAP
1000
0800
0800
0400
0200
0000
0000
FFF0
8000
8000
8000
8000
8000
8000
8000
8000
8000
FFE0
8000
8000
8000
8000
8000
8000
8000
8000
8000
8000
FFF0
ENDCHAR
STARTCHAR uni00C9
ENCODING 201
SWIDTH 583 0
DWIDTH 18 0
BBX 12 29 3 0
BITMAP
00C0
0080
0100
0200
0200
0000
0000
FFF0
8000
8000
8000
8000
8000
8000
8000
8000
8000
FFE0
8000
8000
8000
8000
8000
8000
8000
8000
8000
8000
FFF0
ENDCHAR
STARTCHAR uni00CA
ENCODING 202
SWIDTH 583 0
DWIDTH 18 0
BBX 12 28 3 0
BITMAP
0200
0500
0880
3040
0000
0000
FFF0
8000
8000
8000
8000
8000
8000
8000
8000
8000
FFE0
8000
8000
8000
8000
8000
8000
8000
8000
8000
8000
FFF0
ENDCHAR
STARTCHAR uni00CB
ENCODING 203
SWIDTH 583 0
DWIDTH 18 0
BBX 12 27 3 0
BITMAP
0880
0000
0000
0000
0000
FFF0
8000
8000
8000
8000
8000
8000
8000
8000
8000
FFE0
8000
8000
8000
8000
8000
8000
8000
8000
8000
8000
FFF0
ENDCHAR
STARTCHAR uni00CC
ENCODING 204
SWIDTH 250 0
DWIDTH 8 0
BBX 4 29 0 0
BITMAP
C0
40
20
10
10
00
00
10
10
10
10
10
10
10
10
10
10
10
10
10
10
10
10
10
10
10
10
10
10
ENDCHAR
STARTCHAR uni00CD
ENCODING 205
SWIDTH 250 0
DWIDTH 8 0
BBX 4 29 3 0
BITMAP
10
20
20
40
80
00
00
80
80
80
80
80
80
80
80
80
80
80
80
80
80
80
80
80
80
80
80
80
80
ENDCHAR
STARTCHAR uni00CE
ENCODING 206
SWIDTH 250 0
DWIDTH 8 0
BBX 8 28 0 0
BITMAP
10
28
44
83
00
00
10
10
10
10
10
10
10
10
10
10
10
10
10
10
10
10
10
10
10
10
10
10
ENDCHAR
STARTCHAR uni00CF
ENCODING 207
SWIDTH 250 0
DWIDTH 8 0
BBX 5 27 1 0
BITMAP
88
00
00
00
00
20
20
20
20
20
20
20
20
20
20
20
20
20
20
20
20
20
20
20
20
20
20
ENDCHAR
STARTCHAR uni00D0
ENCODING 208
SWIDTH 714 0
DWIDTH 21 0
BBX 19 22 0 0
BITMAP
1FF800
100600
100100
100080
100040
100040
100020
100020
100020
100020
FF0020
100020
100020
100020
100020
100020
100040
100040
100080
100100
100600
1FF800
ENDCHAR
STARTCHAR uni00D1
ENCODING 209
SWIDTH 772 0
DWIDTH 23 0
BBX 17 28 3 0
BITMAP
070400
088800
087000
000000
000000
000000
800080
C00080
A00080
900080
900080
880080
840080
820080
820080
810080
808080
808080
804080
802080
801080
801080
800880
800480
800480
800280
800180
800080
ENDCHAR
STARTCHAR uni00D2
ENCODING 210
SWIDTH 747 0
DWIDTH 22 0
BBX 18 29 2 0
BITMAP
020000
010000
010000
008000
004000
000000
000000
03F000
0C0C00
100200
200100
200080
400080
400040
800040
800040
800040
800040
800040
800040
800040
800040
400040
400080
200080
200100
100200
0C0C00
03F000
ENDCHAR
STARTCHAR uni00D3
ENCODING 211
SWIDTH 747 0
DWIDTH 22 0
BBX 18 29 2 0
BITMAP
001800
001000
002000
002000
004000
000000
000000
03F000
0C0C00
100200
200100
200080
400080
400040
800040
800040
800040
800040
800040
800040
800040
800040
400040
400080
200080
200100
100200
0C0C00
03F000
ENDCHAR
STARTCHAR uni00D4
ENCODING 212
SWIDTH 747 0
DWIDTH 22 0
BBX 18 29 2 0
BITMAP
004000
00C000
012000
021000
040800
000000
000000
03F000
0C0C00
100200
200100
200080
400080
400040
800040
800040
800040
800040
800040
800040
800040
800040
400040
400080
200080
200100
100200
0C0C00
03F000
ENDCHAR
STARTCHAR uni00D5
ENCODING 213
SWIDTH 747 0
DWIDTH 22 0
BBX 18 28 2 0
BITMAP
038400
087800
000000
000000
000000
000000
03F000
0C0C00
100200
200100
200080
400080
400040
800040
800040
800040
800040
800040
800040
800040
800040
400040
400080
200080
200100
100200
0C0C00
03F000
ENDCHAR
STARTCHAR uni00D6
ENCODING 214
SWIDTH 747 0
DWIDTH 22 0
BBX 18 27 2 0
BITMAP
031000
000000
000000
000000
000000
03F000
0C0C00
100200
200100
200080
400080
400040
800040
800040
800040
800040
800040
800040
800040
800040
400040
400080
200080
200100
100200
0C0C00
03F000
ENDCHAR
STARTCHAR uni00D7
ENCODING 215
SWIDTH 636 0
DWIDTH 19 0
BBX 13 13 3 2
BITMAP
8008
4010
2020
1040
0880
0500
0200
0500
0880
1040
2020
4010
8008
ENDCHAR
STARTCHAR uni00D8
ENCODING 216
SWIDTH 747 0
DWIDTH 22 0
BBX 18 22 2 0
BITMAP
03F080
0C0D00
100200
200300
200480
400480
400840
801040
801040
802040
804040
804040
808040
810040
810040
420040
440080
440080
280100
100200
2C0400
23F800
ENDCHAR
STARTCHAR uni00D9
ENCODING 217
SWIDTH 750 0
DWIDTH 23 0
BBX 16 29 3 0
BITMAP
0400
0200
0200
0100
0080
0000
0000
8001
8001
8001
8001
8001
8001
8001
8001
8001
8001
8001
8001
8001
8001
8001
8001
4001
4001
2002
2004
1818
07E0
ENDCHAR
STARTCHAR uni00DA
ENCODING 218
SWIDTH 750 0
DWIDTH 23 0
BBX 16 29 3 0
BITMAP
0030
0020
0040
0080
0080
0000
0000
8001
8001
8001
8001
8001
8001
8001
8001
8001
8001
8001
8001
8001
8001
8001
8001
4001
4001
2002
2004
1818
07E0
ENDCHAR
STARTCHAR uni00DB
ENCODING 219
SWIDTH 750 0
DWIDTH 23 0
BBX 16 29 3 0
BITMAP
0080
0140
0240
0420
0810
0000
0000
8001
8001
8001
8001
8001
8001
8001
8001
8001
8001
8001
8001
8001
8001
8001
8001
4001
4001
2002
2004
1818
07E0
ENDCHAR
STARTCHAR uni00DC
ENCODING 220
SWIDTH 750 0
DWIDTH 23 0
BBX 16 27 3 0
BITMAP
0220
0000
0000
0000
0000
8001
8001
8001
8001
8001
8001
8001
8001
8001
8001
8001
8001
8001
8001
8001
8001
4001
4001
2002
2004
1818
07E0
ENDCHAR
STARTCHAR uni00DD
ENCODING 221
SWIDTH 613 0
DWIDTH 18 0
BBX 16 29 1 0
BITMAP
0030
0020
0040
0080
0080
0000
0000
8001
4002
2002
2004
1008
0808
0810
0420
0220
0240
0180
0080
0080
0080
0080
0080
0080
0080
0080
0080
0080
0080
ENDCHAR
STARTCHAR uni00DE
ENCODING 222
SWIDTH 590 0
DWIDTH 18 0
BBX 12 22 3 0
BITMAP
8000
8000
8000
8000
8000
FF80
8060
8020
8010
8010
8010
8010
8010
8010
8020
8040
FF80
8000
8000
8000
8000
8000
ENDCHAR
STARTCHAR uni00DF
ENCODING 223
SWIDTH 574 0
DWIDTH 17 0
BBX 12 22 3 0
BITMAP
1F00
20C0
4040
4020
8020
8020
8020
8020
8040
8180
8F00
80C0
8020
8020
8010
8010
8010
8010
8010
8020
8040
8F00
ENDCHAR
STARTCHAR uni00E0
ENCODING 224
SWIDTH 541 0
DWIDTH 16 0
BBX 11 24 2 0
BITMAP
1000
0800
0800
0400
0200
0000
0000
1F80
2040
4020
8020
0020
0020
0020
03E0
3C20
4020
8020
8020
8020
8060
8060
40A0
3F20
ENDCHAR
STARTCHAR uni00E1
ENCODING 225
SWIDTH 541 0
DWIDTH 16 0
BBX 11 24 2 0
BITMAP
00C0
0080
0100
0200
0200
0000
0000
1F80
2040
4020
8020
0020
0020
0020
03E0
3C20
4020
8020
8020
8020
8060
8060
40A0
3F20
ENDCHAR
STARTCHAR uni00E2
ENCODING 226
SWIDTH 541 0
DWIDTH 16 0
BBX 11 23 2 0
BITMAP
0600
0900
1080
2040
0000
0000
1F80
2040
4020
8020
0020
0020
0020
03E0
3C20
4020
8020
8020
8020
8060
8060
40A0
3F20
ENDCHAR
STARTCHAR uni00E3
ENCODING 227
SWIDTH 541 0
DWIDTH 16 0
BBX 11 22 2 0
BITMAP
3C20
41C0
0000
0000
0000
1F80
2040
4020
8020
0020
0020
0020
03E0
3C20
4020
8020
8020
8020
8060
8060
40A0
3F20
ENDCHAR
STARTCHAR uni00E4
ENCODING 228
SWIDTH 541 0
DWIDTH 16 0
BBX 11 21 2 0
BITMAP
1980
0000
0000
0000
1F80
2040
4020
8020
0020
0020
0020
03E0
3C20
4020
8020
8020
8020
8060
8060
40A0
3F20
ENDCHAR
STARTCHAR uni00E5
ENCODING 229
SWIDTH 541 0
DWIDTH 16 0
BBX 11 24 2 0
BITMAP
0600
0900
0880
0900
0600
0000
0000
1F80
2040
4020
8020
0020
0020
0020
03E0
3C20
4020
8020
8020
8020
8060
8060
40A0
3F20
ENDCHAR
STARTCHAR uni00E6
ENCODING 230
SWIDTH 921 0
DWIDTH 28 0
BBX 24 17 2 0
BITMAP
1F83E0
204408
402804
803002
003002
002001
002001
07DFFF
382000
402000
802000
803000
803000
804802
804804
608608
1F01F0
ENDCHAR
STARTCHAR uni00E7
ENCODING 231
SWIDTH 552 0
DWIDTH 17 0
BBX 13 22 2 -5
BITMAP
0F80
1060
2010
4010
4008
8000
8000
8000
8000
8000
8000
8000
4008
4010
2010
1060
0F80
0300
0080
0080
0080
0300
ENDCHAR
STARTCHAR uni00E8
ENCODING 232
SWIDTH 576 0
DWIDTH 17 0
BBX 13 24 2 0
BITMAP
1000
0800
0400
0400
0200
0000
0000
0F80
1060
2010
4008
8008
8008
8008
FFF8
8000
8000
8000
8000
4000
4008
2010
1020
0FC0
ENDCHAR
STARTCHAR uni00E9
ENCODING 233
SWIDTH 576 0
DWIDTH 17 0
BBX 13 24 2 0
BITMAP
0040
0080
0100
0100
0200
0000
0000
0F80
1060
2010
4008
8008
8008
8008
FFF8
8000
8000
8000
8000
4000
4008
2010
1020
0FC0
ENDCHAR
STARTCHAR uni00EA
ENCODING 234
SWIDTH 576 0
DWIDTH 17 0
BBX 13 23 2 0
BITMAP
0200
0500
0880
1060
0000
0000
0F80
1060
2010
4008
8008
8008
8008
FFF8
8000
8000
8000
8000
4000
4008
2010
1020
0FC0
ENDCHAR
STARTCHAR uni00EB
ENCODING 235
SWIDTH 576 0
DWIDTH 17 0
BBX 13 21 2 0
BITMAP
0880
0000
0000
0000
0F80
1060
2010
4008
8008
8008
8008
FFF8
8000
8000
8000
8000
4000
4008
2010
1020
0FC0
ENDCHAR
STARTCHAR uni00EC
ENCODING 236
SWIDTH 221 0
DWIDTH 7 0
BBX 4 24 0 0
BITMAP
80
40
40
20
10
00
00
10
10
10
10
10
10
10
10
10
10
10
10
10
10
10
10
10
ENDCHAR
STARTCHAR uni00ED
ENCODING 237
SWIDTH 221 0
DWIDTH 7 0
BBX 4 24 3 0
BITMAP
10
20
40
40
80
00
00
80
80
80
80
80
80
80
80
80
80
80
80
80
80
80
80
80
ENDCHAR
STARTCHAR uni00EE
ENCODING 238
SWIDTH 221 0
DWIDTH 7 0
BBX 8 23 -1 0
BITMAP
08
14
22
41
81
00
08
08
08
08
08
08
08
08
08
08
08
08
08
08
08
08
08
ENDCHAR
STARTCHAR uni00EF
ENCODING 239
SWIDTH 221 0
DWIDTH 7 0
BBX 5 21 1 0
BITMAP
88
00
00
00
20
20
20
20
20
20
20
20
20
20
20
20
20
20
20
20
20
ENDCHAR
STARTCHAR uni00F0
ENCODING 240
SWIDTH 593 0
DWIDTH 18 0
BBX 14 24 2 0
BITMAP
0800
0408
0230
01C0
0780
0840
0020
0010
0790
1868
2018
4008
400C
8004
8004
8004
8004
8004
8004
8008
4008
2010
1020
0FC0
ENDCHAR
STARTCHAR uni00F1
ENCODING 241
SWIDTH 568 0
DWIDTH 17 0
BBX 11 22 3 0
BITMAP
3820
4440
4380
0000
0000
9F00
A080
C040
8020
8020
8020
8020
8020
8020
8020
8020
8020
8020
8020
8020
8020
8020
ENDCHAR
STARTCHAR uni00F2
ENCODING 242
SWIDTH 579 0
DWIDTH 17 0
BBX 13 24 2 0
BITMAP
1000
0800
0400
0200
0200
0000
0000
0F80
1060
2010
4010
4008
8008
8008
8008
8008
8008
8008
8008
4008
4010
2010
1060
0F80
ENDCHAR
STARTCHAR uni00F3
ENCODING 243
SWIDTH 579 0
DWIDTH 17 0
BBX 13 24 2 0
BITMAP
0040
0080
0080
0100
0200
0000
0000
0F80
1060
2010
4010
4008
8008
8008
8008
8008
8008
8008
8008
4008
4010
2010
1060
0F80
ENDCHAR
STARTCHAR uni00F4
ENCODING 244
SWIDTH 579 0
DWIDTH 17 0
BBX 13 23 2 0
BITMAP
0200
0500
0880
1060
0000
0000
0F80
1060
2010
4010
4008
8008
8008
8008
8008
8008
8008
8008
4008
4010
2010
1060
0F80
ENDCHAR
STARTCHAR uni00F5
ENCODING 245
SWIDTH 579 0
DWIDTH 17 0
BBX 13 22 2 0
BITMAP
1E10
21E0
0000
0000
0000
0F80
1060
2010
4010
4008
8008
8008
8008
8008
8008
8008
8008
4008
4010
2010
1060
0F80
ENDCHAR
STARTCHAR uni00F6
ENCODING 246
SWIDTH 579 0
DWIDTH 17 0
BBX 13 21 2 0
BITMAP
0880
0000
0000
0000
0F80
1060
2010
4010
4008
8008
8008
8008
8008
8008
8008
8008
4008
4010
2010
1060
0F80
ENDCHAR
STARTCHAR uni00F7
ENCODING 247
SWIDTH 636 0
DWIDTH 19 0
BBX 13 12 3 3
BITMAP
0200
0200
0000
0000
0000
0000
FFF8
0000
0000
0000
0200
0200
ENDCHAR
STARTCHAR uni00F8
ENCODING 248
SWIDTH 579 0
DWIDTH 17 0
BBX 13 17 2 0
BITMAP
0F88
1070
2020
4030
4048
8088
8088
8108
8208
8208
8408
8808
4808
5010
2010
5060
4F80
ENDCHAR
STARTCHAR uni00F9
ENCODING 249
SWIDTH 568 0
DWIDTH 17 0
BBX 11 24 3 0
BITMAP
2000
1000
0800
0800
0400
0000
0000
8020
8020
8020
8020
8020
8020
8020
8020
8020
8020
8020
8020
8020
8020
4060
20A0
1F20
ENDCHAR
STARTCHAR uni00FA
ENCODING 250
SWIDTH 568 0
DWIDTH 17 0
BBX 11 24 3 0
BITMAP
0080
0100
0200
0200
0400
0000
0000
8020
8020
8020
8020
8020
8020
8020
8020
8020
8020
8020
8020
8020
8020
4060
20A0
1F20
ENDCHAR
STARTCHAR uni00FB
ENCODING 251
SWIDTH 568 0
DWIDTH 17 0
BBX 11 23 3 0
BITMAP
0400
0A00
1100
2080
4040
0000
8020
8020
8020
8020
8020
8020
8020
8020
8020
8020
8020
8020
8020
8020
4060
20A0
1F20
ENDCHAR
STARTCHAR uni00FC
ENCODING 252
SWIDTH 568 0
DWIDTH 17 0
BBX 11 21 3 0
BITMAP
1100
0000
0000
0000
8020
8020
8020
8020
8020
8020
8020
8020
8020
8020
8020
8020
8020
8020
4060
20A0
1F20
ENDCHAR
STARTCHAR uni00FD
ENCODING 253
SWIDTH 522 0
DWIDTH 16 0
BBX 12 30 2 -6
BITMAP
0080
0100
0100
0200
0400
0000
0000
8010
8010
8020
4020
4020
4040
2040
2040
2080
1080
1080
1100
0900
0900
0A00
0600
0400
0400
0400
0800
0800
1000
E000
ENDCHAR
STARTCHAR uni00FE
ENCODING 254
SWIDTH 575 0
DWIDTH 17 0
BBX 12 28 3 -6
BITMAP
8000
8000
8000
8000
8000
8F80
B040
C020
C020
8010
8010
8010
8010
8010
8010
8010
8010
8010
C020
C020
B040
8F80
8000
8000
8000
8000
8000
8000
ENDCHAR
STARTCHAR uni00FF
ENCODING 255
SWIDTH 522 0
DWIDTH 16 0
BBX 12 27 2 -6
BITMAP
1180
0000
0000
0000
8010
8010
8020
4020
4020
4040
2040
2040
2080
1080
1080
1100
0900
0900
0A00
0600
0400
0400
0400
0800
0800
1000
E000
ENDCHAR
STARTCHAR uni0100
ENCODING 256
SWIDTH 616 0
DWIDTH 19 0
BBX 17 27 1 0
BITMAP
07F000
000000
000000
000000
000000
008000
018000
014000
024000
024000
022000
042000
042000
041000
081000
080800
080800
100800
100400
1FFC00
200400
200200
400200
400200
400100
800100
800180
ENDCHAR
STARTCHAR uni0101
ENCODING 257
SWIDTH 541 0
DWIDTH 16 0
BBX 11 21 2 0
BITMAP
1FC0
0000
0000
0000
1F80
2040
4020
8020
0020
0020
0020
03E0
3C20
4020
8020
8020
8020
8060
8060
40A0
3F20
ENDCHAR
STARTCHAR uni0102
ENCODING 258
SWIDTH 616 0
DWIDTH 19 0
BBX 17 28 1 0
BITMAP
022000
024000
01C000
000000
000000
000000
008000
018000
014000
024000
024000
022000
042000
042000
041000
081000
080800
080800
100800
100400
1FFC00
200400
200200
400200
400200
400100
800100
800180
ENDCHAR
STARTCHAR uni0103
ENCODING 259
SWIDTH 541 0
DWIDTH 16 0
BBX 11 22 2 0
BITMAP
0880
0700
0000
0000
0000
1F80
2040
4020
8020
0020
0020
0020
03E0
3C20
4020
8020
8020
8020
8060
8060
40A0
3F20
ENDCHAR
STARTCHAR uni0104
ENCODING 260
SWIDTH 616 0
DWIDTH 19 0
BBX 18 28 1 -6
BITMAP
008000
018000
014000
024000
024000
022000
042000
041000
041000
081000
080800
100800
100800
1FF800
200400
200400
200200
400200
400200
400100
800100
800100
000180
000200
000200
000400
000400
0003C0
ENDCHAR
STARTCHAR uni0105
ENCODING 261
SWIDTH 541 0
DWIDTH 16 0
BBX 13 23 2 -6
BITMAP
1F80
2040
4020
8020
0020
0020
0020
03E0
3C20
4020
8020
8020
8020
8020
8060
40A0
3F20
0020
0040
0080
0080
0080
0078
ENDCHAR
STARTCHAR uni0106
ENCODING 262
SWIDTH 723 0
DWIDTH 22 0
BBX 18 29 2 0
BITMAP
001800
001000
002000
002000
004000
000000
000000
03F000
0C0C00
100200
200100
200080
400080
400040
800000
800000
800000
800000
800000
800000
800000
800000
400040
400080
200080
200100
100200
0C0C00
03F000
ENDCHAR
STARTCHAR uni0107
ENCODING 263
SWIDTH 552 0
DWIDTH 17 0
BBX 13 24 2 0
BITMAP
0040
0080
0100
0100
0200
0000
0000
0F80
1060
2010
4010
4008
8000
8000
8000
8000
8000
8000
8000
4008
4010
2010
1060
0F80
ENDCHAR
STARTCHAR uni0108
ENCODING 264
SWIDTH 723 0
DWIDTH 22 0
BBX 18 29 2 0
BITMAP
004000
00C000
012000
021000
040800
000000
000000
03F000
0C0C00
100200
200100
200080
400080
400040
800000
800000
800000
800000
800000
800000
800000
800000
400040
400080
200080
200100
100200
0C0C00
03F000
ENDCHAR
STARTCHAR uni0109
ENCODING 265
SWIDTH 552 0
DWIDTH 17 0
BBX 13 23 2 0
BITMAP
0200
0500
0880
1060
0000
0000
0F80
1060
2010
4010
4008
8000
8000
8000
8000
8000
8000
8000
4008
4010
2010
1060
0F80
ENDCHAR
STARTCHAR uni010A
ENCODING 266
SWIDTH 723 0
DWIDTH 22 0
BBX 18 27 2 0
BITMAP
004000
000000
000000
000000
000000
03F000
0C0C00
100200
200100
200080
400080
400040
800000
800000
800000
800000
800000
800000
800000
800000
400040
400080
200080
200100
100200
0C0C00
03F000
ENDCHAR
STARTCHAR uni010B
ENCODING 267
SWIDTH 552 0
DWIDTH 17 0
BBX 13 21 2 0
BITMAP
0200
0000
0000
0000
0F80
1060
2010
4010
4008
8000
8000
8000
8000
8000
8000
8000
4008
4010
2010
1060
0F80
ENDCHAR
STARTCHAR uni010C
ENCODING 268
SWIDTH 723 0
DWIDTH 22 0
BBX 18 29 2 0
BITMAP
040800
021000
012000
00C000
004000
000000
000000
03F000
0C0C00
100200
200100
200080
400080
400040
800000
800000
800000
800000
800000
800000
800000
800000
400040
400080
200080
200100
100200
0C0C00
03F000
ENDCHAR
STARTCHAR uni010D
ENCODING 269
SWIDTH 552 0
DWIDTH 17 0
BBX 13 24 2 0
BITMAP
0020
1040
0880
0500
0200
0000
0000
0F80
1060
2010
4010
4008
8000
8000
8000
8000
8000
8000
8000
4008
4010
2010
1060
0F80
ENDCHAR
STARTCHAR uni010E
ENCODING 270
SWIDTH 714 0
DWIDTH 21 0
BBX 16 29 3 0
BITMAP
2040
1080
0900
0600
0200
0000
0000
FFC0
8030
8008
8004
8002
8002
8001
8001
8001
8001
8001
8001
8001
8001
8001
8001
8002
8002
8004
8008
8030
FFC0
ENDCHAR
STARTCHAR uni010F
ENCODING 271
SWIDTH 561 0
DWIDTH 17 0
BBX 15 24 2 0
BITMAP
0002
0002
000A
000A
000A
000A
0008
0F88
3048
2028
4018
8018
8018
8008
8008
8008
8008
8008
8018
8018
4018
2028
3048
0F08
ENDCHAR
STARTCHAR uni0110
ENCODING 272
SWIDTH 714 0
DWIDTH 21 0
BBX 19 22 0 0
BITMAP
1FF800
100600
100100
100080
100040
100040
100020
100020
100020
100020
FF0020
100020
100020
100020
100020
100020
100040
100040
100080
100100
100600
1FF800
ENDCHAR
STARTCHAR uni0111
ENCODING 273
SWIDTH 598 0
DWIDTH 18 0
BBX 15 22 2 0
BITMAP
0008
0008
01FE
0008
0008
0F88
3048
2028
4018
8018
8018
8008
8008
8008
8008
8008
8018
8018
4018
2028
3048
0F08
ENDCHAR
STARTCHAR uni0112
ENCODING 274
SWIDTH 583 0
DWIDTH 18 0
BBX 12 27 3 0
BITMAP
1FC0
0000
0000
0000
0000
FFF0
8000
8000
8000
8000
8000
8000
8000
8000
8000
FFE0
8000
8000
8000
8000
8000
8000
8000
8000
8000
8000
FFF0
ENDCHAR
STARTCHAR uni0113
ENCODING 275
SWIDTH 576 0
DWIDTH 17 0
BBX 13 21 2 0
BITMAP
1FC0
0000
0000
0000
0F80
1060
2010
4008
8008
8008
8008
FFF8
8000
8000
8000
8000
4000
4008
2010
1020
0FC0
ENDCHAR
STARTCHAR uni0114
ENCODING 276
SWIDTH 583 0
DWIDTH 18 0
BBX 12 28 3 0
BITMAP
0880
0900
0700
0000
0000
0000
FFF0
8000
8000
8000
8000
8000
8000
8000
8000
8000
FFE0
8000
8000
8000
8000
8000
8000
8000
8000
8000
8000
FFF0
ENDCHAR
STARTCHAR uni0115
ENCODING 277
SWIDTH 576 0
DWIDTH 17 0
BBX 13 22 2 0
BITMAP
0880
0700
0000
0000
0000
0F80
1060
2010
4008
8008
8008
8008
FFF8
8000
8000
8000
8000
4000
4008
2010
1020
0FC0
ENDCHAR
STARTCHAR uni0116
ENCODING 278
SWIDTH 583 0
DWIDTH 18 0
BBX 12 27 3 0
BITMAP
0200
0000
0000
0000
0000
FFF0
8000
8000
8000
8000
8000
8000
8000
8000
8000
FFE0
8000
8000
8000
8000
8000
8000
8000
8000
8000
8000
FFF0
ENDCHAR
STARTCHAR uni0117
ENCODING 279
SWIDTH 576 0
DWIDTH 17 0
BBX 13 21 2 0
BITMAP
0200
0000
0000
0000
0F80
1060
2010
4008
8008
8008
8008
FFF8
8000
8000
8000
8000
4000
4008
2010
1020
0FC0
ENDCHAR
STARTCHAR uni0118
ENCODING 280
SWIDTH 583 0
DWIDTH 18 0
BBX 14 28 3 -6
BITMAP
FFF0
8000
8000
8000
8000
8000
8000
8000
8000
8000
FFE0
8000
8000
8000
8000
8000
8000
8000
8000
8000
8000
FFF0
0010
0020
0040
0040
0040
003C
ENDCHAR
STARTCHAR uni0119
ENCODING 281
SWIDTH 576 0
DWIDTH 17 0
BBX 13 23 2 -6
BITMAP
0F80
1060
2010
4008
8008
8008
8008
FFF8
8000
8000
8000
8000
4000
4008
2010
1020
0FC0
0200
0400
0800
0800
0800
0780
ENDCHAR
STARTCHAR uni011A
ENCODING 282
SWIDTH 583 0
DWIDTH 18 0
BBX 12 29 3 0
BITMAP
3040
1080
0900
0600
0200
0000
0000
FFF0
8000
8000
8000
8000
8000
8000
8000
8000
8000
FFE0
8000
8000
8000
8000
8000
8000
8000
8000
8000
8000
FFF0
ENDCHAR
STARTCHAR uni011B
ENCODING 283
SWIDTH 576 0
DWIDTH 17 0
BBX 13 24 2 0
BITMAP
0020
1040
0880
0500
0200
0000
0000
0F80
1060
2010
4008
8008
8008
8008
FFF8
8000
8000
8000
8000
4000
4008
2010
1020
0FC0
ENDCHAR
STARTCHAR uni011C
ENCODING 284
SWIDTH 738 0
DWIDTH 22 0
BBX 18 29 2 0
BITMAP
004000
00C000
012000
021000
040800
000000
000000
03F800
0C0400
100200
200100
200080
400080
400040
800000
800000
800000
800000
807FC0
800040
800040
800040
400080
400080
200080
200100
100200
0C0C00
03F000
ENDCHAR
STARTCHAR uni011D
ENCODING 285
SWIDTH 583 0
DWIDTH 18 0
BBX 13 29 2 -6
BITMAP
0200
0500
0880
1060
0000
0000
0F88
3048
2028
4028
8018
8018
8008
8008
8008
8008
8008
8008
8018
4018
4028
3048
0F88
0008
0008
0010
4010
2020
1FC0
ENDCHAR
STARTCHAR uni011E
ENCODING 286
SWIDTH 738 0
DWIDTH 22 0
BBX 18 28 2 0
BITMAP
011000
00E000
000000
000000
000000
000000
03F800
0C0400
100200
200100
200080
400080
400040
800000
800000
800000
800000
807FC0
800040
800040
800040
400080
400080
200080
200100
100200
0C0C00
03F000
ENDCHAR
STARTCHAR uni011F
ENCODING 287
SWIDTH 583 0
DWIDTH 18 0
BBX 13 28 2 -6
BITMAP
0880
0700
0000
0000
0000
0F88
3048
2028
4028
8018
8018
8008
8008
8008
8008
8008
8008
8018
4018
4028
3048
0F88
0008
0008
0010
4010
2020
1FC0
ENDCHAR
STARTCHAR uni0120
ENCODING 288
SWIDTH 738 0
DWIDTH 22 0
BBX 18 27 2 0
BITMAP
00C000
000000
000000
000000
000000
03F800
0C0400
100200
200100
200080
400080
400040
800000
800000
800000
800000
807FC0
800040
800040
800040
400080
400080
200080
200100
100200
0C0C00
03F000
ENDCHAR
STARTCHAR uni0121
ENCODING 289
SWIDTH 583 0
DWIDTH 18 0
BBX 13 28 2 -6
BITMAP
0200
0000
0000
0000
0000
0F88
3048
2028
4028
8018
8018
8008
8008
8008
8008
8008
8008
8018
4018
4028
3048
0F88
0008
0008
0010
4010
2020
1FC0
ENDCHAR
STARTCHAR uni0122
ENCODING 290
SWIDTH 738 0
DWIDTH 22 0
BBX 18 29 2 -7
BITMAP
03F800
0C0400
100200
200100
200080
400080
400040
800000
800000
800000
800000
807FC0
800040
800040
800040
400080
400080
200080
200100
100200
0C0C00
03F000
000000
004000
008000
008000
008000
010000
010000
ENDCHAR
STARTCHAR uni0123
ENCODING 291
SWIDTH 583 0
DWIDTH 18 0
BBX 13 31 2 -6
BITMAP
0080
0100
0100
0200
0200
0200
0000
0000
0F88
3048
2028
4028
8018
8018
8008
8008
8008
8008
8008
8008
8018
4018
4028
3048
0F88
0008
0008
0010
4010
2020
1FC0
ENDCHAR
STARTCHAR uni0124
ENCODING 292
SWIDTH 735 0
DWIDTH 22 0
BBX 16 28 3 0
BITMAP
0180
0240
0420
0810
0000
0000
8001
8001
8001
8001
8001
8001
8001
8001
8001
8001
FFFF
8001
8001
8001
8001
8001
8001
8001
8001
8001
8001
8001
ENDCHAR
STARTCHAR uni0125
ENCODING 293
SWIDTH 568 0
DWIDTH 17 0
BBX 15 28 -1 0
BITMAP
1800
2400
2200
C100
0000
0000
0800
0800
0800
0800
0800
09F0
0A08
0C04
0802
0802
0802
0802
0802
0802
0802
0802
0802
0802
0802
0802
0802
0802
ENDCHAR
STARTCHAR uni0126
ENCODING 294
SWIDTH 743 0
DWIDTH 22 0
BBX 19 22 2 0
BITMAP
400080
400080
400080
400080
400080
400080
FFFFE0
400080
400080
400080
3FFF80
400080
400080
400080
400080
400080
400080
400080
400080
400080
400080
400080
ENDCHAR
STARTCHAR uni0127
ENCODING 295
SWIDTH 568 0
DWIDTH 17 0
BBX 15 22 -1 0
BITMAP
0800
0800
FF00
0800
0800
09F0
0A08
0C04
0802
0802
0802
0802
0802
0802
0802
0802
0802
0802
0802
0802
0802
0802
ENDCHAR
STARTCHAR uni0128
ENCODING 296
SWIDTH 349 0
DWIDTH 10 0
BBX 10 28 0 0
BITMAP
3840
4440
8380
0000
0000
0000
0400
0400
0400
0400
0400
0400
0400
0400
0400
0400
0400
0400
0400
0400
0400
0400
0400
0400
0400
0400
0400
0400
ENDCHAR
STARTCHAR uni0129
ENCODING 297
SWIDTH 221 0
DWIDTH 7 0
BBX 10 22 -2 0
BITMAP
3840
4440
8380
0000
0000
0400
0400
0400
0400
0400
0400
0400
0400
0400
0400
0400
0400
0400
0400
0400
0400
0400
ENDCHAR
STARTCHAR uni012A
ENCODING 298
SWIDTH 250 0
DWIDTH 8 0
BBX 7 27 0 0
BITMAP
FE
00
00
00
00
10
10
10
10
10
10
10
10
10
10
10
10
10
10
10
10
10
10
10
10
10
10
ENDCHAR
STARTCHAR uni012B
ENCODING 299
SWIDTH 221 0
DWIDTH 7 0
BBX 7 21 0 0
BITMAP
FE
00
00
00
10
10
10
10
10
10
10
10
10
10
10
10
10
10
10
10
10
ENDCHAR
STARTCHAR uni012C
ENCODING 300
SWIDTH 250 0
DWIDTH 8 0
BBX 5 28 1 0
BITMAP
88
48
70
00
00
00
20
20
20
20
20
20
20
20
20
20
20
20
20
20
20
20
20
20
20
20
20
20
ENDCHAR
STARTCHAR uni012D
ENCODING 301
SWIDTH 221 0
DWIDTH 7 0
BBX 5 22 1 0
BITMAP
88
70
00
00
00
20
20
20
20
20
20
20
20
20
20
20
20
20
20
20
20
20
ENDCHAR
STARTCHAR uni012E
ENCODING 302
SWIDTH 250 0
DWIDTH 8 0
BBX 5 28 1 -6
BITMAP
20
20
20
20
20
20
20
20
20
20
20
20
20
20
20
20
20
20
20
20
20
20
20
40
80
80
80
78
ENDCHAR
STARTCHAR uni012F
ENCODING 303
SWIDTH 196 0
DWIDTH 6 0
BBX 4 28 1 -6
BITMAP
60
00
00
00
00
20
20
20
20
20
20
20
20
20
20
20
20
20
20
20
20
20
40
80
80
80
80
70
ENDCHAR
STARTCHAR uni0130
ENCODING 304
SWIDTH 250 0
DWIDTH 8 0
BBX 1 27 3 0
BITMAP
80
00
00
00
00
80
80
80
80
80
80
80
80
80
80
80
80
80
80
80
80
80
80
80
80
80
80
ENDCHAR
STARTCHAR uni0131
ENCODING 305
SWIDTH 221 0
DWIDTH 7 0
BBX 1 17 3 0
BITMAP
80
80
80
80
80
80
80
80
80
80
80
80
80
80
80
80
80
ENDCHAR
STARTCHAR uni0132
ENCODING 306
SWIDTH 769 0
DWIDTH 23 0
BBX 17 22 3 0
BITMAP
800080
800080
800080
800080
800080
800080
800080
800080
800080
800080
800080
800080
800080
800080
800080
800080
800080
800080
820100
820100
818200
807C00
ENDCHAR
STARTCHAR uni0133
ENCODING 307
SWIDTH 443 0
DWIDTH 13 0
BBX 8 27 3 -6
BITMAP
83
00
00
00
82
82
82
82
82
82
82
82
82
82
82
82
82
82
82
82
82
02
02
02
02
02
1C
ENDCHAR
STARTCHAR uni0134
ENCODING 308
SWIDTH 519 0
DWIDTH 16 0
BBX 14 29 2 0
BITMAP
0040
0060
0090
0108
0204
0000
0000
0040
0040
0040
0040
0040
0040
0040
0040
0040
0040
0040
0040
0040
0040
0040
0040
0040
0040
8040
8080
4180
3E00
ENDCHAR
STARTCHAR uni0135
ENCODING 309
SWIDTH 221 0
DWIDTH 7 0
BBX 8 29 -1 -6
BITMAP
08
14
22
C1
00
00
08
08
08
08
08
08
08
08
08
08
08
08
08
08
08
08
08
08
08
08
08
10
60
ENDCHAR
STARTCHAR uni0136
ENCODING 310
SWIDTH 616 0
DWIDTH 19 0
BBX 14 29 3 -7
BITMAP
8004
8008
8010
8020
8040
8040
8080
8100
8200
8400
8800
9400
A400
C200
8100
8080
8040
8020
8020
8010
8008
8004
0000
0000
0200
0400
0400
0400
0800
ENDCHAR
STARTCHAR uni0137
ENCODING 311
SWIDTH 487 0
DWIDTH 15 0
BBX 11 29 3 -7
BITMAP
8000
8000
8000
8000
8000
8040
8080
8100
8200
8400
8800
9000
A000
D000
8800
8400
8400
8200
8100
8080
8040
8060
0000
0000
0800
0800
0800
1000
1000
ENDCHAR
STARTCHAR uni0138
ENCODING 312
SWIDTH 561 0
DWIDTH 17 0
BBX 11 17 3 0
BITMAP
8060
8080
8100
8200
8200
8400
8800
9000
E000
A000
9000
8800
8400
8200
8100
8080
8060
ENDCHAR
STARTCHAR uni0139
ENCODING 313
SWIDTH 562 0
DWIDTH 17 0
BBX 12 29 3 0
BITMAP
1000
2000
2000
4000
8000
0000
0000
8000
8000
8000
8000
8000
8000
8000
8000
8000
8000
8000
8000
8000
8000
8000
8000
8000
8000
8000
8000
8000
FFF0
ENDCHAR
STARTCHAR uni013A
ENCODING 314
SWIDTH 215 0
DWIDTH 6 0
BBX 4 29 3 0
BITMAP
30
20
40
80
80
00
00
80
80
80
80
80
80
80
80
80
80
80
80
80
80
80
80
80
80
80
80
80
80
ENDCHAR
STARTCHAR uni013B
ENCODING 315
SWIDTH 562 0
DWIDTH 17 0
BBX 12 29 3 -7
BITMAP
8000
8000
8000
8000
8000
8000
8000
8000
8000
8000
8000
8000
8000
8000
8000
8000
8000
8000
8000
8000
8000
FFF0
0000
0200
0400
0400
0400
0400
0800
ENDCHAR
STARTCHAR uni013C
ENCODING 316
SWIDTH 215 0
DWIDTH 6 0
BBX 3 29 1 -7
BITMAP
20
20
20
20
20
20
20
20
20
20
20
20
20
20
20
20
20
20
20
20
20
20
00
20
40
40
40
40
80
ENDCHAR
STARTCHAR uni013D
ENCODING 317
SWIDTH 557 0
DWIDTH 17 0
BBX 12 24 3 0
BITMAP
0200
0200
8200
8200
8200
8400
8000
8000
8000
8000
8000
8000
8000
8000
8000
8000
8000
8000
8000
8000
8000
8000
8000
FFF0
ENDCHAR
STARTCHAR uni013E
ENCODING 318
SWIDTH 215 0
DWIDTH 6 0
BBX 3 24 3 0
BITMAP
20
20
A0
A0
A0
A0
80
80
80
80
80
80
80
80
80
80
80
80
80
80
80
80
80
80
ENDCHAR
STARTCHAR uni013F
ENCODING 319
SWIDTH 545 0
DWIDTH 16 0
BBX 12 22 3 0
BITMAP
8000
8000
8000
8000
8000
8000
8000
8000
8000
8000
8200
8000
8000
8000
8000
8000
8000
8000
8000
8000
8000
FFF0
ENDCHAR
STARTCHAR uni0140
ENCODING 320
SWIDTH 219 0
DWIDTH 7 0
BBX 3 22 3 0
BITMAP
80
80
80
80
80
80
80
80
80
80
A0
80
80
80
80
80
80
80
80
80
80
80
ENDCHAR
STARTCHAR uni0141
ENCODING 321
SWIDTH 539 0
DWIDTH 16 0
BBX 14 22 0 0
BITMAP
2000
2000
2000
2000
2000
2000
2000
2000
2000
2100
2E00
7000
A000
2000
2000
2000
2000
2000
2000
2000
2000
3FFC
ENDCHAR
STARTCHAR uni0142
ENCODING 322
SWIDTH 197 0
DWIDTH 6 0
BBX 6 22 0 0
BITMAP
20
20
20
20
20
20
20
20
20
24
18
60
A0
20
20
20
20
20
20
20
20
20
ENDCHAR
STARTCHAR uni0143
ENCODING 323
SWIDTH 772 0
DWIDTH 23 0
BBX 17 29 3 0
BITMAP
001000
002000
004000
004000
008000
000000
000000
800080
C00080
A00080
900080
900080
880080
840080
820080
820080
810080
808080
808080
804080
802080
801080
801080
800880
800480
800480
800280
800180
800080
ENDCHAR
STARTCHAR uni0144
ENCODING 324
SWIDTH 568 0
DWIDTH 17 0
BBX 11 24 3 0
BITMAP
0080
0100
0100
0200
0400
0000
0000
9F00
A080
C040
8020
8020
8020
8020
8020
8020
8020
8020
8020
8020
8020
8020
8020
8020
ENDCHAR
STARTCHAR uni0145
ENCODING 325
SWIDTH 772 0
DWIDTH 23 0
BBX 17 29 3 -7
BITMAP
800080
C00080
A00080
900080
900080
880080
840080
820080
820080
810080
808080
808080
804080
802080
801080
801080
800880
800480
800480
800280
800180
800080
000000
000000
008000
008000
010000
010000
010000
ENDCHAR
STARTCHAR uni0146
ENCODING 326
SWIDTH 568 0
DWIDTH 17 0
BBX 11 24 3 -7
BITMAP
9F00
A080
C040
8020
8020
8020
8020
8020
8020
8020
8020
8020
8020
8020
8020
8020
8020
0000
0000
0400
0800
0800
0800
0800
ENDCHAR
STARTCHAR uni0147
ENCODING 327
SWIDTH 772 0
DWIDTH 23 0
BBX 17 29 3 0
BITMAP
041800
022000
012000
00C000
008000
000000
000000
800080
C00080
A00080
900080
900080
880080
840080
820080
820080
810080
808080
808080
804080
802080
801080
801080
800880
800480
800480
800280
800180
800080
ENDCHAR
STARTCHAR uni0148
ENCODING 328
SWIDTH 568 0
DWIDTH 17 0
BBX 11 24 3 0
BITMAP
0040
2080
1100
0A00
0400
0000
0000
9F00
A080
C040
8020
8020
8020
8020
8020
8020
8020
8020
8020
8020
8020
8020
8020
8020
ENDCHAR
STARTCHAR uni014A
ENCODING 330
SWIDTH 772 0
DWIDTH 23 0
BBX 17 28 3 -6
BITMAP
800080
C00080
A00080
900080
900080
880080
840080
820080
820080
810080
808080
808080
804080
802080
801080
801080
800880
800480
800480
800280
800180
800080
000080
000080
000080
000080
000100
000700
ENDCHAR
STARTCHAR uni014B
ENCODING 331
SWIDTH 539 0
DWIDTH 16 0
BBX 11 23 3 -6
BITMAP
9F00
A080
C040
8020
8020
8020
8020
8020
8020
8020
8020
8020
8020
8020
8020
8020
8020
0020
0020
0020
0020
0020
01C0
ENDCHAR
STARTCHAR uni014C
ENCODING 332
SWIDTH 747 0
DWIDTH 22 0
BBX 18 27 2 0
BITMAP
03F800
000000
000000
000000
000000
03F000
0C0C00
100200
200100
200080
400080
400040
800040
800040
800040
800040
800040
800040
800040
800040
400040
400080
200080
200100
100200
0C0C00
03F000
ENDCHAR
STARTCHAR uni014D
ENCODING 333
SWIDTH 579 0
DWIDTH 17 0
BBX 13 21 2 0
BITMAP
1FC0
0000
0000
0000
0F80
1060
2010
4010
4008
8008
8008
8008
8008
8008
8008
8008
4008
4010
2010
1060
0F80
ENDCHAR
STARTCHAR uni014E
ENCODING 334
SWIDTH 747 0
DWIDTH 22 0
BBX 18 28 2 0
BITMAP
011000
00E000
000000
000000
000000
000000
03F000
0C0C00
100200
200100
200080
400080
400040
800040
800040
800040
800040
800040
800040
800040
800040
400040
400080
200080
200100
100200
0C0C00
03F000
ENDCHAR
STARTCHAR uni014F
ENCODING 335
SWIDTH 579 0
DWIDTH 17 0
BBX 13 22 2 0
BITMAP
0880
0700
0000
0000
0000
0F80
1060
2010
4010
4008
8008
8008
8008
8008
8008
8008
8008
4008
4010
2010
1060
0F80
ENDCHAR
STARTCHAR uni0150
ENCODING 336
SWIDTH 747 0
DWIDTH 22 0
BBX 18 29 2 0
BITMAP
004400
004800
008800
011000
012000
000000
000000
03F000
0C0C00
100200
200100
200080
400080
400040
800040
800040
800040
800040
800040
800040
800040
800040
400040
400080
200080
200100
100200
0C0C00
03F000
ENDCHAR
STARTCHAR uni0151
ENCODING 337
SWIDTH 579 0
DWIDTH 17 0
BBX 13 24 2 0
BITMAP
0110
0220
0440
0480
0900
0000
0000
0F80
1060
2010
4010
4008
8008
8008
8008
8008
8008
8008
8008
4008
4010
2010
1060
0F80
ENDCHAR
STARTCHAR uni0152
ENCODING 338
SWIDTH 921 0
DWIDTH 28 0
BBX 23 22 2 0
BITMAP
03FFFE
0C1000
101000
201000
201000
401000
401000
801000
801000
801000
800FFE
801000
801000
801000
801000
401000
401000
201000
201000
101000
0C1000
03FFFE
ENDCHAR
STARTCHAR uni0153
ENCODING 339
SWIDTH 1003 0
DWIDTH 30 0
BBX 26 17 2 0
BITMAP
0F807C00
10608300
20110080
40120080
800C0040
800C0040
80040040
8007FFC0
80040000
80040000
80040000
800C0000
800C0000
40120040
20110080
10608100
0F807E00
ENDCHAR
STARTCHAR uni0154
ENCODING 340
SWIDTH 615 0
DWIDTH 18 0
BBX 14 29 3 0
BITMAP
00C0
0080
0100
0200
0200
0000
0000
FFC0
8020
8010
8008
8008
8008
8008
8008
8008
8008
8010
8060
FF80
8080
8040
8020
8020
8010
8010
8008
8008
8004
ENDCHAR
STARTCHAR uni0155
ENCODING 341
SWIDTH 325 0
DWIDTH 10 0
BBX 7 24 3 0
BITMAP
06
04
08
08
10
00
00
9C
A0
C0
80
80
80
80
80
80
80
80
80
80
80
80
80
80
ENDCHAR
STARTCHAR uni0156
ENCODING 342
SWIDTH 615 0
DWIDTH 18 0
BBX 14 29 3 -7
BITMAP
FFC0
8020
8010
8008
8008
8008
8008
8008
8008
8010
8060
FF80
8080
8040
8040
8020
8020
8010
8010
8008
8008
8004
0000
0000
0200
0400
0400
0400
0400
ENDCHAR
STARTCHAR uni0157
ENCODING 343
SWIDTH 325 0
DWIDTH 10 0
BBX 8 24 1 -7
BITMAP
27
28
30
20
20
20
20
20
20
20
20
20
20
20
20
20
20
00
20
40
40
40
40
80
ENDCHAR
STARTCHAR uni0158
ENCODING 344
SWIDTH 615 0
DWIDTH 18 0
BBX 14 29 3 0
BITMAP
2040
1080
0900
0600
0200
0000
0000
FFC0
8020
8010
8008
8008
8008
8008
8008
8008
8008
8010
8060
FF80
8080
8040
8020
8020
8010
8010
8008
8008
8004
ENDCHAR
STARTCHAR uni0159
ENCODING 345
SWIDTH 325 0
DWIDTH 10 0
BBX 8 24 2 0
BITMAP
81
42
22
14
08
00
00
4E
50
60
40
40
40
40
40
40
40
40
40
40
40
40
40
40
ENDCHAR
STARTCHAR uni015A
ENCODING 346
SWIDTH 612 0
DWIDTH 18 0
BBX 14 29 2 0
BITMAP
0060
0040
0080
0080
0100
0000
0000
0FC0
1030
2008
4008
4004
4004
4000
4000
2000
1800
0700
00E0
0010
0008
0004
0004
0004
8004
4004
4008
3030
0FC0
ENDCHAR
STARTCHAR uni015B
ENCODING 347
SWIDTH 492 0
DWIDTH 15 0
BBX 11 24 2 0
BITMAP
0080
0100
0200
0200
0400
0000
0000
1F00
2080
4040
4020
8000
4000
4000
3000
0F00
0080
0040
0020
0020
8020
8040
60C0
1F00
ENDCHAR
STARTCHAR uni015C
ENCODING 348
SWIDTH 612 0
DWIDTH 18 0
BBX 14 29 2 0
BITMAP
0100
0300
0480
0840
1020
0000
0000
0FC0
1030
2008
4008
4004
4004
4000
4000
2000
1800
0700
00E0
0010
0008
0004
0004
0004
8004
4004
4008
3030
0FC0
ENDCHAR
STARTCHAR uni015D
ENCODING 349
SWIDTH 492 0
DWIDTH 15 0
BBX 11 23 2 0
BITMAP
0400
0A00
1100
20C0
0000
0000
1F00
2080
4040
4020
8000
4000
4000
3000
0F00
0080
0040
0020
0020
8020
8040
60C0
1F00
ENDCHAR
STARTCHAR uni015E
ENCODING 350
SWIDTH 612 0
DWIDTH 18 0
BBX 14 27 2 -5
BITMAP
0FC0
1030
2008
4008
4004
4004
4000
4000
2000
1800
0700
00E0
0010
0008
0004
0004
0004
8004
4004
4008
3030
0FC0
0100
0080
0040
0040
0180
ENDCHAR
STARTCHAR uni015F
ENCODING 351
SWIDTH 492 0
DWIDTH 15 0
BBX 11 22 2 -5
BITMAP
1F00
2080
4040
4020
8000
4000
4000
3000
0F00
0080
0040
0020
0020
8020
8040
60C0
1F00
0600
0100
0100
0100
0600
ENDCHAR
STARTCHAR uni0160
ENCODING 352
SWIDTH 612 0
DWIDTH 18 0
BBX 14 29 2 0
BITMAP
1020
0840
0480
0300
0100
0000
0000
0FC0
1030
2008
4008
4004
4004
4000
4000
2000
1800
0700
00E0
0010
0008
0004
0004
0004
8004
4004
4008
3030
0FC0
ENDCHAR
STARTCHAR uni0161
ENCODING 353
SWIDTH 492 0
DWIDTH 15 0
BBX 11 24 2 0
BITMAP
0040
2080
1100
0A00
0400
0000
0000
1F00
2080
4040
4020
8000
4000
4000
3000
0F00
0080
0040
0020
0020
8020
8040
60C0
1F00
ENDCHAR
STARTCHAR uni0162
ENCODING 354
SWIDTH 613 0
DWIDTH 18 0
BBX 15 28 2 -6
BITMAP
FFFE
0100
0100
0100
0100
0100
0100
0100
0100
0100
0100
0100
0100
0100
0100
0100
0100
0100
0100
0100
0100
0100
0100
0080
0040
0040
0040
0100
ENDCHAR
STARTCHAR uni0163
ENCODING 355
SWIDTH 348 0
DWIDTH 10 0
BBX 7 26 2 -5
BITMAP
20
20
20
20
FC
20
20
20
20
20
20
20
20
20
20
20
20
20
20
10
0E
0C
02
02
02
0C
ENDCHAR
STARTCHAR uni0164
ENCODING 356
SWIDTH 613 0
DWIDTH 18 0
BBX 15 29 2 0
BITMAP
1020
0840
0480
0300
0100
0000
0000
FFFE
0100
0100
0100
0100
0100
0100
0100
0100
0100
0100
0100
0100
0100
0100
0100
0100
0100
0100
0100
0100
0100
ENDCHAR
STARTCHAR uni0165
ENCODING 357
SWIDTH 348 0
DWIDTH 10 0
BBX 7 25 2 0
BITMAP
04
04
04
08
28
28
20
20
FC
20
20
20
20
20
20
20
20
20
20
20
20
20
20
10
0E
ENDCHAR
STARTCHAR uni0166
ENCODING 358
SWIDTH 613 0
DWIDTH 18 0
BBX 15 22 2 0
BITMAP
FFFE
0100
0100
0100
0100
0100
0100
0100
0100
0100
1FE0
0100
0100
0100
0100
0100
0100
0100
0100
0100
0100
0100
ENDCHAR
STARTCHAR uni0167
ENCODING 359
SWIDTH 348 0
DWIDTH 10 0
BBX 8 21 1 0
BITMAP
10
10
10
10
7E
10
10
10
10
FE
10
10
10
10
10
10
10
10
10
08
07
ENDCHAR
STARTCHAR uni0168
ENCODING 360
SWIDTH 750 0
DWIDTH 23 0
BBX 16 28 3 0
BITMAP
0708
0888
1070
0000
0000
0000
8001
8001
8001
8001
8001
8001
8001
8001
8001
8001
8001
8001
8001
8001
8001
8001
4001
4001
2002
2004
1818
07E0
ENDCHAR
STARTCHAR uni0169
ENCODING 361
SWIDTH 568 0
DWIDTH 17 0
BBX 11 22 3 0
BITMAP
7C40
4380
0000
0000
0000
8020
8020
8020
8020
8020
8020
8020
8020
8020
8020
8020
8020
8020
8020
4060
20A0
1F20
ENDCHAR
STARTCHAR uni016A
ENCODING 362
SWIDTH 750 0
DWIDTH 23 0
BBX 16 27 3 0
BITMAP
07F0
0000
0000
0000
0000
8001
8001
8001
8001
8001
8001
8001
8001
8001
8001
8001
8001
8001
8001
8001
8001
4001
4001
2002
2004
1818
07E0
ENDCHAR
STARTCHAR uni016B
ENCODING 363
SWIDTH 568 0
DWIDTH 17 0
BBX 11 21 3 0
BITMAP
3F80
0000
0000
0000
8020
8020
8020
8020
8020
8020
8020
8020
8020
8020
8020
8020
8020
8020
4060
20A0
1F20
ENDCHAR
STARTCHAR uni016C
ENCODING 364
SWIDTH 750 0
DWIDTH 23 0
BBX 16 28 3 0
BITMAP
0220
01C0
0000
0000
0000
0000
8001
8001
8001
8001
8001
8001
8001
8001
8001
8001
8001
8001
8001
8001
8001
8001
4001
4001
2002
2004
1818
07E0
ENDCHAR
STARTCHAR uni016D
ENCODING 365
SWIDTH 568 0
DWIDTH 17 0
BBX 11 22 3 0
BITMAP
1100
0E00
0000
0000
0000
8020
8020
8020
8020
8020
8020
8020
8020
8020
8020
8020
8020
8020
8020
4060
20A0
1F20
ENDCHAR
STARTCHAR uni016E
ENCODING 366
SWIDTH 750 0
DWIDTH 23 0
BBX 16 29 3 0
BITMAP
01C0
0220
0220
0220
01C0
0000
0000
8001
8001
8001
8001
8001
8001
8001
8001
8001
8001
8001
8001
8001
8001
8001
8001
4001
4001
2002
2004
1818
07E0
ENDCHAR
STARTCHAR uni016F
ENCODING 367
SWIDTH 568 0
DWIDTH 17 0
BBX 11 24 3 0
BITMAP
0E00
1100
1100
1100
0E00
0000
0000
8020
8020
8020
8020
8020
8020
8020
8020
8020
8020
8020
8020
8020
8020
4060
20A0
1F20
ENDCHAR
STARTCHAR uni0170
ENCODING 368
SWIDTH 750 0
DWIDTH 23 0
BBX 16 29 3 0
BITMAP
0088
0090
0110
0220
0240
0000
0000
8001
8001
8001
8001
8001
8001
8001
8001
8001
8001
8001
8001
8001
8001
8001
8001
4001
4001
2002
2004
1818
07E0
ENDCHAR
STARTCHAR uni0171
ENCODING 369
SWIDTH 568 0
DWIDTH 17 0
BBX 11 24 3 0
BITMAP
0260
0440
0880
0900
1200
0000
0000
8020
8020
8020
8020
8020
8020
8020
8020
8020
8020
8020
8020
8020
8020
4060
20A0
1F20
ENDCHAR
STARTCHAR uni0172
ENCODING 370
SWIDTH 750 0
DWIDTH 23 0
BBX 16 28 3 -6
BITMAP
8001
8001
8001
8001
8001
8001
8001
8001
8001
8001
8001
8001
8001
8001
8001
8001
4001
4001
2002
2004
1818
07E0
0100
0100
0200
0200
0200
01E0
ENDCHAR
STARTCHAR uni0173
ENCODING 371
SWIDTH 568 0
DWIDTH 17 0
BBX 13 23 3 -6
BITMAP
8020
8020
8020
8020
8020
8020
8020
8020
8020
8020
8020
8020
8020
8020
4060
20A0
1F20
0020
0040
0080
0080
0080
0078
ENDCHAR
STARTCHAR uni0174
ENCODING 372
SWIDTH 892 0
DWIDTH 27 0
BBX 25 28 1 0
BITMAP
00080000
00140000
00220000
00C10000
00000000
00000000
80080080
80180080
80140100
40140100
40140100
40240100
40220200
20220200
20220200
20410400
10410400
10410400
10810400
10808800
08808800
08808800
09008800
09005000
05005000
05005000
06006000
02002000
ENDCHAR
STARTCHAR uni0175
ENCODING 373
SWIDTH 789 0
DWIDTH 24 0
BBX 20 23 2 0
BITMAP
004000
006000
009000
010800
020400
000000
804010
806010
806010
80A020
409020
409020
411040
211040
210840
210840
220880
120480
120480
140500
0C0500
0C0300
080200
ENDCHAR
STARTCHAR uni0176
ENCODING 374
SWIDTH 613 0
DWIDTH 18 0
BBX 16 28 1 0
BITMAP
0180
0240
0420
0C10
0000
0000
8001
4002
2002
2004
1008
0808
0810
0420
0220
0240
0180
0080
0080
0080
0080
0080
0080
0080
0080
0080
0080
0080
ENDCHAR
STARTCHAR uni0177
ENCODING 375
SWIDTH 522 0
DWIDTH 16 0
BBX 12 29 2 -6
BITMAP
0600
0900
1080
20C0
0000
0000
8010
8010
8020
4020
4020
4040
2040
2040
2080
1080
1080
1100
0900
0900
0A00
0600
0400
0400
0400
0800
0800
1000
E000
ENDCHAR
STARTCHAR uni0178
ENCODING 376
SWIDTH 613 0
DWIDTH 18 0
BBX 16 27 1 0
BITMAP
0620
0000
0000
0000
0000
8001
4002
2002
2004
1008
0808
0810
0420
0220
0240
0180
0080
0080
0080
0080
0080
0080
0080
0080
0080
0080
0080
ENDCHAR
STARTCHAR uni0179
ENCODING 377
SWIDTH 605 0
DWIDTH 18 0
BBX 14 29 2 0
BITMAP
0060
0040
0080
0100
0100
0000
0000
FFFC
0004
0008
0010
0010
0020
0040
0040
0080
0080
0100
0200
0200
0400
0800
0800
1000
1000
2000
4000
4000
FFFC
ENDCHAR
STARTCHAR uni017A
ENCODING 378
SWIDTH 508 0
DWIDTH 15 0
BBX 11 24 2 0
BITMAP
0080
0100
0100
0200
0400
0000
0000
7FE0
0020
0040
0080
0080
0100
0200
0200
0400
0800
0800
1000
1000
2000
4000
4000
FFE0
ENDCHAR
STARTCHAR uni017B
ENCODING 379
SWIDTH 605 0
DWIDTH 18 0
BBX 14 27 2 0
BITMAP
0300
0000
0000
0000
0000
FFFC
0004
0008
0010
0010
0020
0040
0040
0080
0080
0100
0200
0200
0400
0800
0800
1000
1000
2000
4000
4000
FFFC
ENDCHAR
STARTCHAR uni017C
ENCODING 380
SWIDTH 508 0
DWIDTH 15 0
BBX 11 21 2 0
BITMAP
0400
0000
0000
0000
7FE0
0020
0040
0080
0080
0100
0200
0200
0400
0800
0800
1000
1000
2000
4000
4000
FFE0
ENDCHAR
STARTCHAR uni017D
ENCODING 381
SWIDTH 605 0
DWIDTH 18 0
BBX 14 29 2 0
BITMAP
1020
0840
0480
0300
0100
0000
0000
FFFC
0004
0008
0010
0010
0020
0040
0040
0080
0080
0100
0200
0200
0400
0800
0800
1000
1000
2000
4000
4000
FFFC
ENDCHAR
STARTCHAR uni017E
ENCODING 382
SWIDTH 508 0
DWIDTH 15 0
BBX 11 24 2 0
BITMAP
0040
2080
1100
0A00
0400
0000
0000
7FE0
0020
0040
0080
0080
0100
0200
0200
0400
0800
0800
1000
1000
2000
4000
4000
FFE0
ENDCHAR
STARTCHAR uni017F
ENCODING 383
SWIDTH 218 0
DWIDTH 7 0
BBX 5 23 1 0
BITMAP
38
40
80
80
80
80
80
80
80
80
80
80
80
80
80
80
80
80
80
80
80
80
80
ENDCHAR
STARTCHAR uni0180
ENCODING 384
SWIDTH 598 0
DWIDTH 18 0
BBX 16 22 0 0
BITMAP
1000
1000
FF00
1000
1000
11F0
1208
1404
1802
1802
1001
1001
1001
1001
1001
1001
1001
1802
1802
1404
1208
11F0
ENDCHAR
STARTCHAR uni0181
ENCODING 385
SWIDTH 738 0
DWIDTH 22 0
BBX 18 22 2 0
BITMAP
7FFC00
880300
880100
880080
080080
080080
080080
080080
080100
080200
0FFC00
080300
080080
080080
080040
080040
080040
080040
080040
080080
080100
0FFE00
ENDCHAR
STARTCHAR uni0182
ENCODING 386
SWIDTH 653 0
DWIDTH 20 0
BBX 15 22 3 0
BITMAP
FFF0
8000
8000
8000
8000
8000
8000
8000
8000
8000
FFE0
8018
8004
8004
8002
8002
8002
8002
8004
8004
8008
FFF0
ENDCHAR
STARTCHAR uni0183
ENCODING 387
SWIDTH 598 0
DWIDTH 18 0
BBX 13 22 3 0
BITMAP
FFE0
8000
8000
8000
8000
8F80
9040
A020
C010
C010
8008
8008
8008
8008
8008
8008
8008
C010
C010
A020
9040
8F80
ENDCHAR
STARTCHAR uni0184
ENCODING 388
SWIDTH 629 0
DWIDTH 19 0
BBX 19 22 0 0
BITMAP
FC0000
040000
040000
040000
040000
040000
040000
040000
040000
040000
07FF00
0400C0
040020
040020
040020
040020
040020
040020
040020
040020
0400C0
07FF00
ENDCHAR
STARTCHAR uni0185
ENCODING 389
SWIDTH 541 0
DWIDTH 16 0
BBX 14 24 1 0
BITMAP
4000
4000
6000
E000
E000
E000
6000
63E0
2C10
2808
3008
2004
2004
2004
2004
2004
2004
2004
2004
2004
3004
3008
2C10
23C0
ENDCHAR
STARTCHAR uni0186
ENCODING 390
SWIDTH 723 0
DWIDTH 22 0
BBX 18 22 2 0
BITMAP
07F000
080800
300600
200200
400100
800080
800080
000080
000080
000040
000040
000040
000040
000080
000080
800080
800080
400100
200200
300600
080800
03F000
ENDCHAR
STARTCHAR uni0187
ENCODING 391
SWIDTH 704 0
DWIDTH 21 0
BBX 20 22 2 0
BITMAP
03F030
0C0C40
100240
200140
2000C0
4000C0
400040
800000
800000
800000
800000
800000
800000
800000
800000
400040
400080
200080
200100
100200
0C0C00
03F000
ENDCHAR
STARTCHAR uni0188
ENCODING 392
SWIDTH 578 0
DWIDTH 17 0
BBX 16 18 2 0
BITMAP
0007
0F88
1068
2018
4018
4008
8000
8000
8000
8000
8000
8000
8000
4008
4010
2010
1060
0F80
ENDCHAR
STARTCHAR uni0189
ENCODING 393
SWIDTH 714 0
DWIDTH 21 0
BBX 19 22 0 0
BITMAP
1FF800
100600
100100
100080
100040
100040
100020
100020
100020
100020
FF0020
100020
100020
100020
100020
100020
100040
100040
100080
100100
100600
1FF800
ENDCHAR
STARTCHAR uni018A
ENCODING 394
SWIDTH 821 0
DWIDTH 25 0
BBX 20 22 2 0
BITMAP
7FFE00
880100
8800C0
880040
080020
080010
080010
080010
080010
080010
080010
080010
080010
080010
080010
080010
080010
080020
080040
080080
080300
07FC00
ENDCHAR
STARTCHAR uni018B
ENCODING 395
SWIDTH 590 0
DWIDTH 18 0
BBX 14 22 2 0
BITMAP
3FFC
0004
0004
0004
0004
0004
0004
0004
0004
0004
1FFC
2004
4004
8004
8004
8004
8004
8004
8004
4004
2004
1FFC
ENDCHAR
STARTCHAR uni018C
ENCODING 396
SWIDTH 598 0
DWIDTH 18 0
BBX 13 22 2 0
BITMAP
3FF8
0008
0008
0008
0008
0F88
3048
2028
4018
8018
8018
8008
8008
8008
8008
8008
8018
8018
4018
2028
3048
0F08
ENDCHAR
STARTCHAR uni018D
ENCODING 397
SWIDTH 465 0
DWIDTH 14 0
BBX 12 23 1 -6
BITMAP
1F80
2040
4020
8020
8010
8010
8010
8010
8010
8010
8010
8010
4020
4020
20C0
1F00
0800
0400
0200
0100
0080
0040
7FC0
ENDCHAR
STARTCHAR uni018E
ENCODING 398
SWIDTH 583 0
DWIDTH 18 0
BBX 12 22 2 0
BITMAP
FFF0
0010
0010
0010
0010
0010
0010
0010
0010
0010
7FF0
0010
0010
0010
0010
0010
0010
0010
0010
0010
0010
FFF0
ENDCHAR
STARTCHAR uni018F
ENCODING 399
SWIDTH 678 0
DWIDTH 20 0
BBX 16 22 2 0
BITMAP
0FE0
3018
0004
0002
0002
0001
0001
0001
0001
0001
0001
FFFF
8001
8001
8001
8001
4001
4002
2002
2004
1818
07E0
ENDCHAR
STARTCHAR uni0190
ENCODING 400
SWIDTH 579 0
DWIDTH 17 0
BBX 14 22 2 0
BITMAP
1FC0
2020
4010
8008
8008
8008
8000
4000
4000
3000
0F80
3000
4000
8000
8000
8000
8004
8004
8008
4010
2020
1FC0
ENDCHAR
STARTCHAR uni0191
ENCODING 401
SWIDTH 562 0
DWIDTH 17 0
BBX 14 28 0 -6
BITMAP
1FFC
1000
1000
1000
1000
1000
1000
1000
1000
1000
1FF8
1000
1000
1000
1000
1000
1000
1000
1000
1000
1000
1000
1000
1000
1000
2000
2000
C000
ENDCHAR
STARTCHAR uni0192
ENCODING 402
SWIDTH 296 0
DWIDTH 9 0
BBX 9 30 0 -6
BITMAP
0380
0400
0800
0800
0800
0800
0800
7F00
0800
0800
0800
0800
0800
0800
0800
0800
0800
0800
0800
0800
0800
0800
0800
0800
0800
0800
0800
0800
1000
E000
ENDCHAR
STARTCHAR uni0193
ENCODING 403
SWIDTH 711 0
DWIDTH 21 0
BBX 21 22 2 0
BITMAP
03F838
0C0640
100140
2000C0
2000C0
400040
400000
800000
800000
800000
800000
807FC0
800040
800040
800040
400080
400080
200080
200100
100200
0C0C00
03F000
ENDCHAR
STARTCHAR uni0194
ENCODING 404
SWIDTH 516 0
DWIDTH 15 0
BBX 17 28 -1 -6
BITMAP
800080
400080
400100
200100
200200
200200
100200
100400
080400
080800
080800
040800
041000
021000
022000
012000
012000
014000
00C000
008000
008000
00C000
014000
012000
022000
022000
022000
01C000
ENDCHAR
STARTCHAR uni0195
ENCODING 405
SWIDTH 917 0
DWIDTH 28 0
BBX 22 22 3 0
BITMAP
800000
800000
800000
800000
800000
9F0004
A0C004
C04004
802004
802004
802004
802004
802008
802008
802008
802008
802008
802010
801010
801020
800840
800780
ENDCHAR
STARTCHAR uni0196
ENCODING 406
SWIDTH 220 0
DWIDTH 7 0
BBX 3 23 3 -1
BITMAP
80
80
80
80
80
80
80
80
80
80
80
80
80
80
80
80
80
80
80
80
80
C0
20
ENDCHAR
STARTCHAR uni0197
ENCODING 407
SWIDTH 250 0
DWIDTH 8 0
BBX 8 22 0 0
BITMAP
10
10
10
10
10
10
10
10
10
10
FF
10
10
10
10
10
10
10
10
10
10
10
ENDCHAR
STARTCHAR uni0198
ENCODING 408
SWIDTH 654 0
DWIDTH 20 0
BBX 16 22 3 0
BITMAP
8007
8008
8010
8020
8040
8040
8080
8100
8200
8400
8800
9400
A200
C100
8100
8080
8040
8020
8010
8008
8004
8002
ENDCHAR
STARTCHAR uni0199
ENCODING 409
SWIDTH 488 0
DWIDTH 15 0
BBX 11 22 3 0
BITMAP
7000
8000
8000
8000
8000
8040
8080
8100
8200
8400
8800
9000
A000
D000
8800
8400
8400
8200
8100
8080
8040
8060
ENDCHAR
STARTCHAR uni019A
ENCODING 410
SWIDTH 215 0
DWIDTH 6 0
BBX 8 22 -1 0
BITMAP
08
08
08
08
08
08
08
08
08
08
FF
08
08
08
08
08
08
08
08
08
08
08
ENDCHAR
STARTCHAR uni019B
ENCODING 411
SWIDTH 600 0
DWIDTH 18 0
BBX 14 22 2 0
BITMAP
E000
1200
1C00
6800
8400
0400
0400
0600
0A00
0900
0900
1100
1080
1080
2080
2040
4040
4020
4020
8020
8010
800C
ENDCHAR
STARTCHAR uni019C
ENCODING 412
SWIDTH 832 0
DWIDTH 25 0
BBX 19 22 3 0
BITMAP
804020
804020
804020
804020
804020
804020
804020
804020
804020
804020
804020
804020
804020
804020
804020
804020
804020
804020
804020
80A020
411060
3E0FA0
ENDCHAR
STARTCHAR uni019D
ENCODING 413
SWIDTH 750 0
DWIDTH 23 0
BBX 19 28 0 -6
BITMAP
100020
180020
180020
140020
120020
120020
110020
108020
104020
104020
102020
101020
101020
100820
100420
100220
100220
100120
1000A0
100060
100060
100020
100000
100000
100000
200000
200000
C00000
ENDCHAR
STARTCHAR uni019E
ENCODING 414
SWIDTH 568 0
DWIDTH 17 0
BBX 11 23 3 -6
BITMAP
9F00
A080
C040
8020
8020
8020
8020
8020
8020
8020
8020
8020
8020
8020
8020
8020
8020
0020
0020
0020
0020
0020
0020
ENDCHAR
STARTCHAR uni019F
ENCODING 415
SWIDTH 747 0
DWIDTH 22 0
BBX 18 22 2 0
BITMAP
03F000
0C0C00
100200
200100
200080
400080
400040
800040
800040
800040
FFFFC0
800040
800040
800040
800040
400040
400080
200080
200100
100200
0C0C00
03F000
ENDCHAR
STARTCHAR uni01A0
ENCODING 416
SWIDTH 735 0
DWIDTH 22 0
BBX 19 25 2 0
BITMAP
000020
000020
000020
03F040
0C0C40
100280
200100
200080
400080
400040
800040
800040
800040
800040
800040
800040
800040
800040
400040
400080
200080
200100
100200
0C0C00
03F000
ENDCHAR
STARTCHAR uni01A1
ENCODING 417
SWIDTH 563 0
DWIDTH 17 0
BBX 14 19 2 0
BITMAP
0004
0004
0F84
1064
2018
4010
4008
8008
8008
8004
8004
8004
8008
8008
4008
4010
2010
1060
0F80
ENDCHAR
STARTCHAR uni01A2
ENCODING 418
SWIDTH 772 0
DWIDTH 23 0
BBX 18 28 2 -6
BITMAP
03F0C0
0C09C0
100740
200240
400240
400240
400240
800240
800240
800240
800240
800240
800240
800240
800240
400240
400240
400240
200240
100440
0C0840
03E040
000040
000040
000040
000040
000040
000040
ENDCHAR
STARTCHAR uni01A3
ENCODING 419
SWIDTH 518 0
DWIDTH 16 0
BBX 14 23 1 -6
BITMAP
0F8C
3054
2064
4044
8044
8044
8044
8044
8044
8044
8044
8044
8044
4044
4044
3044
0F84
0004
0004
0004
0004
0004
0004
ENDCHAR
STARTCHAR uni01A4
ENCODING 420
SWIDTH 680 0
DWIDTH 20 0
BBX 16 22 2 0
BITMAP
7FF0
900C
9002
9002
1001
1001
1001
1001
1001
1002
1002
100C
1FF0
1000
1000
1000
1000
1000
1000
1000
1000
1000
ENDCHAR
STARTCHAR uni01A5
ENCODING 421
SWIDTH 586 0
DWIDTH 18 0
BBX 13 27 3 -6
BITMAP
7000
8000
8000
8000
8F80
B040
A020
C010
8010
8010
8008
8008
8008
8008
8010
8010
8010
C010
A020
B040
8F00
8000
8000
8000
8000
8000
8000
ENDCHAR
STARTCHAR uni01A6
ENCODING 422
SWIDTH 660 0
DWIDTH 20 0
BBX 16 30 2 -6
BITMAP
8000
8000
FF80
8040
8020
8010
8010
8010
8010
8010
8010
8010
8020
8040
FF80
8100
8080
8080
8040
8020
8020
8010
8010
8008
0008
0004
0004
0002
0001
0001
ENDCHAR
STARTCHAR uni01A7
ENCODING 423
SWIDTH 612 0
DWIDTH 18 0
BBX 14 22 2 0
BITMAP
0FC0
1030
2008
4008
4004
8004
0004
0008
0010
0020
03C0
0C00
3000
4000
8000
8000
8000
8004
4004
4008
3010
0FE0
ENDCHAR
STARTCHAR uni01A8
ENCODING 424
SWIDTH 492 0
DWIDTH 15 0
BBX 11 17 2 0
BITMAP
1F00
6080
4040
8040
0040
0040
0040
0180
1E00
6000
8000
8000
8000
8020
8040
60C0
1F00
ENDCHAR
STARTCHAR uni01A9
ENCODING 425
SWIDTH 588 0
DWIDTH 18 0
BBX 16 22 1 0
BITMAP
FFFE
4000
2000
1000
1000
0800
0400
0200
0100
0080
0080
0040
0040
0080
0100
0200
0400
0800
1000
2000
4000
FFFF
ENDCHAR
STARTCHAR uni01AA
ENCODING 426
SWIDTH 444 0
DWIDTH 13 0
BBX 11 30 1 -6
BITMAP
1C00
6200
4100
8100
8100
8100
4100
6300
1D00
0100
0100
0100
0100
0100
0100
0100
0100
0100
0100
0100
0100
0100
0100
0100
0100
0100
0100
0100
0080
00E0
ENDCHAR
STARTCHAR uni01AB
ENCODING 427
SWIDTH 348 0
DWIDTH 10 0
BBX 7 27 2 -6
BITMAP
20
20
20
20
FC
20
20
20
20
20
20
20
20
20
20
20
20
20
20
10
0E
02
02
02
02
02
1C
ENDCHAR
STARTCHAR uni01AC
ENCODING 428
SWIDTH 613 0
DWIDTH 18 0
BBX 15 22 2 0
BITMAP
7FFE
8100
8100
8100
0100
0100
0100
0100
0100
0100
0100
0100
0100
0100
0100
0100
0100
0100
0100
0100
0100
0100
ENDCHAR
STARTCHAR uni01AD
ENCODING 429
SWIDTH 210 0
DWIDTH 6 0
BBX 7 24 0 0
BITMAP
0C
10
20
20
20
20
20
FE
20
20
20
20
20
20
20
20
20
20
20
20
20
10
10
0E
ENDCHAR
STARTCHAR uni01AE
ENCODING 430
SWIDTH 613 0
DWIDTH 18 0
BBX 15 28 2 -6
BITMAP
FFFE
0100
0100
0100
0100
0100
0100
0100
0100
0100
0100
0100
0100
0100
0100
0100
0100
0100
0100
0100
0100
0100
0100
0100
0100
0100
0100
00C0
ENDCHAR
STARTCHAR uni01AF
ENCODING 431
SWIDTH 815 0
DWIDTH 24 0
BBX 20 25 3 0
BITMAP
000010
000010
000010
800120
800120
8001C0
800100
800100
800100
800100
800100
800100
800100
800100
800100
800100
800100
800100
800100
400100
400100
200200
200400
181800
07E000
ENDCHAR
STARTCHAR uni01B0
ENCODING 432
SWIDTH 535 0
DWIDTH 16 0
BBX 14 18 3 0
BITMAP
0004
8024
8024
8028
8020
8020
8020
8020
8020
8020
8020
8020
8020
8020
8020
4060
60A0
1F20
ENDCHAR
STARTCHAR uni01B1
ENCODING 433
SWIDTH 744 0
DWIDTH 22 0
BBX 18 22 2 0
BITMAP
FE1FC0
040800
080600
100100
200100
400080
400080
400040
800040
800040
800040
800040
800040
800040
800040
400040
400080
200080
200100
100200
0C0C00
03F000
ENDCHAR
STARTCHAR uni01B2
ENCODING 434
SWIDTH 593 0
DWIDTH 18 0
BBX 14 22 2 0
BITMAP
8038
8004
8004
8004
8004
8004
8004
8004
8004
8004
8004
8004
8004
8004
8004
8004
8004
8004
8008
4008
3030
0FC0
ENDCHAR
STARTCHAR uni01B3
ENCODING 435
SWIDTH 622 0
DWIDTH 19 0
BBX 19 22 0 0
BITMAP
C000E0
400100
200200
100400
100400
080800
041000
041000
022000
014000
014000
008000
008000
008000
008000
008000
008000
008000
008000
008000
008000
008000
ENDCHAR
STARTCHAR uni01B4
ENCODING 436
SWIDTH 545 0
DWIDTH 16 0
BBX 16 27 2 -6
BITMAP
0007
0008
0008
0010
8010
8010
8020
4020
4020
4040
2040
2040
2080
1080
1080
1100
0900
0900
0A00
0600
0400
0400
0400
0800
0800
1000
E000
ENDCHAR
STARTCHAR uni01B5
ENCODING 437
SWIDTH 605 0
DWIDTH 18 0
BBX 14 22 2 0
BITMAP
FFFC
0004
0008
0010
0010
0020
0040
0040
0080
0080
1FE0
0200
0200
0400
0800
0800
1000
1000
2000
4000
4000
FFFC
ENDCHAR
STARTCHAR uni01B6
ENCODING 438
SWIDTH 508 0
DWIDTH 15 0
BBX 11 17 2 0
BITMAP
7FE0
0020
0040
0080
0080
0100
0200
0200
3FC0
0800
0800
1000
1000
2000
4000
4000
FFE0
ENDCHAR
STARTCHAR uni01B7
ENCODING 439
SWIDTH 693 0
DWIDTH 21 0
BBX 17 28 2 -6
BITMAP
7FFF00
000200
000400
000800
001000
002000
004000
008000
010000
020000
030000
00E000
001800
000400
000200
000100
000100
000100
000080
000080
000080
800100
800100
800100
400200
200400
181800
07E000
ENDCHAR
STARTCHAR uni01B8
ENCODING 440
SWIDTH 693 0
DWIDTH 21 0
BBX 17 28 2 -6
BITMAP
7FFF00
200000
100000
080000
040000
020000
010000
008000
004000
002000
01E000
060000
180000
200000
200000
400000
400000
800000
800000
800000
800080
800080
400080
400100
200100
100200
080C00
07F000
ENDCHAR
STARTCHAR uni01B9
ENCODING 441
SWIDTH 599 0
DWIDTH 18 0
BBX 13 23 3 -6
BITMAP
FFF0
4000
2000
2000
1000
0800
0800
0400
0200
0100
0F00
3000
4000
8000
8000
8000
8000
8008
8008
8010
4010
2060
1F80
ENDCHAR
STARTCHAR uni01BA
ENCODING 442
SWIDTH 490 0
DWIDTH 15 0
BBX 13 23 1 -6
BITMAP
FFF8
0010
0060
0080
0100
0200
0C00
0F00
00C0
0040
0020
0040
00C0
0300
1C00
2000
4000
8000
8020
8020
8040
4080
3F00
ENDCHAR
STARTCHAR uni01BB
ENCODING 443
SWIDTH 620 0
DWIDTH 19 0
BBX 13 22 3 0
BITMAP
1F80
2040
4020
8020
8010
0010
0010
0010
0020
0020
07F8
0080
0100
0200
0200
0400
0800
1000
2000
4000
4000
FFF8
ENDCHAR
STARTCHAR uni01BC
ENCODING 444
SWIDTH 557 0
DWIDTH 17 0
BBX 13 22 1 0
BITMAP
FFF8
2000
2000
2000
2000
2000
2000
2F80
3060
2010
0010
0008
0008
0008
0008
0008
4008
4008
4010
2010
1060
0F80
ENDCHAR
STARTCHAR uni01BD
ENCODING 445
SWIDTH 406 0
DWIDTH 12 0
BBX 11 17 1 0
BITMAP
FFC0
2000
2000
2000
2000
4000
4F00
7080
4040
0040
0020
0020
8020
8040
4040
6080
1F00
ENDCHAR
STARTCHAR uni01BE
ENCODING 446
SWIDTH 503 0
DWIDTH 15 0
BBX 11 21 2 0
BITMAP
0400
0400
0400
0400
0400
7F80
0400
0400
0400
0400
0400
0200
0100
00C0
0020
0020
8020
8020
4020
6040
1F80
ENDCHAR
STARTCHAR uni01BF
ENCODING 447
SWIDTH 557 0
DWIDTH 17 0
BBX 12 23 2 -6
BITMAP
9F80
A040
C020
8020
8010
8010
8010
8010
8010
8010
8010
8010
8020
8020
8040
8180
8200
9C00
E000
8000
8000
8000
8000
ENDCHAR
STARTCHAR uni01C0
ENCODING 448
SWIDTH 186 0
DWIDTH 6 0
BBX 1 22 2 0
BITMAP
80
80
80
80
80
80
80
80
80
80
80
80
80
80
80
80
80
80
80
80
80
80
ENDCHAR
STARTCHAR uni01C1
ENCODING 449
SWIDTH 322 0
DWIDTH 10 0
BBX 5 22 1 0
BITMAP
88
88
88
88
88
88
88
88
88
88
88
88
88
88
88
88
88
88
88
88
88
88
ENDCHAR
STARTCHAR uni01C2
ENCODING 450
SWIDTH 225 0
DWIDTH 7 0
BBX 8 22 -1 0
BITMAP
08
08
08
08
08
08
FF
08
08
08
08
08
08
08
FF
08
08
08
08
08
08
08
ENDCHAR
STARTCHAR uni01C3
ENCODING 451
SWIDTH 261 0
DWIDTH 8 0
BBX 2 22 3 0
BITMAP
80
80
80
80
80
80
80
80
80
80
80
80
80
80
80
00
00
00
00
00
80
C0
ENDCHAR
STARTCHAR uni01C5
ENCODING 453
SWIDTH 1223 0
DWIDTH 37 0
BBX 32 24 3 0
BITMAP
00000204
00000108
FFC00090
80300050
80080020
80040000
80020000
800207FE
80010002
80010004
80010004
80010008
80010010
80010010
80010020
80010020
80010040
80010080
80020080
80020100
80040200
80080200
80300400
FFC007FF
ENDCHAR
STARTCHAR uni01C6
ENCODING 454
SWIDTH 1031 0
DWIDTH 31 0
BBX 27 24 2 0
BITMAP
00004080
00002080
00081100
00080A00
00080400
00080000
00080000
0F887FE0
30480040
20280040
40280080
80180100
80180100
80080200
80080400
80080400
80080800
80080800
80181000
80182000
40182000
20284000
30488000
0F88FFE0
ENDCHAR
STARTCHAR uni01C7
ENCODING 455
SWIDTH 1082 0
DWIDTH 32 0
BBX 26 22 3 0
BITMAP
80000040
80000040
80000040
80000040
80000040
80000040
80000040
80000040
80000040
80000040
80000040
80000040
80000040
80000040
80000040
80000040
80000040
80000040
80010040
80008080
80004180
FFF03E00
ENDCHAR
STARTCHAR uni01C8
ENCODING 456
SWIDTH 784 0
DWIDTH 24 0
BBX 18 28 3 -6
BITMAP
800000
800040
800000
800000
800000
800040
800040
800040
800040
800040
800040
800040
800040
800040
800040
800040
800040
800040
800040
800040
800040
FFF040
000040
000040
000040
000080
000080
000700
ENDCHAR
STARTCHAR uni01C9
ENCODING 457
SWIDTH 409 0
DWIDTH 12 0
BBX 8 28 3 -6
BITMAP
80
83
80
80
80
81
81
81
81
81
81
81
81
81
81
81
81
81
81
81
81
81
01
01
02
02
02
18
ENDCHAR
STARTCHAR uni01CA
ENCODING 458
SWIDTH 1292 0
DWIDTH 39 0
BBX 32 22 3 0
BITMAP
80008001
C0008001
A0008001
90008001
90008001
88008001
84008001
82008001
82008001
81008001
80808001
80408001
80408001
80208001
80108001
80108001
80088001
80048001
80028201
80028201
80018102
800080FC
ENDCHAR
STARTCHAR uni01CB
ENCODING 459
SWIDTH 990 0
DWIDTH 30 0
BBX 24 28 3 -6
BITMAP
800080
C00081
A00080
900080
900080
880081
840081
820081
820081
810081
808081
808081
804081
802081
801081
801081
800881
800481
800281
800281
800181
800081
000001
000001
000001
000001
000002
00000C
ENDCHAR
STARTCHAR uni01CC
ENCODING 460
SWIDTH 789 0
DWIDTH 24 0
BBX 18 27 3 -6
BITMAP
000040
000000
000000
000000
9F0040
A08040
C04040
802040
802040
802040
802040
802040
802040
802040
802040
802040
802040
802040
802040
802040
802040
000040
000040
000040
000040
000080
000300
ENDCHAR
STARTCHAR uni01CD
ENCODING 461
SWIDTH 616 0
DWIDTH 19 0
BBX 17 29 1 0
BITMAP
081000
042000
024000
018000
008000
000000
000000
008000
018000
014000
024000
024000
022000
042000
042000
041000
081000
080800
080800
100800
100400
1FFC00
200400
200200
400200
400200
400100
800100
800180
ENDCHAR
STARTCHAR uni01CE
ENCODING 462
SWIDTH 541 0
DWIDTH 16 0
BBX 11 24 2 0
BITMAP
2040
1080
0900
0500
0200
0000
0000
1F80
2040
4020
8020
0020
0020
0020
03E0
3C20
4020
8020
8020
8020
8060
8060
40A0
3F20
ENDCHAR
STARTCHAR uni01CF
ENCODING 463
SWIDTH 250 0
DWIDTH 8 0
BBX 8 29 0 0
BITMAP
83
42
24
18
10
00
00
10
10
10
10
10
10
10
10
10
10
10
10
10
10
10
10
10
10
10
10
10
10
ENDCHAR
STARTCHAR uni01D0
ENCODING 464
SWIDTH 221 0
DWIDTH 7 0
BBX 8 24 -1 0
BITMAP
81
41
22
14
08
00
00
08
08
08
08
08
08
08
08
08
08
08
08
08
08
08
08
08
ENDCHAR
STARTCHAR uni01D1
ENCODING 465
SWIDTH 747 0
DWIDTH 22 0
BBX 18 29 2 0
BITMAP
040800
021000
012000
00C000
004000
000000
000000
03F000
0C0C00
100200
200100
200080
400080
400040
800040
800040
800040
800040
800040
800040
800040
800040
400040
400080
200080
200100
100200
0C0C00
03F000
ENDCHAR
STARTCHAR uni01D2
ENCODING 466
SWIDTH 579 0
DWIDTH 17 0
BBX 13 24 2 0
BITMAP
0020
1040
0880
0500
0200
0000
0000
0F80
1060
2010
4010
4008
8008
8008
8008
8008
8008
8008
8008
4008
4010
2010
1060
0F80
ENDCHAR
STARTCHAR uni01D3
ENCODING 467
SWIDTH 750 0
DWIDTH 23 0
BBX 16 29 3 0
BITMAP
0810
0420
0240
0180
0080
0000
0000
8001
8001
8001
8001
8001
8001
8001
8001
8001
8001
8001
8001
8001
8001
8001
8001
4001
4001
2002
2004
1818
07E0
ENDCHAR
STARTCHAR uni01D4
ENCODING 468
SWIDTH 568 0
DWIDTH 17 0
BBX 11 24 3 0
BITMAP
0040
2080
1100
0A00
0400
0000
0000
8020
8020
8020
8020
8020
8020
8020
8020
8020
8020
8020
8020
8020
8020
4060
20A0
1F20
ENDCHAR
STARTCHAR uni01D5
ENCODING 469
SWIDTH 750 0
DWIDTH 23 0
BBX 16 31 3 0
BITMAP
07F0
0000
0000
0000
0220
0000
0000
0000
0000
8001
8001
8001
8001
8001
8001
8001
8001
8001
8001
8001
8001
8001
8001
8001
8001
4001
4001
2002
2004
1818
07E0
ENDCHAR
STARTCHAR uni01D6
ENCODING 470
SWIDTH 568 0
DWIDTH 17 0
BBX 11 25 3 0
BITMAP
3F80
0000
0000
0000
1100
0000
0000
0000
8020
8020
8020
8020
8020
8020
8020
8020
8020
8020
8020
8020
8020
8020
4060
20A0
1F20
ENDCHAR
STARTCHAR uni01D7
ENCODING 471
SWIDTH 750 0
DWIDTH 23 0
BBX 16 31 3 0
BITMAP
0020
0040
0080
0000
0000
0220
0000
0000
0000
8001
8001
8001
8001
8001
8001
8001
8001
8001
8001
8001
8001
8001
8001
8001
8001
4001
4001
2002
2004
1818
07E0
ENDCHAR
STARTCHAR uni01D8
ENCODING 472
SWIDTH 568 0
DWIDTH 17 0
BBX 11 28 3 0
BITMAP
0080
0100
0100
0200
0400
0000
0000
1100
0000
0000
0000
8020
8020
8020
8020
8020
8020
8020
8020
8020
8020
8020
8020
8020
8020
4060
20A0
1F20
ENDCHAR
STARTCHAR uni01D9
ENCODING 473
SWIDTH 750 0
DWIDTH 23 0
BBX 16 32 3 0
BITMAP
0810
0420
0340
0080
0C10
0000
0000
0000
0000
0000
8001
8001
8001
8001
8001
8001
8001
8001
8001
8001
8001
8001
8001
8001
8001
8001
4001
4001
2002
2004
1818
07E0
ENDCHAR
STARTCHAR uni01DA
ENCODING 474
SWIDTH 568 0
DWIDTH 17 0
BBX 11 28 3 0
BITMAP
0040
2080
1100
0A00
0400
0000
20C0
0000
0000
0000
0000
8020
8020
8020
8020
8020
8020
8020
8020
8020
8020
8020
8020
8020
8020
4060
20A0
1F20
ENDCHAR
STARTCHAR uni01DB
ENCODING 475
SWIDTH 750 0
DWIDTH 23 0
BBX 16 29 3 0
BITMAP
0200
0100
02A0
0000
0000
0000
0000
8001
8001
8001
8001
8001
8001
8001
8001
8001
8001
8001
8001
8001
8001
8001
8001
4001
4001
2002
2004
1818
07E0
ENDCHAR
STARTCHAR uni01DC
ENCODING 476
SWIDTH 568 0
DWIDTH 17 0
BBX 11 25 3 0
BITMAP
1000
0800
0400
1100
0000
0000
0000
0000
8020
8020
8020
8020
8020
8020
8020
8020
8020
8020
8020
8020
8020
8020
4060
20A0
1F20
ENDCHAR
STARTCHAR uni01DD
ENCODING 477
SWIDTH 576 0
DWIDTH 17 0
BBX 13 17 2 0
BITMAP
1F80
2060
4010
4010
0008
0008
0008
0008
FFF8
8008
8008
8008
8008
4010
2030
1060
0F80
ENDCHAR
STARTCHAR uni01DE
ENCODING 478
SWIDTH 616 0
DWIDTH 19 0
BBX 17 31 1 0
BITMAP
07F000
000000
000000
000000
022000
000000
000000
000000
000000
008000
018000
014000
024000
024000
022000
042000
042000
041000
081000
080800
080800
100800
100400
1FFC00
200400
200200
400200
400200
400100
800100
800180
ENDCHAR
STARTCHAR uni01DF
ENCODING 479
SWIDTH 541 0
DWIDTH 16 0
BBX 11 26 2 0
BITMAP
1FC0
0000
0000
0000
0000
1980
0000
0000
0000
1F80
2040
4020
8020
0020
0020
0020
03E0
3C20
4020
8020
8020
8020
8060
8060
40A0
3F20
ENDCHAR
STARTCHAR uni01E0
ENCODING 480
SWIDTH 616 0
DWIDTH 19 0
BBX 17 31 1 0
BITMAP
07F000
000000
000000
000000
008000
000000
000000
000000
000000
008000
018000
014000
024000
024000
022000
042000
042000
041000
081000
080800
080800
100800
100400
1FFC00
200400
200200
400200
400200
400100
800100
800180
ENDCHAR
STARTCHAR uni01E1
ENCODING 481
SWIDTH 541 0
DWIDTH 16 0
BBX 11 26 2 0
BITMAP
1FC0
0000
0000
0000
0600
0000
0000
0000
0000
1F80
2040
4020
8020
0020
0020
0020
03E0
3C20
4020
8020
8020
8020
8060
8060
40A0
3F20
ENDCHAR
STARTCHAR uni01E2
ENCODING 482
SWIDTH 958 0
DWIDTH 29 0
BBX 26 27 1 0
BITMAP
0003F800
00000000
00000000
00000000
00000000
001FFF80
00240000
00240000
00440000
00440000
00840000
00840000
01040000
01040000
02040000
0203FF80
04040000
04040000
08040000
0FFC0000
10040000
10040000
20040000
20040000
40040000
40040000
8003FFC0
ENDCHAR
STARTCHAR uni01E3
ENCODING 483
SWIDTH 921 0
DWIDTH 28 0
BBX 24 21 2 0
BITMAP
00FE00
000000
000000
000000
1F83E0
204408
402804
803002
003002
002001
002001
07DFFF
382000
402000
802000
803000
803000
804802
804804
608608
1F01F0
ENDCHAR
STARTCHAR uni01E4
ENCODING 484
SWIDTH 738 0
DWIDTH 22 0
BBX 19 22 2 0
BITMAP
03F800
0C0400
100200
200100
200080
400080
400040
800000
800000
800000
800000
807FC0
800040
800040
800040
407FE0
400080
200080
200100
100200
0C0C00
03F000
ENDCHAR
STARTCHAR uni01E5
ENCODING 485
SWIDTH 583 0
DWIDTH 18 0
BBX 16 23 2 -6
BITMAP
0F88
3048
2028
4028
8018
8018
8008
8008
80FF
8008
8008
8008
8018
4018
4028
3048
0F88
0008
0008
0010
4010
2020
1FC0
ENDCHAR
STARTCHAR uni01E6
ENCODING 486
SWIDTH 738 0
DWIDTH 22 0
BBX 18 29 2 0
BITMAP
040800
021000
012000
00C000
004000
000000
000000
03F800
0C0400
100200
200100
200080
400080
400040
800000
800000
800000
800000
807FC0
800040
800040
800040
400080
400080
200080
200100
100200
0C0C00
03F000
ENDCHAR
STARTCHAR uni01E7
ENCODING 487
SWIDTH 583 0
DWIDTH 18 0
BBX 13 30 2 -6
BITMAP
1060
0840
0480
0300
0200
0000
0000
0F88
3048
2028
4028
8018
8018
8008
8008
8008
8008
8008
8008
8018
4018
4028
3048
0F88
0008
0008
0010
4010
2020
1FC0
ENDCHAR
STARTCHAR uni01E8
ENCODING 488
SWIDTH 616 0
DWIDTH 19 0
BBX 14 29 3 0
BITMAP
3040
1080
0900
0600
0200
0000
0000
8004
8008
8010
8020
8040
8040
8080
8100
8200
8400
8800
9400
A400
C200
8100
8080
8040
8020
8020
8010
8008
8004
ENDCHAR
STARTCHAR uni01E9
ENCODING 489
SWIDTH 487 0
DWIDTH 15 0
BBX 15 29 -1 0
BITMAP
8100
4200
2400
1800
0800
0000
0000
0800
0800
0800
0800
0800
0804
0808
0810
0820
0840
0880
0900
0A00
0D00
0880
0840
0840
0820
0810
0808
0804
0806
ENDCHAR
STARTCHAR uni01EA
ENCODING 490
SWIDTH 747 0
DWIDTH 22 0
BBX 18 28 2 -6
BITMAP
03F000
0C0C00
100200
200100
200080
400080
400040
800040
800040
800040
800040
800040
800040
800040
800040
400040
400080
200080
200100
100200
0C0400
03F800
008000
010000
010000
010000
010000
00E000
ENDCHAR
STARTCHAR uni01EB
ENCODING 491
SWIDTH 579 0
DWIDTH 17 0
BBX 13 23 2 -6
BITMAP
0F80
1060
2010
4010
4008
8008
8008
8008
8008
8008
8008
8008
4008
4010
2010
1060
0F80
0200
0400
0800
0800
0800
0780
ENDCHAR
STARTCHAR uni01EC
ENCODING 492
SWIDTH 747 0
DWIDTH 22 0
BBX 18 33 2 -6
BITMAP
03F800
000000
000000
000000
000000
03F000
0C0C00
100200
200100
200080
400080
400040
800040
800040
800040
800040
800040
800040
800040
800040
400040
400080
200080
200100
100200
0C0400
03F800
008000
010000
010000
010000
010000
00E000
ENDCHAR
STARTCHAR uni01ED
ENCODING 493
SWIDTH 579 0
DWIDTH 17 0
BBX 13 28 2 -6
BITMAP
1FC0
0000
0000
0000
0000
0F80
1060
2010
4010
4008
8008
8008
8008
8008
8008
8008
8008
4008
4010
2010
1060
0F80
0200
0400
0800
0800
0800
0780
ENDCHAR
STARTCHAR uni01EE
ENCODING 494
SWIDTH 693 0
DWIDTH 21 0
BBX 17 36 2 -6
BITMAP
081000
041000
022000
014000
008000
000000
000000
000000
7FFF00
000200
000400
000800
001000
002000
004000
008000
010000
020000
030000
00E000
001800
000400
000200
000100
000100
000100
000080
000080
000080
800100
800100
800100
400200
200400
181800
07E000
ENDCHAR
STARTCHAR uni01EF
ENCODING 495
SWIDTH 599 0
DWIDTH 18 0
BBX 13 29 2 -6
BITMAP
1020
0840
0480
0300
0000
0000
7FF8
0010
0020
0020
0040
0080
0100
0100
0200
0400
07C0
0020
0010
0008
0008
0008
0008
8008
8008
4008
4010
3020
0FC0
ENDCHAR
STARTCHAR uni01F0
ENCODING 496
SWIDTH 221 0
DWIDTH 7 0
BBX 8 30 -1 -6
BITMAP
81
41
22
14
08
00
00
08
08
08
08
08
08
08
08
08
08
08
08
08
08
08
08
08
08
08
08
08
10
60
ENDCHAR
STARTCHAR uni01F1
ENCODING 497
SWIDTH 1319 0
DWIDTH 40 0
BBX 34 22 3 0
BITMAP
FFC007FFC0
8030000040
8008000080
8004000080
8002000100
8002000200
8001000200
8001000400
8001000400
8001000800
8001001000
8001001000
8001002000
8001004000
8001004000
8001008000
8002008000
8002010000
8004020000
8008020000
8030040000
FFC007FFC0
ENDCHAR
STARTCHAR uni01F2
ENCODING 498
SWIDTH 1223 0
DWIDTH 37 0
BBX 32 22 3 0
BITMAP
FFC00000
80300000
80080000
80040000
80020000
800207FE
80010002
80010004
80010004
80010008
80010010
80010010
80010020
80010020
80010040
80010080
80020080
80020100
80040200
80080200
80300400
FFC007FF
ENDCHAR
STARTCHAR uni01F3
ENCODING 499
SWIDTH 1031 0
DWIDTH 31 0
BBX 27 22 2 0
BITMAP
00080000
00080000
00080000
00080000
00080000
0F887FE0
30480040
20280040
40280080
80180100
80180100
80080200
80080400
80080400
80080800
80080800
80181000
80182000
40182000
20284000
30488000
0F88FFE0
ENDCHAR
STARTCHAR uni01F4
ENCODING 500
SWIDTH 738 0
DWIDTH 22 0
BBX 18 29 2 0
BITMAP
001800
001000
002000
004000
004000
000000
000000
03F800
0C0400
100200
200100
200080
400080
400040
800000
800000
800000
800000
807FC0
800040
800040
800040
400080
400080
200080
200100
100200
0C0C00
03F000
ENDCHAR
STARTCHAR uni01F5
ENCODING 501
SWIDTH 583 0
DWIDTH 18 0
BBX 13 31 2 -6
BITMAP
0040
0040
0080
0100
0300
0000
0000
0000
0F88
3048
2028
4028
8018
8018
8008
8008
8008
8008
8008
8008
8018
4018
4028
3048
0F88
0008
0008
0010
4010
2020
1FC0
ENDCHAR
STARTCHAR uni01F6
ENCODING 502
SWIDTH 1107 0
DWIDTH 33 0
BBX 27 22 3 0
BITMAP
80010000
80010000
80010000
80010000
80010000
80010020
80010020
80010020
80010020
80010020
FFFF0020
80010020
80010020
80010020
80010020
80010020
80010020
80010020
80010020
80008040
800040C0
80003F00
ENDCHAR
STARTCHAR uni01F7
ENCODING 503
SWIDTH 478 0
DWIDTH 14 0
BBX 13 28 1 -6
BITMAP
BF00
C0C0
8020
8010
8010
8010
8010
8008
8008
8008
8008
8008
8010
8010
8010
8010
8020
8040
8040
8080
8300
8400
B800
C000
8000
8000
8000
8000
ENDCHAR
STARTCHAR uni01F8
ENCODING 504
SWIDTH 772 0
DWIDTH 23 0
BBX 17 29 3 0
BITMAP
040000
020000
010000
010000
008000
000000
000000
800080
C00080
A00080
900080
900080
880080
840080
820080
820080
810080
808080
808080
804080
802080
801080
801080
800880
800480
800480
800280
800180
800080
ENDCHAR
STARTCHAR uni01F9
ENCODING 505
SWIDTH 568 0
DWIDTH 17 0
BBX 11 24 3 0
BITMAP
2000
1000
0800
0800
0400
0000
0000
9F00
A080
C040
8020
8020
8020
8020
8020
8020
8020
8020
8020
8020
8020
8020
8020
8020
ENDCHAR
STARTCHAR uni01FA
ENCODING 506
SWIDTH 616 0
DWIDTH 19 0
BBX 17 31 1 0
BITMAP
004000
008000
000000
01C000
022000
022000
022000
01C000
000000
008000
018000
014000
024000
024000
022000
042000
042000
041000
081000
080800
080800
100800
100400
1FFC00
200400
200200
400200
400200
400100
800100
800180
ENDCHAR
STARTCHAR uni01FB
ENCODING 507
SWIDTH 541 0
DWIDTH 16 0
BBX 11 26 2 0
BITMAP
0100
0200
0000
0000
0F00
0880
0880
0600
0000
1F80
2040
4020
8020
0020
0020
0020
03E0
3C20
4020
8020
8020
8020
8060
8060
40A0
3F20
ENDCHAR
STARTCHAR uni01FC
ENCODING 508
SWIDTH 958 0
DWIDTH 29 0
BBX 26 29 1 0
BITMAP
00000800
00001000
00002000
00002000
00004000
00000000
00000000
001FFF80
00240000
00240000
00440000
00440000
00840000
00840000
01040000
01040000
02040000
0203FF80
04040000
04040000
08040000
0FFC0000
10040000
10040000
20040000
20040000
40040000
40040000
8003FFC0
ENDCHAR
STARTCHAR uni01FD
ENCODING 509
SWIDTH 921 0
DWIDTH 28 0
BBX 24 24 2 0
BITMAP
000200
000400
000400
000800
001000
000000
000000
1F83E0
204408
402804
803002
003002
002001
002001
07DFFF
382000
402000
802000
803000
803000
804802
804804
608608
1F01F0
ENDCHAR
STARTCHAR uni01FE
ENCODING 510
SWIDTH 747 0
DWIDTH 22 0
BBX 18 29 2 0
BITMAP
001800
001000
002000
002000
004000
000000
000000
03F080
0C0D00
100200
200300
200480
400480
400840
801040
801040
802040
804040
804040
808040
810040
810040
420040
440080
440080
280100
100200
2C0400
23F800
ENDCHAR
STARTCHAR uni01FF
ENCODING 511
SWIDTH 579 0
DWIDTH 17 0
BBX 13 24 2 0
BITMAP
0040
0080
0080
0100
0200
0000
0000
0F88
1070
2020
4030
4048
8088
8088
8108
8208
8208
8408
8808
4808
5010
2010
5060
4F80
ENDCHAR
STARTCHAR uni0200
ENCODING 512
SWIDTH 616 0
DWIDTH 19 0
BBX 17 29 1 0
BITMAP
090000
090000
048000
028000
034000
000000
000000
008000
018000
014000
024000
024000
022000
042000
042000
041000
081000
080800
080800
100800
100400
1FFC00
200400
200200
400200
400200
400100
800100
800180
ENDCHAR
STARTCHAR uni0201
ENCODING 513
SWIDTH 541 0
DWIDTH 16 0
BBX 11 24 2 0
BITMAP
6C00
2400
1200
0A00
0900
0000
0000
1F80
2040
4020
8020
0020
0020
0020
03E0
3C20
4020
8020
8020
8020
8060
8060
40A0
3F20
ENDCHAR
STARTCHAR uni0202
ENCODING 514
SWIDTH 616 0
DWIDTH 19 0
BBX 17 29 1 0
BITMAP
01C000
022000
022000
000000
000000
000000
000000
008000
018000
014000
024000
024000
022000
042000
042000
041000
081000
080800
080800
100800
100400
1FFC00
200400
200200
400200
400200
400100
800100
800180
ENDCHAR
STARTCHAR uni0203
ENCODING 515
SWIDTH 541 0
DWIDTH 16 0
BBX 11 24 2 0
BITMAP
0700
0900
0880
0000
0000
0000
0000
1F80
2040
4020
8020
0020
0020
0020
03E0
3C20
4020
8020
8020
8020
8060
8060
40A0
3F20
ENDCHAR
STARTCHAR uni0204
ENCODING 516
SWIDTH 583 0
DWIDTH 18 0
BBX 12 29 3 0
BITMAP
2400
1400
1200
0A00
0D00
0000
0000
FFF0
8000
8000
8000
8000
8000
8000
8000
8000
8000
FFE0
8000
8000
8000
8000
8000
8000
8000
8000
8000
8000
FFF0
ENDCHAR
STARTCHAR uni0205
ENCODING 517
SWIDTH 576 0
DWIDTH 17 0
BBX 13 24 2 0
BITMAP
2400
1200
0A00
0900
0500
0000
0000
0F80
1060
2010
4008
8008
8008
8008
FFF8
8000
8000
8000
8000
4000
4008
2010
1020
0FC0
ENDCHAR
STARTCHAR uni0206
ENCODING 518
SWIDTH 583 0
DWIDTH 18 0
BBX 12 29 3 0
BITMAP
0700
0880
0880
0000
0000
0000
0000
FFF0
8000
8000
8000
8000
8000
8000
8000
8000
8000
FFE0
8000
8000
8000
8000
8000
8000
8000
8000
8000
8000
FFF0
ENDCHAR
STARTCHAR uni0207
ENCODING 519
SWIDTH 576 0
DWIDTH 17 0
BBX 13 24 2 0
BITMAP
0700
0880
0880
0000
0000
0000
0000
0F80
1060
2010
4008
8008
8008
8008
FFF8
8000
8000
8000
8000
4000
4008
2010
1020
0FC0
ENDCHAR
STARTCHAR uni0208
ENCODING 520
SWIDTH 250 0
DWIDTH 8 0
BBX 6 29 -1 0
BITMAP
90
48
28
24
14
00
00
08
08
08
08
08
08
08
08
08
08
08
08
08
08
08
08
08
08
08
08
08
08
ENDCHAR
STARTCHAR uni0209
ENCODING 521
SWIDTH 221 0
DWIDTH 7 0
BBX 6 24 -1 0
BITMAP
90
50
48
28
14
00
00
08
08
08
08
08
08
08
08
08
08
08
08
08
08
08
08
08
ENDCHAR
STARTCHAR uni020A
ENCODING 522
SWIDTH 250 0
DWIDTH 8 0
BBX 5 29 1 0
BITMAP
70
48
88
00
00
00
00
20
20
20
20
20
20
20
20
20
20
20
20
20
20
20
20
20
20
20
20
20
20
ENDCHAR
STARTCHAR uni020B
ENCODING 523
SWIDTH 221 0
DWIDTH 7 0
BBX 5 23 1 0
BITMAP
70
88
00
00
00
00
20
20
20
20
20
20
20
20
20
20
20
20
20
20
20
20
20
ENDCHAR
STARTCHAR uni020C
ENCODING 524
SWIDTH 747 0
DWIDTH 22 0
BBX 18 29 2 0
BITMAP
048000
048000
024000
014000
01A000
000000
000000
03F000
0C0C00
100200
200100
200080
400080
400040
800040
800040
800040
800040
800040
800040
800040
800040
400040
400080
200080
200100
100200
0C0C00
03F000
ENDCHAR
STARTCHAR uni020D
ENCODING 525
SWIDTH 579 0
DWIDTH 17 0
BBX 13 24 2 0
BITMAP
2400
1200
0A00
0900
0500
0000
0000
0F80
1060
2010
4010
4008
8008
8008
8008
8008
8008
8008
8008
4008
4010
2010
1060
0F80
ENDCHAR
STARTCHAR uni020E
ENCODING 526
SWIDTH 747 0
DWIDTH 22 0
BBX 18 29 2 0
BITMAP
00E000
012000
011000
000000
000000
000000
000000
03F000
0C0C00
100200
200100
200080
400080
400040
800040
800040
800040
800040
800040
800040
800040
800040
400040
400080
200080
200100
100200
0C0C00
03F000
ENDCHAR
STARTCHAR uni020F
ENCODING 527
SWIDTH 579 0
DWIDTH 17 0
BBX 13 24 2 0
BITMAP
0700
0480
0880
0000
0000
0000
0000
0F80
1060
2010
4010
4008
8008
8008
8008
8008
8008
8008
8008
4008
4010
2010
1060
0F80
ENDCHAR
STARTCHAR uni0210
ENCODING 528
SWIDTH 615 0
DWIDTH 18 0
BBX 14 29 3 0
BITMAP
6C00
2400
1200
0A00
0D00
0000
0000
FFC0
8020
8010
8008
8008
8008
8008
8008
8008
8008
8010
8060
FF80
8080
8040
8020
8020
8010
8010
8008
8008
8004
ENDCHAR
STARTCHAR uni0211
ENCODING 529
SWIDTH 325 0
DWIDTH 10 0
BBX 7 24 2 0
BITMAP
90
90
48
28
34
00
00
4E
50
60
40
40
40
40
40
40
40
40
40
40
40
40
40
40
ENDCHAR
STARTCHAR uni0212
ENCODING 530
SWIDTH 615 0
DWIDTH 18 0
BBX 14 29 3 0
BITMAP
0700
0900
0880
0000
0000
0000
0000
FFC0
8020
8010
8008
8008
8008
8008
8008
8008
8008
8010
8060
FF80
8080
8040
8020
8020
8010
8010
8008
8008
8004
ENDCHAR
STARTCHAR uni0213
ENCODING 531
SWIDTH 325 0
DWIDTH 10 0
BBX 6 23 3 0
BITMAP
38
44
44
00
00
00
9C
A0
C0
80
80
80
80
80
80
80
80
80
80
80
80
80
80
ENDCHAR
STARTCHAR uni0214
ENCODING 532
SWIDTH 750 0
DWIDTH 23 0
BBX 16 29 3 0
BITMAP
0900
0900
0480
0280
0340
0000
0000
8001
8001
8001
8001
8001
8001
8001
8001
8001
8001
8001
8001
8001
8001
8001
8001
4001
4001
2002
2004
1818
07E0
ENDCHAR
STARTCHAR uni0215
ENCODING 533
SWIDTH 568 0
DWIDTH 17 0
BBX 11 24 3 0
BITMAP
4800
2400
2400
1200
0A00
0000
0000
8020
8020
8020
8020
8020
8020
8020
8020
8020
8020
8020
8020
8020
8020
4060
20A0
1F20
ENDCHAR
STARTCHAR uni0216
ENCODING 534
SWIDTH 750 0
DWIDTH 23 0
BBX 16 29 3 0
BITMAP
01C0
0220
0220
0000
0000
0000
0000
8001
8001
8001
8001
8001
8001
8001
8001
8001
8001
8001
8001
8001
8001
8001
8001
4001
4001
2002
2004
1818
07E0
ENDCHAR
STARTCHAR uni0217
ENCODING 535
SWIDTH 568 0
DWIDTH 17 0
BBX 11 24 3 0
BITMAP
0E00
1100
1100
0000
0000
0000
0000
8020
8020
8020
8020
8020
8020
8020
8020
8020
8020
8020
8020
8020
8020
4060
20A0
1F20
ENDCHAR
STARTCHAR uni0218
ENCODING 536
SWIDTH 612 0
DWIDTH 18 0
BBX 14 29 2 -7
BITMAP
0FC0
1030
2008
4008
4004
4004
4000
4000
2000
1800
0700
00E0
0010
0008
0004
0004
0004
8004
4004
4008
3030
0FC0
0000
0100
0200
0200
0200
0200
0400
ENDCHAR
STARTCHAR uni0219
ENCODING 537
SWIDTH 492 0
DWIDTH 15 0
BBX 11 24 2 -7
BITMAP
1F00
2080
4040
4020
8000
4000
4000
3000
0F00
0080
0040
0020
0020
8020
8040
60C0
1F00
0000
0400
0400
0800
0800
0800
0800
ENDCHAR
STARTCHAR uni021A
ENCODING 538
SWIDTH 613 0
DWIDTH 18 0
BBX 15 29 2 -7
BITMAP
FFFE
0100
0100
0100
0100
0100
0100
0100
0100
0100
0100
0100
0100
0100
0100
0100
0100
0100
0100
0100
0100
0100
0000
0100
0200
0200
0200
0200
0400
ENDCHAR
STARTCHAR uni021B
ENCODING 539
SWIDTH 348 0
DWIDTH 10 0
BBX 7 28 2 -7
BITMAP
20
20
20
20
FC
20
20
20
20
20
20
20
20
20
20
20
20
20
20
10
0E
00
08
08
10
10
10
20
ENDCHAR
STARTCHAR uni021C
ENCODING 540
SWIDTH 590 0
DWIDTH 18 0
BBX 14 29 2 -7
BITMAP
0FC0
3030
4010
8008
8008
8004
0004
0008
0008
0010
0010
0020
0050
0188
0608
1804
6004
0004
0004
0004
0004
0008
0008
0010
0060
0080
0300
1C00
6000
ENDCHAR
STARTCHAR uni021D
ENCODING 541
SWIDTH 503 0
DWIDTH 15 0
BBX 11 23 2 -6
BITMAP
1F00
20C0
4040
8020
8020
0020
0020
0040
0040
0080
0340
0C20
7020
0020
0020
0020
0020
0020
0040
0040
0080
0300
7C00
ENDCHAR
STARTCHAR uni021E
ENCODING 542
SWIDTH 735 0
DWIDTH 22 0
BBX 16 29 3 0
BITMAP
0810
0420
0240
0180
0080
0000
0000
8001
8001
8001
8001
8001
8001
8001
8001
8001
8001
FFFF
8001
8001
8001
8001
8001
8001
8001
8001
8001
8001
8001
ENDCHAR
STARTCHAR uni021F
ENCODING 543
SWIDTH 568 0
DWIDTH 17 0
BBX 15 29 -1 0
BITMAP
8100
4200
2400
1800
0800
0000
0000
0800
0800
0800
0800
0800
09F0
0A08
0C04
0802
0802
0802
0802
0802
0802
0802
0802
0802
0802
0802
0802
0802
0802
ENDCHAR
STARTCHAR uni0220
ENCODING 544
SWIDTH 518 0
DWIDTH 16 0
BBX 13 28 1 -6
BITMAP
9F80
E060
8010
8008
8008
8008
8008
8008
8008
8008
8008
8008
8008
8008
8008
8008
8008
8008
8008
8008
8008
8008
0008
0008
0008
0008
0008
0008
ENDCHAR
STARTCHAR uni0221
ENCODING 545
SWIDTH 719 0
DWIDTH 22 0
BBX 19 28 2 -6
BITMAP
000800
000800
000800
000800
000800
0F8800
304800
402800
402800
801000
801000
800800
800800
800800
800800
800800
801000
801000
401000
402800
304800
0F0B80
000C40
000820
001020
002820
002420
0043C0
ENDCHAR
STARTCHAR uni0222
ENCODING 546
SWIDTH 565 0
DWIDTH 17 0
BBX 15 23 1 0
BITMAP
3018
4004
4004
8002
8002
8002
8002
8004
4004
3018
0FE0
3018
4004
8002
8002
8002
8002
8002
8002
8002
4004
2018
1FE0
ENDCHAR
STARTCHAR uni0223
ENCODING 547
SWIDTH 591 0
DWIDTH 18 0
BBX 16 24 1 0
BITMAP
1008
6004
4002
8001
8001
8001
8001
8001
8002
4002
300C
0FF0
300C
4002
8002
8001
8001
8001
8001
8001
8002
4002
300C
0FF0
ENDCHAR
STARTCHAR uni0224
ENCODING 548
SWIDTH 583 0
DWIDTH 18 0
BBX 14 25 2 -3
BITMAP
FFF8
0008
0010
0010
0020
0020
0040
0080
0080
0100
0200
0200
0400
0400
0800
1000
1000
2000
4000
4000
8000
FFF0
0008
0004
0004
ENDCHAR
STARTCHAR uni0225
ENCODING 549
SWIDTH 508 0
DWIDTH 15 0
BBX 12 20 2 -3
BITMAP
7FE0
0020
0040
0080
0080
0100
0200
0200
0400
0800
0800
1000
1000
2000
4000
4000
FFE0
0010
0010
0010
ENDCHAR
STARTCHAR uni0226
ENCODING 550
SWIDTH 616 0
DWIDTH 19 0
BBX 17 27 1 0
BITMAP
008000
000000
000000
000000
000000
008000
018000
014000
024000
024000
022000
042000
042000
041000
081000
080800
080800
100800
100400
1FFC00
200400
200200
400200
400200
400100
800100
800180
ENDCHAR
STARTCHAR uni0227
ENCODING 551
SWIDTH 541 0
DWIDTH 16 0
BBX 11 21 2 0
BITMAP
0600
0000
0000
0000
1F80
2040
4020
8020
0020
0020
0020
03E0
3C20
4020
8020
8020
8020
8060
8060
40A0
3F20
ENDCHAR
STARTCHAR uni0228
ENCODING 552
SWIDTH 583 0
DWIDTH 18 0
BBX 12 28 3 -6
BITMAP
FFF0
8000
8000
8000
8000
8000
8000
8000
8000
8000
FFE0
8000
8000
8000
8000
8000
8000
8000
8000
8000
8000
FFF0
0400
0600
0100
0100
0100
0600
ENDCHAR
STARTCHAR uni0229
ENCODING 553
SWIDTH 576 0
DWIDTH 17 0
BBX 13 22 2 -5
BITMAP
0F80
1060
2010
4008
8008
8008
8008
FFF8
8000
8000
8000
8000
4000
4008
2010
1020
0FC0
0300
0080
0080
0080
0300
ENDCHAR
STARTCHAR uni022A
ENCODING 554
SWIDTH 747 0
DWIDTH 22 0
BBX 18 31 2 0
BITMAP
03F800
000000
000000
000000
031000
000000
000000
000000
000000
03F000
0C0C00
100200
200100
200080
400080
400040
800040
800040
800040
800040
800040
800040
800040
800040
400040
400080
200080
200100
100200
0C0C00
03F000
ENDCHAR
STARTCHAR uni022B
ENCODING 555
SWIDTH 579 0
DWIDTH 17 0
BBX 13 26 2 0
BITMAP
1FC0
0000
0000
0000
0000
0880
0000
0000
0000
0F80
1060
2010
4010
4008
8008
8008
8008
8008
8008
8008
8008
4008
4010
2010
1060
0F80
ENDCHAR
STARTCHAR uni022C
ENCODING 556
SWIDTH 747 0
DWIDTH 22 0
BBX 18 29 2 0
BITMAP
03F800
018800
025000
023000
000000
000000
000000
03F000
0C0C00
100200
200100
200080
400080
400040
800040
800040
800040
800040
800040
800040
800040
800040
400040
400080
200080
200100
100200
0C0C00
03F000
ENDCHAR
STARTCHAR uni022D
ENCODING 557
SWIDTH 579 0
DWIDTH 17 0
BBX 13 25 2 0
BITMAP
1FC0
0000
0000
0E40
1180
0000
0000
0000
0F80
1060
2010
4010
4008
8008
8008
8008
8008
8008
8008
8008
4008
4010
2010
1060
0F80
ENDCHAR
STARTCHAR uni022E
ENCODING 558
SWIDTH 747 0
DWIDTH 22 0
BBX 18 27 2 0
BITMAP
004000
000000
000000
000000
000000
03F000
0C0C00
100200
200100
200080
400080
400040
800040
800040
800040
800040
800040
800040
800040
800040
400040
400080
200080
200100
100200
0C0C00
03F000
ENDCHAR
STARTCHAR uni022F
ENCODING 559
SWIDTH 579 0
DWIDTH 17 0
BBX 13 21 2 0
BITMAP
0200
0000
0000
0000
0F80
1060
2010
4010
4008
8008
8008
8008
8008
8008
8008
8008
4008
4010
2010
1060
0F80
ENDCHAR
STARTCHAR uni0230
ENCODING 560
SWIDTH 747 0
DWIDTH 22 0
BBX 18 31 2 0
BITMAP
03F800
000000
000000
000000
004000
000000
000000
000000
000000
03F000
0C0C00
100200
200100
200080
400080
400040
800040
800040
800040
800040
800040
800040
800040
800040
400040
400080
200080
200100
100200
0C0C00
03F000
ENDCHAR
STARTCHAR uni0231
ENCODING 561
SWIDTH 579 0
DWIDTH 17 0
BBX 13 26 2 0
BITMAP
1FC0
0000
0000
0000
0200
0000
0000
0000
0000
0F80
1060
2010
4010
4008
8008
8008
8008
8008
8008
8008
8008
4008
4010
2010
1060
0F80
ENDCHAR
STARTCHAR uni0232
ENCODING 562
SWIDTH 613 0
DWIDTH 18 0
BBX 16 27 1 0
BITMAP
07F0
0000
0000
0000
0000
8001
4002
2002
2004
1008
0808
0810
0420
0220
0240
0180
0080
0080
0080
0080
0080
0080
0080
0080
0080
0080
0080
ENDCHAR
STARTCHAR uni0233
ENCODING 563
SWIDTH 522 0
DWIDTH 16 0
BBX 12 27 2 -6
BITMAP
3F80
0000
0000
0000
8010
8010
8020
4020
4020
4040
2040
2040
2080
1080
1080
1100
0900
0900
0A00
0600
0400
0400
0400
0800
0800
1000
E000
ENDCHAR
STARTCHAR uni0234
ENCODING 564
SWIDTH 263 0
DWIDTH 8 0
BBX 10 28 0 -6
BITMAP
1000
1000
1000
1000
1000
1000
1000
1000
1000
1000
1000
1000
1000
1000
1000
1000
1000
1000
1000
1000
1000
1300
18C0
1040
3040
5040
4840
8780
ENDCHAR
STARTCHAR uni0235
ENCODING 565
SWIDTH 747 0
DWIDTH 22 0
BBX 18 21 3 -4
BITMAP
9F0000
A08000
C04000
802000
802000
802000
802000
802000
802000
802000
802000
802000
802000
802000
802F00
803080
802040
006040
005040
009080
008F00
ENDCHAR
STARTCHAR uni0236
ENCODING 566
SWIDTH 437 0
DWIDTH 13 0
BBX 10 21 2 0
BITMAP
2000
2000
2000
2000
FC00
2000
2000
2000
2000
2000
2000
2000
2000
2000
2F00
3080
2040
6040
A040
9080
8F00
ENDCHAR
STARTCHAR uni0237
ENCODING 567
SWIDTH 221 0
DWIDTH 7 0
BBX 4 23 0 -6
BITMAP
10
10
10
10
10
10
10
10
10
10
10
10
10
10
10
10
10
10
10
10
10
20
C0
ENDCHAR
STARTCHAR uni0238
ENCODING 568
SWIDTH 853 0
DWIDTH 26 0
BBX 23 22 1 0
BITMAP
001000
001000
001000
001000
001000
0F91F0
305608
203804
401002
401002
801002
801002
801002
801002
801002
801002
801002
401002
401002
203804
305608
0F91F0
ENDCHAR
STARTCHAR uni0239
ENCODING 569
SWIDTH 853 0
DWIDTH 26 0
BBX 23 23 1 -6
BITMAP
0F91F0
305608
203804
401002
401002
801002
801002
801002
801002
801002
801002
801002
401002
401002
203804
305608
0F91F0
001000
001000
001000
001000
001000
001000
ENDCHAR
STARTCHAR uni023A
ENCODING 570
SWIDTH 616 0
DWIDTH 19 0
BBX 17 28 1 -3
BITMAP
000800
000800
000800
009000
019000
015000
026000
022000
022000
042000
046000
045000
089000
088800
088800
110800
110400
1FFC00
220400
220200
420200
440200
440100
840100
880180
080000
100000
100000
ENDCHAR
STARTCHAR uni023B
ENCODING 571
SWIDTH 723 0
DWIDTH 22 0
BBX 18 28 2 -2
BITMAP
000200
000200
000400
000400
03F400
0C0C00
100A00
200900
201080
401080
402040
802000
802000
804000
804000
808000
808000
808000
810000
410040
420080
420080
220100
140200
0C0C00
0BF000
080000
180000
ENDCHAR
STARTCHAR uni023C
ENCODING 572
SWIDTH 527 0
DWIDTH 16 0
BBX 14 28 1 -6
BITMAP
0004
0008
0008
0010
0010
07D0
0830
1028
2048
2044
4080
4080
4100
4100
4200
4200
4400
2404
2408
1808
0830
17C0
1000
2000
2000
4000
4000
C000
ENDCHAR
STARTCHAR uni023D
ENCODING 573
SWIDTH 562 0
DWIDTH 17 0
BBX 15 22 0 0
BITMAP
1000
1000
1000
1000
1000
1000
1000
1000
1000
1000
FF00
1000
1000
1000
1000
1000
1000
1000
1000
1000
1000
1FFE
ENDCHAR
STARTCHAR uni023E
ENCODING 574
SWIDTH 613 0
DWIDTH 18 0
BBX 15 28 2 -3
BITMAP
0008
0008
0010
FFFE
0110
0120
0120
0140
0140
0140
0180
0180
0100
0100
0100
0100
0300
0300
0500
0500
0900
0900
0900
1100
1100
1000
2000
2000
ENDCHAR
STARTCHAR uni023F
ENCODING 575
SWIDTH 481 0
DWIDTH 14 0
BBX 11 23 2 -6
BITMAP
1F00
2080
4040
4020
8000
4000
4000
3000
0F00
0080
0040
0020
0020
8020
4040
40C0
3F00
2000
1000
1000
0800
0880
0700
ENDCHAR
STARTCHAR uni0240
ENCODING 576
SWIDTH 508 0
DWIDTH 15 0
BBX 12 23 2 -6
BITMAP
7FE0
0020
0040
0080
0080
0100
0200
0200
0400
0800
0800
1000
1000
2000
4000
4000
F000
0800
0600
0200
0100
0080
0070
ENDCHAR
STARTCHAR uni0241
ENCODING 577
SWIDTH 504 0
DWIDTH 15 0
BBX 13 22 1 0
BITMAP
0FC0
3020
4010
4010
8008
0008
0008
0008
0008
0008
0008
0008
0008
0010
0010
0060
0380
0200
0200
0200
0200
0200
ENDCHAR
STARTCHAR uni0242
ENCODING 578
SWIDTH 489 0
DWIDTH 15 0
BBX 10 17 2 0
BITMAP
1F00
2080
4040
8040
8040
8040
0040
0040
0040
0040
0080
0700
0400
0400
0400
0400
0400
ENDCHAR
STARTCHAR uni0243
ENCODING 579
SWIDTH 688 0
DWIDTH 21 0
BBX 17 22 1 0
BITMAP
0FFC00
080200
080100
080100
080080
080080
080080
080100
080100
080200
0FFC00
080200
080100
080080
080080
FF0080
080080
080080
080080
080080
080300
0FFC00
ENDCHAR
STARTCHAR uni0244
ENCODING 580
SWIDTH 722 0
DWIDTH 22 0
BBX 22 22 0 0
BITMAP
100020
100020
100020
100020
100020
100020
100020
100020
FFFFFC
100020
100020
100020
100020
100020
100020
100020
100040
100040
080080
040100
030200
00FC00
ENDCHAR
STARTCHAR uni0245
ENCODING 581
SWIDTH 669 0
DWIDTH 20 0
BBX 16 22 2 0
BITMAP
0180
0180
0140
0240
0240
0420
0420
0420
0810
0810
0810
1008
1008
1008
2004
2004
2004
4002
4002
4001
8001
8001
ENDCHAR
STARTCHAR uni0246
ENCODING 582
SWIDTH 583 0
DWIDTH 18 0
BBX 12 28 3 -3
BITMAP
0020
0020
0040
FFF0
8040
8040
8080
8080
8080
8100
8100
8100
8200
FFE0
8200
8200
8400
8400
8400
8800
8800
8800
8800
9000
FFF0
1000
1000
2000
ENDCHAR
STARTCHAR uni0247
ENCODING 583
SWIDTH 563 0
DWIDTH 17 0
BBX 14 28 1 -6
BITMAP
0004
0008
0008
0010
0010
07D0
0830
1038
2048
2044
4084
4084
4104
7FFC
4100
4200
4200
4400
2404
1808
0810
17E0
1000
2000
2000
4000
4000
C000
ENDCHAR
STARTCHAR uni0248
ENCODING 584
SWIDTH 519 0
DWIDTH 16 0
BBX 14 22 2 0
BITMAP
0040
0040
0040
0040
0040
0040
0040
0040
03FC
0040
0040
0040
0040
0040
0040
0040
0040
8040
8040
8080
4180
3E00
ENDCHAR
STARTCHAR uni0249
ENCODING 585
SWIDTH 221 0
DWIDTH 7 0
BBX 8 27 -1 -6
BITMAP
08
00
00
00
08
08
08
08
08
08
08
FF
08
08
08
08
08
08
08
08
08
08
08
08
08
10
60
ENDCHAR
STARTCHAR uni024A
ENCODING 586
SWIDTH 747 0
DWIDTH 22 0
BBX 20 28 2 -6
BITMAP
03F080
0C0880
100480
200280
200180
400180
400080
800080
800080
800080
800080
800080
800080
800080
800080
400080
400180
200180
200280
100280
0C0C80
03F080
000080
000080
000080
000080
000080
000070
ENDCHAR
STARTCHAR uni024B
ENCODING 587
SWIDTH 588 0
DWIDTH 18 0
BBX 16 23 2 -6
BITMAP
0F88
3048
2028
4018
8018
8018
8008
8008
8008
8008
8008
8018
8018
4018
2028
3048
0F08
0008
0008
0008
0008
0008
0007
ENDCHAR
STARTCHAR uni024C
ENCODING 588
SWIDTH 619 0
DWIDTH 19 0
BBX 17 22 0 0
BITMAP
1FF800
100400
100200
100100
100100
100100
100100
100100
100100
100100
100200
100C00
FFF000
100800
100800
100400
100400
100200
100200
100100
100100
100080
ENDCHAR
STARTCHAR uni024D
ENCODING 589
SWIDTH 325 0
DWIDTH 10 0
BBX 10 17 -1 0
BITMAP
09C0
0A00
0C00
0800
0800
0800
0800
0800
FF00
0800
0800
0800
0800
0800
0800
0800
0800
ENDCHAR
STARTCHAR uni024E
ENCODING 590
SWIDTH 609 0
DWIDTH 18 0
BBX 18 22 0 0
BITMAP
400080
200100
100100
080200
FFFFC0
040800
020800
021000
012000
00A000
00C000
004000
004000
004000
004000
004000
004000
004000
004000
004000
004000
004000
ENDCHAR
STARTCHAR uni024F
ENCODING 591
SWIDTH 522 0
DWIDTH 16 0
BBX 13 23 1 -6
BITMAP
8008
4008
4010
2010
7FF8
2020
1020
1040
1040
0840
0880
0880
0480
0500
0500
0300
0200
0200
0200
0400
0400
0800
7000
ENDCHAR
STARTCHAR uni0250
ENCODING 592
SWIDTH 541 0
DWIDTH 16 0
BBX 11 17 3 0
BITMAP
8F80
B040
C020
C020
8020
8020
8020
8040
8780
F800
8000
8000
8000
8020
8040
6080
1F00
ENDCHAR
STARTCHAR uni0251
ENCODING 593
SWIDTH 629 0
DWIDTH 19 0
BBX 15 17 2 0
BITMAP
0F82
1062
2012
4012
800C
800C
8004
8004
8004
8004
8004
800C
800C
4012
2012
1022
0FC2
ENDCHAR
STARTCHAR uni0252
ENCODING 594
SWIDTH 595 0
DWIDTH 18 0
BBX 14 17 2 0
BITMAP
C7E0
2810
3008
2008
2004
2004
2004
2004
2004
2004
2004
2004
2004
2008
3008
2830
27C0
ENDCHAR
STARTCHAR uni0253
ENCODING 595
SWIDTH 598 0
DWIDTH 18 0
BBX 13 22 3 0
BITMAP
7000
4000
8000
8000
8000
8F80
9040
A020
C010
C010
8008
8008
8008
8008
8008
8008
8008
C010
C010
A020
9040
8F80
ENDCHAR
STARTCHAR uni0254
ENCODING 596
SWIDTH 504 0
DWIDTH 15 0
BBX 13 17 1 0
BITMAP
0F80
3040
4020
4010
8010
8008
0008
0008
0008
0008
0008
0008
8010
4010
4020
3040
0F80
ENDCHAR
STARTCHAR uni0255
ENCODING 597
SWIDTH 548 0
DWIDTH 16 0
BBX 14 17 1 0
BITMAP
07C0
0830
1008
2008
4004
4000
4000
4000
4000
43E0
4410
4810
5008
2008
5010
8830
87C0
ENDCHAR
STARTCHAR uni0256
ENCODING 598
SWIDTH 586 0
DWIDTH 18 0
BBX 16 28 2 -6
BITMAP
0008
0008
0008
0008
0008
0F88
3048
2028
4018
8018
8018
8008
8008
8008
8008
8008
8018
8018
4018
2028
3048
0F08
0008
0008
0008
0008
0008
0007
ENDCHAR
STARTCHAR uni0257
ENCODING 599
SWIDTH 574 0
DWIDTH 17 0
BBX 16 22 2 0
BITMAP
0007
0008
0008
0008
0008
0F88
3048
2028
4018
8018
8018
8008
8008
8008
8008
8008
8018
8018
4018
2028
3048
0F08
ENDCHAR
STARTCHAR uni0258
ENCODING 600
SWIDTH 505 0
DWIDTH 15 0
BBX 13 17 1 0
BITMAP
0F80
1040
2020
4010
4010
4010
8008
8008
FFF8
0008
0008
0008
0010
0010
4020
2040
1F80
ENDCHAR
STARTCHAR uni0259
ENCODING 601
SWIDTH 576 0
DWIDTH 17 0
BBX 13 17 2 0
BITMAP
1F80
2060
4010
4010
0008
0008
0008
0008
FFF8
8008
8008
8008
8008
4010
2030
1060
0F80
ENDCHAR
STARTCHAR uni025A
ENCODING 602
SWIDTH 580 0
DWIDTH 17 0
BBX 17 17 0 0
BITMAP
0F8000
304000
402000
402000
001000
001000
001000
00FC00
3F0C00
C00A00
801180
801000
401000
401000
202000
104000
0F8000
ENDCHAR
STARTCHAR uni025B
ENCODING 603
SWIDTH 529 0
DWIDTH 16 0
BBX 12 17 2 0
BITMAP
1F00
20C0
4040
8020
8020
8000
4000
6000
1E00
6000
8000
8000
8010
8010
8020
6040
1F80
ENDCHAR
STARTCHAR uni025C
ENCODING 604
SWIDTH 567 0
DWIDTH 17 0
BBX 12 17 2 0
BITMAP
0F80
3040
4020
4010
4010
0010
0020
0060
0780
0060
0010
0010
8010
8010
4010
2060
1F80
ENDCHAR
STARTCHAR uni025D
ENCODING 605
SWIDTH 610 0
DWIDTH 18 0
BBX 16 17 2 0
BITMAP
0F80
3040
4020
4010
4018
0018
0024
0063
0780
0040
0020
0010
8010
8010
4010
2060
1F80
ENDCHAR
STARTCHAR uni025E
ENCODING 606
SWIDTH 494 0
DWIDTH 15 0
BBX 12 17 1 0
BITMAP
0F80
3060
2010
4010
4010
8010
8010
8020
87C0
8060
8010
8010
4010
4010
2010
3020
0FC0
ENDCHAR
STARTCHAR uni025F
ENCODING 607
SWIDTH 221 0
DWIDTH 7 0
BBX 8 23 -1 -6
BITMAP
08
08
08
08
08
08
08
FF
08
08
08
08
08
08
08
08
08
08
08
08
08
10
60
ENDCHAR
STARTCHAR uni0260
ENCODING 608
SWIDTH 577 0
DWIDTH 17 0
BBX 16 28 2 -6
BITMAP
0007
0008
0008
0008
0008
0F88
3048
6028
4028
8010
8010
8008
8008
8008
8008
8008
8010
8010
4010
4028
3048
0F88
0008
0008
0010
4010
2060
1F80
ENDCHAR
STARTCHAR uni0261
ENCODING 609
SWIDTH 583 0
DWIDTH 18 0
BBX 13 23 2 -6
BITMAP
0F88
3048
2028
4028
8018
8018
8008
8008
8008
8008
8008
8008
8018
4018
4028
3048
0F88
0008
0008
0010
4010
2020
1FC0
ENDCHAR
STARTCHAR uni0262
ENCODING 610
SWIDTH 589 0
DWIDTH 18 0
BBX 13 17 2 0
BITMAP
0FC0
1030
6010
4008
8008
8000
8000
8000
8000
81F8
8008
8008
8008
4008
4008
3030
0FC0
ENDCHAR
STARTCHAR uni0263
ENCODING 611
SWIDTH 528 0
DWIDTH 16 0
BBX 14 23 1 -6
BITMAP
8004
8004
4008
4008
2010
2010
2020
1020
1040
0840
0840
0480
0480
0300
0300
0200
0300
0500
0480
0480
0880
0880
0780
ENDCHAR
STARTCHAR uni0264
ENCODING 612
SWIDTH 734 0
DWIDTH 22 0
BBX 18 17 2 0
BITMAP
380700
C408C0
021000
021000
012000
012000
00C000
004000
00C000
012000
012000
012000
021000
021000
021000
021000
01E000
ENDCHAR
STARTCHAR uni0265
ENCODING 613
SWIDTH 568 0
DWIDTH 17 0
BBX 11 22 3 -5
BITMAP
8020
8020
8020
8020
8020
8020
8020
8020
8020
8020
8020
8020
8020
8020
4060
20A0
1F20
0020
0020
0020
0020
0020
ENDCHAR
STARTCHAR uni0266
ENCODING 614
SWIDTH 568 0
DWIDTH 17 0
BBX 11 22 3 0
BITMAP
7000
8000
8000
8000
8000
9F00
A080
C040
8020
8020
8020
8020
8020
8020
8020
8020
8020
8020
8020
8020
8020
8020
ENDCHAR
STARTCHAR uni0267
ENCODING 615
SWIDTH 548 0
DWIDTH 16 0
BBX 11 28 3 -6
BITMAP
7000
8000
8000
8000
8000
9F00
A080
C040
8020
8020
8020
8020
8020
8020
8020
8020
8020
8020
8020
8020
8020
8020
0020
0020
0020
0020
0020
01C0
ENDCHAR
STARTCHAR uni0268
ENCODING 616
SWIDTH 221 0
DWIDTH 7 0
BBX 8 21 -1 0
BITMAP
08
00
00
00
08
08
08
08
08
08
08
08
FF
08
08
08
08
08
08
08
08
ENDCHAR
STARTCHAR uni03B9
ENCODING 617
SWIDTH 215 0
DWIDTH 6 0
BBX 3 17 3 0
BITMAP
80
80
80
80
80
80
80
80
80
80
80
80
80
80
80
80
60
ENDCHAR
STARTCHAR uni026A
ENCODING 618
SWIDTH 247 0
DWIDTH 7 0
BBX 6 16 1 0
BITMAP
FC
20
20
20
20
20
20
20
20
20
20
20
20
20
20
FC
ENDCHAR
STARTCHAR uni026B
ENCODING 619
SWIDTH 215 0
DWIDTH 6 0
BBX 10 22 -2 0
BITMAP
0400
0400
0400
0400
0400
0400
0400
0400
0400
3C40
4440
8780
0400
0400
0400
0400
0400
0400
0400
0400
0400
0400
ENDCHAR
STARTCHAR uni026C
ENCODING 620
SWIDTH 334 0
DWIDTH 10 0
BBX 9 22 0 0
BITMAP
0200
0200
0200
0200
0200
3A00
4600
8200
8200
8200
4200
3F80
0200
0200
0200
0200
0200
0200
0200
0200
0200
0200
ENDCHAR
STARTCHAR uni026D
ENCODING 621
SWIDTH 209 0
DWIDTH 6 0
BBX 4 28 3 -6
BITMAP
80
80
80
80
80
80
80
80
80
80
80
80
80
80
80
80
80
80
80
80
80
80
80
80
80
80
80
70
ENDCHAR
STARTCHAR uni026E
ENCODING 622
SWIDTH 558 0
DWIDTH 17 0
BBX 12 28 3 -6
BITMAP
8000
8000
8000
8000
8000
7FE0
8020
8040
8080
8100
8100
8200
8400
8800
8E00
8180
8040
8020
8020
8010
8010
8010
0010
0010
0020
0040
C0C0
3F00
ENDCHAR
STARTCHAR uni026F
ENCODING 623
SWIDTH 835 0
DWIDTH 25 0
BBX 19 17 3 0
BITMAP
804020
804020
804020
804020
804020
804020
804020
804020
804020
804020
804020
804020
804020
804020
80A020
413060
3E0FA0
ENDCHAR
STARTCHAR uni0270
ENCODING 624
SWIDTH 826 0
DWIDTH 25 0
BBX 19 23 3 -6
BITMAP
804020
804020
804020
804020
804020
804020
804020
804020
804020
804020
804020
804020
804020
804020
80A020
413060
3E0FA0
000020
000020
000020
000020
000020
000020
ENDCHAR
STARTCHAR uni0271
ENCODING 625
SWIDTH 835 0
DWIDTH 25 0
BBX 19 23 3 -6
BITMAP
9E0F80
E19040
80A020
804020
804020
804020
804020
804020
804020
804020
804020
804020
804020
804020
804020
804020
804020
000020
000020
000020
000020
000020
0001C0
ENDCHAR
STARTCHAR uni0272
ENCODING 626
SWIDTH 566 0
DWIDTH 17 0
BBX 14 23 0 -6
BITMAP
13E0
1410
1808
1004
1004
1004
1004
1004
1004
1004
1004
1004
1004
1004
1004
1004
1004
1000
1000
1000
1000
2000
C000
ENDCHAR
STARTCHAR uni0273
ENCODING 627
SWIDTH 516 0
DWIDTH 15 0
BBX 14 23 3 -6
BITMAP
9F00
A0C0
C040
8020
8020
8020
8020
8020
8020
8020
8020
8020
8020
8020
8020
8020
8020
0020
0020
0020
0020
0010
001C
ENDCHAR
STARTCHAR uni0274
ENCODING 628
SWIDTH 602 0
DWIDTH 18 0
BBX 12 17 3 0
BITMAP
8010
C010
C010
A010
9010
9010
8810
8410
8210
8210
8110
8090
8090
8050
8030
8030
8010
ENDCHAR
STARTCHAR uni0275
ENCODING 629
SWIDTH 579 0
DWIDTH 17 0
BBX 13 17 2 0
BITMAP
0F80
1060
2010
4010
4008
8008
8008
8008
FFF8
8008
8008
8008
4008
4010
2010
1060
0F80
ENDCHAR
STARTCHAR uni0276
ENCODING 630
SWIDTH 931 0
DWIDTH 28 0
BBX 22 17 3 0
BITMAP
0FFFFC
101000
201000
401000
401000
801000
801000
801000
801FF8
801000
801000
801000
401000
401000
201000
101000
0FFFFC
ENDCHAR
STARTCHAR uni0277
ENCODING 631
SWIDTH 690 0
DWIDTH 21 0
BBX 19 17 1 0
BITMAP
07F800
180600
200180
400040
800040
800020
800020
804020
804020
804020
804020
804020
804020
80C040
40A040
211080
1E0F00
ENDCHAR
STARTCHAR uni0278
ENCODING 632
SWIDTH 514 0
DWIDTH 15 0
BBX 11 28 2 -6
BITMAP
0400
0400
0400
0400
0400
0600
1D00
2480
4440
4420
8420
8420
8420
8420
8420
8420
8420
4420
4420
4440
2480
1D00
0600
0400
0400
0400
0400
0400
ENDCHAR
STARTCHAR uni0279
ENCODING 633
SWIDTH 325 0
DWIDTH 10 0
BBX 6 17 1 0
BITMAP
04
04
04
04
04
04
04
04
04
04
04
04
04
04
0C
14
E4
ENDCHAR
STARTCHAR uni027A
ENCODING 634
SWIDTH 321 0
DWIDTH 10 0
BBX 6 23 2 0
BITMAP
04
04
04
04
04
04
04
04
04
04
04
04
04
04
04
04
04
04
04
04
0C
14
E4
ENDCHAR
STARTCHAR uni027B
ENCODING 635
SWIDTH 313 0
DWIDTH 9 0
BBX 9 23 1 -6
BITMAP
0400
0400
0400
0400
0400
0400
0400
0400
0400
0400
0400
0400
0400
0400
0C00
1400
E400
0400
0400
0400
0400
0200
0380
ENDCHAR
STARTCHAR uni027C
ENCODING 636
SWIDTH 362 0
DWIDTH 11 0
BBX 7 23 3 -6
BITMAP
9E
A0
C0
80
80
80
80
80
80
80
80
80
80
80
80
80
80
80
80
80
80
80
80
ENDCHAR
STARTCHAR uni027D
ENCODING 637
SWIDTH 362 0
DWIDTH 11 0
BBX 7 23 3 -6
BITMAP
9E
A0
C0
80
80
80
80
80
80
80
80
80
80
80
80
80
80
80
80
80
80
80
70
ENDCHAR
STARTCHAR uni027E
ENCODING 638
SWIDTH 233 0
DWIDTH 7 0
BBX 4 17 3 0
BITMAP
70
80
80
80
80
80
80
80
80
80
80
80
80
80
80
80
80
ENDCHAR
STARTCHAR uni027F
ENCODING 639
SWIDTH 223 0
DWIDTH 7 0
BBX 4 23 0 -6
BITMAP
E0
10
10
10
10
10
10
10
10
10
10
10
10
10
10
10
10
10
10
10
10
10
10
ENDCHAR
STARTCHAR uni0280
ENCODING 640
SWIDTH 588 0
DWIDTH 18 0
BBX 13 16 2 0
BITMAP
FF80
8060
8010
8010
8010
8010
8010
8020
FFC0
8080
8040
8040
8020
8010
8010
8008
ENDCHAR
STARTCHAR uni0281
ENCODING 641
SWIDTH 588 0
DWIDTH 18 0
BBX 13 16 2 0
BITMAP
8008
8010
8010
8020
8040
8040
8080
FF80
8060
8010
8010
8010
8010
8010
8020
FFC0
ENDCHAR
STARTCHAR uni0282
ENCODING 642
SWIDTH 492 0
DWIDTH 15 0
BBX 11 21 2 -4
BITMAP
1F00
2080
4040
4020
8000
4000
4000
3000
0F00
0080
0040
0020
0020
8020
8040
E0C0
9F00
8000
8000
8000
7000
ENDCHAR
STARTCHAR uni0283
ENCODING 643
SWIDTH 386 0
DWIDTH 12 0
BBX 10 30 1 -6
BITMAP
03C0
0400
0400
0800
0800
0800
0800
0800
0800
0800
0800
0800
0800
0800
0800
0800
0800
0800
0800
0800
0800
0800
0800
0800
0800
0800
0800
0800
1000
E000
ENDCHAR
STARTCHAR uni0284
ENCODING 644
SWIDTH 386 0
DWIDTH 12 0
BBX 10 30 1 -6
BITMAP
03C0
0400
0400
0800
0800
0800
0800
0800
0800
0800
0800
0800
0800
0800
0800
0800
0800
0800
0800
0800
0800
0800
7F80
0800
0800
0800
0800
0800
1000
E000
ENDCHAR
STARTCHAR uni0285
ENCODING 645
SWIDTH 384 0
DWIDTH 12 0
BBX 10 23 1 -6
BITMAP
E000
1000
0800
0800
0800
0800
0800
0800
0800
0800
0800
0800
0800
0800
0800
0800
0800
0800
0800
0800
0800
0400
03C0
ENDCHAR
STARTCHAR uni0286
ENCODING 646
SWIDTH 522 0
DWIDTH 16 0
BBX 12 30 2 -6
BITMAP
0070
0080
0100
0100
0100
0100
0100
0100
0100
0100
0100
0100
0100
0100
0100
0100
0100
0100
0100
0100
0100
0100
0100
3900
4700
8100
8100
8280
4240
3C40
ENDCHAR
STARTCHAR uni0287
ENCODING 647
SWIDTH 348 0
DWIDTH 10 0
BBX 8 21 1 -4
BITMAP
F0
08
08
04
04
04
04
04
04
04
04
04
04
04
04
04
7F
04
04
04
04
ENDCHAR
STARTCHAR uni0288
ENCODING 648
SWIDTH 348 0
DWIDTH 10 0
BBX 7 28 2 -6
BITMAP
20
20
20
20
20
FC
20
20
20
20
20
20
20
20
20
20
20
20
20
20
20
20
20
20
20
20
10
0E
ENDCHAR
STARTCHAR uni0289
ENCODING 649
SWIDTH 558 0
DWIDTH 17 0
BBX 17 17 0 0
BITMAP
100200
100200
100200
100200
100200
100200
100200
FFFF80
100200
100200
100200
100200
100200
100400
080400
041A00
03E200
ENDCHAR
STARTCHAR uni028A
ENCODING 650
SWIDTH 589 0
DWIDTH 18 0
BBX 15 17 1 0
BITMAP
E006
1008
1010
1010
1008
2008
2004
4004
4002
4002
4002
4002
4002
4004
2004
1018
0FE0
ENDCHAR
STARTCHAR uni028B
ENCODING 651
SWIDTH 481 0
DWIDTH 14 0
BBX 10 17 2 0
BITMAP
83C0
8040
8040
8040
8040
8040
8040
8040
8040
8040
8040
8040
8040
4040
4080
2080
1F00
ENDCHAR
STARTCHAR uni028C
ENCODING 652
SWIDTH 522 0
DWIDTH 16 0
BBX 12 17 2 0
BITMAP
0400
0600
0A00
0900
0900
1100
1080
1080
2080
2040
2040
4040
4020
4020
8020
8010
8010
ENDCHAR
STARTCHAR uni028D
ENCODING 653
SWIDTH 789 0
DWIDTH 24 0
BBX 20 17 2 0
BITMAP
080200
0C0300
0C0500
140500
120480
120480
220880
210840
210840
211040
411040
409020
409020
80A020
806010
806010
804010
ENDCHAR
STARTCHAR uni028E
ENCODING 654
SWIDTH 522 0
DWIDTH 16 0
BBX 12 22 2 0
BITMAP
00F0
0100
0100
0200
0200
0400
0400
0600
0A00
0900
0900
1100
1080
2080
2040
2040
4040
4020
4020
8020
8010
8010
ENDCHAR
STARTCHAR uni028F
ENCODING 655
SWIDTH 509 0
DWIDTH 15 0
BBX 14 16 1 0
BITMAP
8004
8008
4010
2010
2020
1040
0840
0880
0500
0300
0200
0200
0200
0200
0200
0200
ENDCHAR
STARTCHAR uni0290
ENCODING 656
SWIDTH 539 0
DWIDTH 16 0
BBX 14 23 2 -6
BITMAP
7FE0
0020
0040
0080
0080
0100
0200
0200
0400
0800
0800
1000
1000
2000
4000
4000
FFE0
0010
0010
0010
0010
0010
000C
ENDCHAR
STARTCHAR uni0291
ENCODING 657
SWIDTH 561 0
DWIDTH 17 0
BBX 14 19 2 -2
BITMAP
7FE0
0020
0040
0080
0080
0100
0200
0200
0400
0800
0870
1188
1204
2204
4404
4804
FFF8
1000
3000
ENDCHAR
STARTCHAR uni0292
ENCODING 658
SWIDTH 599 0
DWIDTH 18 0
BBX 13 23 2 -6
BITMAP
7FF8
0010
0020
0020
0040
0080
0100
0100
0200
0400
07C0
0020
0010
0008
0008
0008
0008
8008
8008
4008
4010
3020
0FC0
ENDCHAR
STARTCHAR uni0293
ENCODING 659
SWIDTH 592 0
DWIDTH 18 0
BBX 13 23 2 -6
BITMAP
7FF8
0010
0020
0040
0080
0080
0100
0200
0400
0780
0060
0010
0008
0008
0008
3C08
4308
4088
8048
8030
4030
60C8
1F00
ENDCHAR
STARTCHAR uni0294
ENCODING 660
SWIDTH 502 0
DWIDTH 15 0
BBX 13 22 1 0
BITMAP
0FC0
3020
4010
4010
8008
0008
0008
0008
0008
0008
0008
0010
0010
0060
0780
0400
0400
0400
0400
0400
0400
0400
ENDCHAR
STARTCHAR uni0295
ENCODING 661
SWIDTH 502 0
DWIDTH 15 0
BBX 13 22 1 0
BITMAP
1F80
2060
4010
4010
8008
8000
8000
8000
8000
8000
8000
4000
4000
3000
0700
0100
0100
0100
0100
0100
0100
0100
ENDCHAR
STARTCHAR uni0296
ENCODING 662
SWIDTH 502 0
DWIDTH 15 0
BBX 13 22 1 0
BITMAP
0400
0400
0400
0400
0400
0400
0700
0060
0010
0010
0008
0008
0008
0008
0008
0008
8008
8008
4010
4010
3020
0FC0
ENDCHAR
STARTCHAR uni0297
ENCODING 663
SWIDTH 495 0
DWIDTH 15 0
BBX 13 23 1 -6
BITMAP
0F80
1060
2010
4010
4008
8000
8000
8000
8000
8000
8000
8000
8000
8000
8000
8000
8000
8000
4008
4010
2010
1020
0F80
ENDCHAR
STARTCHAR uni0298
ENCODING 664
SWIDTH 747 0
DWIDTH 22 0
BBX 18 22 2 0
BITMAP
03F000
0C0C00
100200
200100
200080
400080
400040
800040
800040
800040
80C040
804040
800040
800040
800040
400040
400080
200080
200100
100200
0C0C00
03F000
ENDCHAR
STARTCHAR uni0299
ENCODING 665
SWIDTH 549 0
DWIDTH 16 0
BBX 12 17 3 0
BITMAP
FF80
8040
8020
8020
8020
8020
8020
8040
FF80
8040
8020
8010
8010
8010
8020
8040
FF80
ENDCHAR
STARTCHAR uni029A
ENCODING 666
SWIDTH 494 0
DWIDTH 15 0
BBX 13 17 1 0
BITMAP
1F80
2040
4020
4010
4010
4010
4008
2008
1F08
3008
4008
8010
8010
8010
4020
2040
1F80
ENDCHAR
STARTCHAR uni029B
ENCODING 667
SWIDTH 546 0
DWIDTH 16 0
BBX 16 17 2 0
BITMAP
0FC3
1024
6018
4008
8008
8000
8000
8000
8000
81F8
8008
8008
8008
4008
4008
3030
0FC0
ENDCHAR
STARTCHAR uni029C
ENCODING 668
SWIDTH 583 0
DWIDTH 18 0
BBX 12 17 3 0
BITMAP
8010
8010
8010
8010
8010
8010
8010
8010
FFF0
8010
8010
8010
8010
8010
8010
8010
8010
ENDCHAR
STARTCHAR uni029D
ENCODING 669
SWIDTH 221 0
DWIDTH 7 0
BBX 9 27 -2 -6
BITMAP
0200
0000
0000
0000
0200
0200
0200
0200
0200
0200
0200
0200
0200
0200
0200
0200
0200
0200
0200
0200
3F80
4200
8200
8200
8200
4400
3800
ENDCHAR
STARTCHAR uni029E
ENCODING 670
SWIDTH 487 0
DWIDTH 15 0
BBX 11 22 1 -5
BITMAP
8020
4020
2020
1020
1020
0820
0420
0220
0260
01A0
0120
0220
0420
0820
1020
2020
C020
0020
0020
0020
0020
0020
ENDCHAR
STARTCHAR uni029F
ENCODING 671
SWIDTH 415 0
DWIDTH 12 0
BBX 9 16 2 0
BITMAP
8000
8000
8000
8000
8000
8000
8000
8000
8000
8000
8000
8000
8000
8000
8000
FF80
ENDCHAR
STARTCHAR uni02A0
ENCODING 672
SWIDTH 605 0
DWIDTH 18 0
BBX 16 27 2 -6
BITMAP
0007
0008
0008
0008
0F88
3048
2028
4028
8018
8018
8008
8008
8008
8008
8008
8018
8018
4018
2028
3048
0F08
0008
0008
0008
0008
0008
0008
ENDCHAR
STARTCHAR uni02A1
ENCODING 673
SWIDTH 502 0
DWIDTH 15 0
BBX 13 22 1 0
BITMAP
0FC0
3020
4010
4010
8008
0008
0008
0008
0008
0008
0008
0010
0010
0060
0780
0400
0400
0400
7FC0
0400
0400
0400
ENDCHAR
STARTCHAR uni02A2
ENCODING 674
SWIDTH 502 0
DWIDTH 15 0
BBX 13 22 1 0
BITMAP
1F80
2060
4010
4010
8008
8000
8000
8000
8000
8000
8000
4000
4000
3000
0700
0100
0100
0100
1FF0
0100
0100
0100
ENDCHAR
STARTCHAR uni02A3
ENCODING 675
SWIDTH 981 0
DWIDTH 29 0
BBX 26 22 2 0
BITMAP
00080000
00080000
00080000
00080000
00080000
0F8FFF80
30480080
20280100
40280200
80180200
80180400
80080400
80080800
80081000
80081000
80082000
80184000
80184000
40188000
20288000
30490000
0F8BFFC0
ENDCHAR
STARTCHAR uni02A4
ENCODING 676
SWIDTH 903 0
DWIDTH 27 0
BBX 25 28 1 -6
BITMAP
00080000
00080000
00080000
00080000
00080000
0F8FFE00
10680400
20380400
40180800
40080800
40081000
80082000
80082000
80084000
80088000
8008F000
40080C00
40080300
40180100
20280080
10480080
0F880080
00000080
00080080
00040100
00040100
00020600
0001F800
ENDCHAR
STARTCHAR uni02A5
ENCODING 677
SWIDTH 1035 0
DWIDTH 31 0
BBX 28 24 2 -2
BITMAP
00080000
00080000
00080000
00080000
00080000
0F8FFF80
30480080
20280100
40180100
80180200
80180400
80080400
80080800
80081000
80081000
800821E0
80184210
80184410
40188810
20289010
30491010
0F89FFE0
00004000
00004000
ENDCHAR
STARTCHAR uni02A6
ENCODING 678
SWIDTH 553 0
DWIDTH 17 0
BBX 15 21 1 0
BITMAP
2000
2000
2000
2000
FFF0
2208
2404
2402
2402
2400
2400
2300
20F0
2008
2004
2002
2002
2002
2002
2004
1FF8
ENDCHAR
STARTCHAR uni02A7
ENCODING 679
SWIDTH 336 0
DWIDTH 10 0
BBX 11 30 0 -6
BITMAP
00E0
0100
0200
0200
2400
2400
2400
2400
FC00
2400
2400
2400
2400
2400
2400
2400
2400
2400
2400
2400
2400
2400
2400
1C00
0400
0400
0400
0400
0400
7800
ENDCHAR
STARTCHAR uni02A8
ENCODING 680
SWIDTH 811 0
DWIDTH 24 0
BBX 20 21 2 0
BITMAP
200000
200000
200000
200000
FC0F80
201060
202010
204010
208010
208000
208000
208000
208000
208380
208C60
209020
209010
206010
206020
109060
0F0F80
ENDCHAR
STARTCHAR uni02A9
ENCODING 681
SWIDTH 726 0
DWIDTH 22 0
BBX 18 30 2 -6
BITMAP
0E0000
100000
200000
200000
200000
200000
200000
FE3E00
22C100
210080
210040
220040
220040
220040
220040
220040
220040
220040
220040
220040
220040
220040
220040
220040
000040
000040
000040
000040
000080
000380
ENDCHAR
STARTCHAR uni02AA
ENCODING 682
SWIDTH 499 0
DWIDTH 15 0
BBX 13 22 1 0
BITMAP
8000
8000
8000
8000
8000
87C0
8820
9010
A008
A000
A000
9000
8C00
83C0
8020
8010
8008
8008
8008
C010
A030
9FC0
ENDCHAR
STARTCHAR uni02AB
ENCODING 683
SWIDTH 612 0
DWIDTH 18 0
BBX 14 22 3 0
BITMAP
8000
8000
8000
8000
8000
FFFC
8008
8008
8010
8020
8020
8040
8080
8080
8100
8100
8200
8400
8400
8800
9000
9FFC
ENDCHAR
STARTCHAR uni02AC
ENCODING 684
SWIDTH 303 0
DWIDTH 9 0
BBX 11 22 -1 0
BITMAP
8420
4420
4A40
4A40
4A40
2980
3180
3180
1080
0000
0000
0000
0000
8420
8420
4A40
4A40
4A40
2A40
3180
3180
1180
ENDCHAR
STARTCHAR uni02AD
ENCODING 685
SWIDTH 580 0
DWIDTH 17 0
BBX 11 22 3 0
BITMAP
FFE0
8020
8020
8020
8020
8020
8020
8020
8020
0000
0000
0000
0000
FFE0
8020
8020
8020
8020
8020
8020
8020
8020
ENDCHAR
STARTCHAR uni02AE
ENCODING 686
SWIDTH 639 0
DWIDTH 19 0
BBX 14 23 2 -6
BITMAP
E004
2004
1004
1004
1004
1004
1004
1004
1004
1004
1004
1004
1004
1004
080C
041C
03E4
0004
0004
0004
0004
0004
0004
ENDCHAR
STARTCHAR uni02AF
ENCODING 687
SWIDTH 643 0
DWIDTH 19 0
BBX 17 23 2 -6
BITMAP
E00400
200400
100400
100400
100400
100400
100400
100400
100400
100400
100400
100400
100400
100400
080C00
041C00
03E400
000400
000400
000400
000400
000200
000380
ENDCHAR
STARTCHAR uni02B0
ENCODING 688
SWIDTH 382 0
DWIDTH 11 0
BBX 8 14 2 11
BITMAP
80
80
80
BC
C2
81
81
81
81
81
81
81
81
81
ENDCHAR
STARTCHAR uni02B1
ENCODING 689
SWIDTH 391 0
DWIDTH 12 0
BBX 8 17 2 10
BITMAP
60
80
80
80
80
BC
C2
81
81
81
81
81
81
81
81
81
81
ENDCHAR
STARTCHAR uni02B2
ENCODING 690
SWIDTH 149 0
DWIDTH 4 0
BBX 3 18 0 7
BITMAP
20
00
00
20
20
20
20
20
20
20
20
20
20
20
20
20
40
C0
ENDCHAR
STARTCHAR uni02B3
ENCODING 691
SWIDTH 244 0
DWIDTH 7 0
BBX 5 11 2 11
BITMAP
B8
C0
80
80
80
80
80
80
80
80
80
ENDCHAR
STARTCHAR uni02B4
ENCODING 692
SWIDTH 217 0
DWIDTH 7 0
BBX 5 12 1 9
BITMAP
08
08
08
08
08
08
08
08
08
18
18
E8
ENDCHAR
STARTCHAR uni02B5
ENCODING 693
SWIDTH 336 0
DWIDTH 10 0
BBX 6 17 2 5
BITMAP
10
10
10
10
10
10
10
10
10
10
30
D0
10
10
10
08
0C
ENDCHAR
STARTCHAR uni02B6
ENCODING 694
SWIDTH 415 0
DWIDTH 12 0
BBX 10 12 1 9
BITMAP
8040
8080
8100
8200
FE00
8100
8080
8080
8080
8080
8100
FE00
ENDCHAR
STARTCHAR uni02B7
ENCODING 695
SWIDTH 529 0
DWIDTH 16 0
BBX 14 11 1 11
BITMAP
8204
8304
4308
4508
4488
4490
2490
2850
2850
1060
1020
ENDCHAR
STARTCHAR uni02B8
ENCODING 696
SWIDTH 352 0
DWIDTH 11 0
BBX 9 15 1 7
BITMAP
8080
8100
4100
4200
4200
2200
2400
1400
1400
1800
0800
0800
1000
1000
E000
ENDCHAR
STARTCHAR uni02B9
ENCODING 697
SWIDTH 198 0
DWIDTH 6 0
BBX 1 7 2 15
BITMAP
80
80
80
80
80
80
80
ENDCHAR
STARTCHAR uni02BA
ENCODING 698
SWIDTH 296 0
DWIDTH 9 0
BBX 3 7 3 15
BITMAP
A0
A0
A0
A0
A0
A0
A0
ENDCHAR
STARTCHAR uni02BB
ENCODING 699
SWIDTH 237 0
DWIDTH 7 0
BBX 3 8 2 15
BITMAP
20
40
40
80
80
80
80
80
ENDCHAR
STARTCHAR uni02BC
ENCODING 700
SWIDTH 208 0
DWIDTH 6 0
BBX 3 7 1 15
BITMAP
20
20
20
20
40
40
80
ENDCHAR
STARTCHAR uni02BD
ENCODING 701
SWIDTH 257 0
DWIDTH 8 0
BBX 2 9 3 15
BITMAP
80
80
80
80
80
80
40
40
40
ENDCHAR
STARTCHAR uni02BE
ENCODING 702
SWIDTH 150 0
DWIDTH 5 0
BBX 3 6 0 17
BITMAP
C0
20
20
20
20
C0
ENDCHAR
STARTCHAR uni02BF
ENCODING 703
SWIDTH 150 0
DWIDTH 5 0
BBX 3 6 1 17
BITMAP
20
40
80
80
40
20
ENDCHAR
STARTCHAR uni02C0
ENCODING 704
SWIDTH 362 0
DWIDTH 11 0
BBX 8 17 1 10
BITMAP
1E
21
41
81
01
01
01
01
01
01
01
0E
08
08
08
08
08
ENDCHAR
STARTCHAR uni02C1
ENCODING 705
SWIDTH 362 0
DWIDTH 11 0
BBX 8 17 1 10
BITMAP
3C
42
41
81
80
80
80
80
80
40
40
30
08
08
08
08
08
ENDCHAR
STARTCHAR uni02C2
ENCODING 706
SWIDTH 448 0
DWIDTH 13 0
BBX 10 10 2 9
BITMAP
00C0
0300
0C00
3000
C000
C000
3000
0E00
0180
0040
ENDCHAR
STARTCHAR uni02C3
ENCODING 707
SWIDTH 448 0
DWIDTH 13 0
BBX 10 10 2 9
BITMAP
C000
3000
0C00
0300
00C0
00C0
0300
0C00
7000
8000
ENDCHAR
STARTCHAR uni02C4
ENCODING 708
SWIDTH 415 0
DWIDTH 12 0
BBX 10 11 1 9
BITMAP
0400
0C00
0A00
1200
1100
2100
2100
2080
4080
4040
8040
ENDCHAR
STARTCHAR uni02C5
ENCODING 709
SWIDTH 415 0
DWIDTH 12 0
BBX 10 11 1 9
BITMAP
8040
8040
4040
4080
2080
2100
1100
1200
0A00
0C00
0400
ENDCHAR
STARTCHAR uni02C6
ENCODING 710
SWIDTH 420 0
DWIDTH 13 0
BBX 8 4 2 18
BITMAP
08
14
22
C1
ENDCHAR
STARTCHAR uni02C7
ENCODING 711
SWIDTH 420 0
DWIDTH 13 0
BBX 8 4 2 19
BITMAP
C1
22
14
08
ENDCHAR
STARTCHAR uni02C8
ENCODING 712
SWIDTH 119 0
DWIDTH 4 0
BBX 1 6 1 17
BITMAP
80
80
80
80
80
80
ENDCHAR
STARTCHAR uni02C9
ENCODING 713
SWIDTH 332 0
DWIDTH 10 0
BBX 7 1 -1 20
BITMAP
FE
ENDCHAR
STARTCHAR uni02CA
ENCODING 714
SWIDTH 328 0
DWIDTH 10 0
BBX 4 5 7 19
BITMAP
10
10
20
40
C0
ENDCHAR
STARTCHAR uni02CB
ENCODING 715
SWIDTH 327 0
DWIDTH 10 0
BBX 4 5 8 19
BITMAP
80
80
40
20
30
ENDCHAR
STARTCHAR uni02CC
ENCODING 716
SWIDTH 119 0
DWIDTH 4 0
BBX 1 6 1 -7
BITMAP
80
80
80
80
80
80
ENDCHAR
STARTCHAR uni02CD
ENCODING 717
SWIDTH 412 0
DWIDTH 12 0
BBX 6 1 1 -4
BITMAP
FC
ENDCHAR
STARTCHAR uni02CE
ENCODING 718
SWIDTH 327 0
DWIDTH 10 0
BBX 4 5 8 -5
BITMAP
80
80
40
20
30
ENDCHAR
STARTCHAR uni02CF
ENCODING 719
SWIDTH 328 0
DWIDTH 10 0
BBX 4 5 7 -5
BITMAP
10
10
20
40
C0
ENDCHAR
STARTCHAR uni02D0
ENCODING 720
SWIDTH 237 0
DWIDTH 7 0
BBX 3 16 2 0
BITMAP
E0
40
40
00
00
00
00
00
00
00
00
00
00
40
40
E0
ENDCHAR
STARTCHAR uni02D1
ENCODING 721
SWIDTH 237 0
DWIDTH 7 0
BBX 3 3 2 13
BITMAP
E0
40
40
ENDCHAR
STARTCHAR uni02D2
ENCODING 722
SWIDTH 150 0
DWIDTH 5 0
BBX 3 6 0 6
BITMAP
C0
20
20
20
20
C0
ENDCHAR
STARTCHAR uni02D3
ENCODING 723
SWIDTH 150 0
DWIDTH 5 0
BBX 3 6 1 6
BITMAP
20
40
80
80
40
20
ENDCHAR
STARTCHAR uni02D4
ENCODING 724
SWIDTH 324 0
DWIDTH 10 0
BBX 4 5 3 3
BITMAP
40
40
40
40
F0
ENDCHAR
STARTCHAR uni02D5
ENCODING 725
SWIDTH 325 0
DWIDTH 10 0
BBX 4 5 3 3
BITMAP
F0
40
40
40
40
ENDCHAR
STARTCHAR uni02D6
ENCODING 726
SWIDTH 324 0
DWIDTH 10 0
BBX 4 5 3 3
BITMAP
40
40
F0
40
40
ENDCHAR
STARTCHAR uni02D7
ENCODING 727
SWIDTH 162 0
DWIDTH 5 0
BBX 5 1 0 5
BITMAP
F8
ENDCHAR
STARTCHAR uni02D8
ENCODING 728
SWIDTH 414 0
DWIDTH 12 0
BBX 5 3 4 20
BITMAP
88
88
70
ENDCHAR
STARTCHAR uni02D9
ENCODING 729
SWIDTH 181 0
DWIDTH 5 0
BBX 1 1 2 20
BITMAP
80
ENDCHAR
STARTCHAR uni02DA
ENCODING 730
SWIDTH 238 0
DWIDTH 7 0
BBX 5 5 1 19
BITMAP
70
88
88
88
70
ENDCHAR
STARTCHAR uni02DB
ENCODING 731
SWIDTH 240 0
DWIDTH 7 0
BBX 4 7 1 -7
BITMAP
20
40
80
80
80
80
70
ENDCHAR
STARTCHAR uni02DC
ENCODING 732
SWIDTH 497 0
DWIDTH 15 0
BBX 9 3 3 19
BITMAP
7080
8880
8700
ENDCHAR
STARTCHAR uni02DD
ENCODING 733
SWIDTH 275 0
DWIDTH 8 0
BBX 8 5 2 18
BITMAP
11
22
24
48
98
ENDCHAR
STARTCHAR uni02DE
ENCODING 734
SWIDTH 269 0
DWIDTH 8 0
BBX 8 4 0 6
BITMAP
F8
08
08
07
ENDCHAR
STARTCHAR uni02DF
ENCODING 735
SWIDTH 328 0
DWIDTH 10 0
BBX 6 6 2 17
BITMAP
84
48
30
30
48
84
ENDCHAR
STARTCHAR uni02E0
ENCODING 736
SWIDTH 375 0
DWIDTH 11 0
BBX 9 18 1 3
BITMAP
8080
4100
4100
4100
2200
2200
1200
1400
1400
0800
0800
0C00
1400
1400
1200
2200
1200
1C00
ENDCHAR
STARTCHAR uni02E1
ENCODING 737
SWIDTH 146 0
DWIDTH 4 0
BBX 1 14 2 11
BITMAP
80
80
80
80
80
80
80
80
80
80
80
80
80
80
ENDCHAR
STARTCHAR uni02E2
ENCODING 738
SWIDTH 330 0
DWIDTH 10 0
BBX 8 11 1 11
BITMAP
3C
42
41
40
60
1C
02
01
81
42
3C
ENDCHAR
STARTCHAR uni02E3
ENCODING 739
SWIDTH 335 0
DWIDTH 10 0
BBX 8 11 1 11
BITMAP
C1
42
24
24
18
08
18
24
22
42
81
ENDCHAR
STARTCHAR uni02E4
ENCODING 740
SWIDTH 387 0
DWIDTH 12 0
BBX 10 12 1 10
BITMAP
3E00
4180
8080
8040
8000
8000
8000
8000
4000
3800
0800
0800
ENDCHAR
STARTCHAR uni02E5
ENCODING 741
SWIDTH 329 0
DWIDTH 10 0
BBX 4 22 3 0
BITMAP
F0
10
10
10
10
10
10
10
10
10
10
10
10
10
10
10
10
10
10
10
10
10
ENDCHAR
STARTCHAR uni02E6
ENCODING 742
SWIDTH 329 0
DWIDTH 10 0
BBX 4 22 3 0
BITMAP
10
10
10
10
10
F0
10
10
10
10
10
10
10
10
10
10
10
10
10
10
10
10
ENDCHAR
STARTCHAR uni02E7
ENCODING 743
SWIDTH 329 0
DWIDTH 10 0
BBX 4 21 3 0
BITMAP
10
10
10
10
10
10
10
10
10
10
F0
10
10
10
10
10
10
10
10
10
10
ENDCHAR
STARTCHAR uni02E8
ENCODING 744
SWIDTH 329 0
DWIDTH 10 0
BBX 4 22 3 0
BITMAP
10
10
10
10
10
10
10
10
10
10
10
10
10
10
10
10
F0
10
10
10
10
10
ENDCHAR
STARTCHAR uni02E9
ENCODING 745
SWIDTH 329 0
DWIDTH 10 0
BBX 4 22 3 0
BITMAP
10
10
10
10
10
10
10
10
10
10
10
10
10
10
10
10
10
10
10
10
10
F0
ENDCHAR
STARTCHAR uni02EA
ENCODING 746
SWIDTH 250 0
DWIDTH 8 0
BBX 6 14 1 0
BITMAP
80
80
80
80
80
80
80
80
80
80
80
80
80
FC
ENDCHAR
STARTCHAR uni02EB
ENCODING 747
SWIDTH 251 0
DWIDTH 8 0
BBX 5 13 1 0
BITMAP
80
80
80
80
80
80
F8
80
80
80
80
80
80
ENDCHAR
STARTCHAR uni02EC
ENCODING 748
SWIDTH 338 0
DWIDTH 10 0
BBX 6 4 2 -6
BITMAP
84
48
28
30
ENDCHAR
STARTCHAR uni02ED
ENCODING 749
SWIDTH 412 0
DWIDTH 12 0
BBX 9 4 2 18
BITMAP
FF80
0000
0000
FF80
ENDCHAR
STARTCHAR uni02EE
ENCODING 750
SWIDTH 412 0
DWIDTH 12 0
BBX 8 9 2 14
BITMAP
21
21
21
21
21
22
42
84
88
ENDCHAR
STARTCHAR uni02EF
ENCODING 751
SWIDTH 326 0
DWIDTH 10 0
BBX 7 7 1 -8
BITMAP
82
42
44
24
24
18
18
ENDCHAR
STARTCHAR uni02F0
ENCODING 752
SWIDTH 326 0
DWIDTH 10 0
BBX 6 7 2 -8
BITMAP
20
30
30
48
48
88
84
ENDCHAR
STARTCHAR uni02F1
ENCODING 753
SWIDTH 326 0
DWIDTH 10 0
BBX 7 5 1 -7
BITMAP
06
38
C0
30
0E
ENDCHAR
STARTCHAR uni02F2
ENCODING 754
SWIDTH 326 0
DWIDTH 10 0
BBX 7 5 1 -7
BITMAP
E0
1C
02
1C
E0
ENDCHAR
STARTCHAR uni02F3
ENCODING 755
SWIDTH 161 0
DWIDTH 5 0
BBX 5 5 0 -7
BITMAP
70
88
88
88
70
ENDCHAR
STARTCHAR uni02F4
ENCODING 756
SWIDTH 327 0
DWIDTH 10 0
BBX 4 5 8 4
BITMAP
80
80
40
20
30
ENDCHAR
STARTCHAR uni02F5
ENCODING 757
SWIDTH 394 0
DWIDTH 12 0
BBX 6 5 3 15
BITMAP
90
50
48
28
14
ENDCHAR
STARTCHAR uni02F6
ENCODING 758
SWIDTH 386 0
DWIDTH 12 0
BBX 6 5 3 15
BITMAP
14
28
48
50
A0
ENDCHAR
STARTCHAR uni02F7
ENCODING 759
SWIDTH 415 0
DWIDTH 12 0
BBX 10 3 1 -7
BITMAP
3840
4440
8380
ENDCHAR
STARTCHAR uni02F8
ENCODING 760
SWIDTH 75 0
DWIDTH 2 0
BBX 2 16 0 6
BITMAP
40
C0
00
00
00
00
00
00
00
00
00
00
00
00
C0
C0
ENDCHAR
STARTCHAR uni02F9
ENCODING 761
SWIDTH 158 0
DWIDTH 5 0
BBX 5 5 0 18
BITMAP
F8
80
80
80
80
ENDCHAR
STARTCHAR uni02FA
ENCODING 762
SWIDTH 215 0
DWIDTH 6 0
BBX 4 5 1 18
BITMAP
F0
10
10
10
10
ENDCHAR
STARTCHAR uni02FB
ENCODING 763
SWIDTH 215 0
DWIDTH 6 0
BBX 4 5 1 -6
BITMAP
80
80
80
80
F0
ENDCHAR
STARTCHAR uni02FC
ENCODING 764
SWIDTH 158 0
DWIDTH 5 0
BBX 5 5 0 -6
BITMAP
08
08
08
08
F8
ENDCHAR
STARTCHAR uni02FD
ENCODING 765
SWIDTH 414 0
DWIDTH 12 0
BBX 7 5 3 -7
BITMAP
82
82
82
82
FE
ENDCHAR
STARTCHAR uni02FE
ENCODING 766
SWIDTH 411 0
DWIDTH 12 0
BBX 10 6 1 -8
BITMAP
8000
8000
8000
8000
8000
FFC0
ENDCHAR
STARTCHAR uni02FF
ENCODING 767
SWIDTH 333 0
DWIDTH 10 0
BBX 12 9 -1 -6
BITMAP
0C00
1000
2000
4000
FFF0
4000
2000
1000
0C00
ENDCHAR
STARTCHAR uni0300
ENCODING 768
SWIDTH 0 0
DWIDTH 0 0
BBX 4 4 -10 19
BITMAP
80
40
20
10
ENDCHAR
STARTCHAR uni0301
ENCODING 769
SWIDTH 0 0
DWIDTH 0 0
BBX 4 5 -3 19
BITMAP
10
20
20
40
80
ENDCHAR
STARTCHAR uni0302
ENCODING 770
SWIDTH 0 0
DWIDTH 0 0
BBX 8 4 -11 18
BITMAP
18
24
44
83
ENDCHAR
STARTCHAR uni0303
ENCODING 771
SWIDTH 0 0
DWIDTH 0 0
BBX 10 3 -11 19
BITMAP
3840
4440
8380
ENDCHAR
STARTCHAR uni0304
ENCODING 772
SWIDTH 0 0
DWIDTH 0 0
BBX 6 1 -12 20
BITMAP
FC
ENDCHAR
STARTCHAR uni0305
ENCODING 773
SWIDTH 0 0
DWIDTH 0 0
BBX 13 1 -15 24
BITMAP
FFF8
ENDCHAR
STARTCHAR uni0306
ENCODING 774
SWIDTH 0 0
DWIDTH 0 0
BBX 5 3 -10 20
BITMAP
88
88
70
ENDCHAR
STARTCHAR uni0307
ENCODING 775
SWIDTH 0 0
DWIDTH 0 0
BBX 2 1 -9 20
BITMAP
C0
ENDCHAR
STARTCHAR uni0308
ENCODING 776
SWIDTH 0 0
DWIDTH 0 0
BBX 5 1 -10 20
BITMAP
88
ENDCHAR
STARTCHAR uni0309
ENCODING 777
SWIDTH 0 0
DWIDTH 0 0
BBX 3 7 -8 18
BITMAP
C0
20
20
20
20
C0
80
ENDCHAR
STARTCHAR uni030A
ENCODING 778
SWIDTH 0 0
DWIDTH 0 0
BBX 5 5 -12 20
BITMAP
30
48
88
48
30
ENDCHAR
STARTCHAR uni030B
ENCODING 779
SWIDTH 0 0
DWIDTH 0 0
BBX 6 5 -5 19
BITMAP
14
24
28
50
B0
ENDCHAR
STARTCHAR uni030C
ENCODING 780
SWIDTH 0 0
DWIDTH 0 0
BBX 8 3 -13 19
BITMAP
C1
26
18
ENDCHAR
STARTCHAR uni030D
ENCODING 781
SWIDTH 0 0
DWIDTH 0 0
BBX 1 6 -8 17
BITMAP
80
80
80
80
80
80
ENDCHAR
STARTCHAR uni030E
ENCODING 782
SWIDTH 0 0
DWIDTH 0 0
BBX 3 6 -9 17
BITMAP
A0
A0
A0
A0
A0
A0
ENDCHAR
STARTCHAR uni030F
ENCODING 783
SWIDTH 0 0
DWIDTH 0 0
BBX 7 5 -13 19
BITMAP
90
48
28
24
16
ENDCHAR
STARTCHAR uni0310
ENCODING 784
SWIDTH 0 0
DWIDTH 0 0
BBX 5 3 -10 20
BITMAP
20
88
70
ENDCHAR
STARTCHAR uni0311
ENCODING 785
SWIDTH 0 0
DWIDTH 0 0
BBX 5 3 -11 19
BITMAP
70
88
88
ENDCHAR
STARTCHAR uni0312
ENCODING 786
SWIDTH 0 0
DWIDTH 0 0
BBX 3 8 -8 15
BITMAP
60
40
80
80
80
80
80
80
ENDCHAR
STARTCHAR uni0313
ENCODING 787
SWIDTH 0 0
DWIDTH 0 0
BBX 3 8 -10 15
BITMAP
20
20
20
20
20
40
40
80
ENDCHAR
STARTCHAR uni0314
ENCODING 788
SWIDTH 0 0
DWIDTH 0 0
BBX 2 9 -8 15
BITMAP
80
80
80
80
40
40
40
40
40
ENDCHAR
STARTCHAR uni0315
ENCODING 789
SWIDTH 0 0
DWIDTH 0 0
BBX 3 8 -3 15
BITMAP
20
20
20
20
20
40
40
80
ENDCHAR
STARTCHAR uni0316
ENCODING 790
SWIDTH 0 0
DWIDTH 0 0
BBX 4 5 -6 -5
BITMAP
80
40
20
20
10
ENDCHAR
STARTCHAR uni0317
ENCODING 791
SWIDTH 0 0
DWIDTH 0 0
BBX 4 5 -5 -5
BITMAP
10
20
40
40
80
ENDCHAR
STARTCHAR uni0318
ENCODING 792
SWIDTH 0 0
DWIDTH 0 0
BBX 4 4 -10 -5
BITMAP
10
F0
10
10
ENDCHAR
STARTCHAR uni0319
ENCODING 793
SWIDTH 0 0
DWIDTH 0 0
BBX 5 4 -11 -5
BITMAP
80
F8
80
80
ENDCHAR
STARTCHAR uni031A
ENCODING 794
SWIDTH 0 0
DWIDTH 0 0
BBX 8 6 -8 19
BITMAP
FF
01
01
01
01
01
ENDCHAR
STARTCHAR uni031B
ENCODING 795
SWIDTH 0 0
DWIDTH 0 0
BBX 1 4 -3 15
BITMAP
80
80
80
80
ENDCHAR
STARTCHAR uni031C
ENCODING 796
SWIDTH 0 0
DWIDTH 0 0
BBX 3 6 -9 -7
BITMAP
60
80
80
80
80
60
ENDCHAR
STARTCHAR uni031D
ENCODING 797
SWIDTH 0 0
DWIDTH 0 0
BBX 5 5 -9 -6
BITMAP
20
20
20
20
F8
ENDCHAR
STARTCHAR uni031E
ENCODING 798
SWIDTH 0 0
DWIDTH 0 0
BBX 5 5 -11 -6
BITMAP
F8
20
20
20
20
ENDCHAR
STARTCHAR uni0321
ENCODING 801
SWIDTH 0 0
DWIDTH 0 0
BBX 3 8 -8 -7
BITMAP
20
20
20
20
20
20
20
C0
ENDCHAR
STARTCHAR uni0322
ENCODING 802
SWIDTH 0 0
DWIDTH 0 0
BBX 2 8 -3 -7
BITMAP
80
80
80
80
80
80
80
40
ENDCHAR
STARTCHAR uni0323
ENCODING 803
SWIDTH 0 0
DWIDTH 0 0
BBX 2 1 -9 -5
BITMAP
C0
ENDCHAR
STARTCHAR uni0324
ENCODING 804
SWIDTH 0 0
DWIDTH 0 0
BBX 6 1 -11 -5
BITMAP
84
ENDCHAR
STARTCHAR uni0325
ENCODING 805
SWIDTH 0 0
DWIDTH 0 0
BBX 4 5 -11 -7
BITMAP
60
90
90
90
60
ENDCHAR
STARTCHAR uni0326
ENCODING 806
SWIDTH 0 0
DWIDTH 0 0
BBX 2 5 -10 -7
BITMAP
40
40
40
80
80
ENDCHAR
STARTCHAR uni0327
ENCODING 807
SWIDTH 0 0
DWIDTH 0 0
BBX 3 6 -9 -6
BITMAP
80
60
20
20
20
40
ENDCHAR
STARTCHAR uni0328
ENCODING 808
SWIDTH 0 0
DWIDTH 0 0
BBX 4 7 -11 -7
BITMAP
20
40
80
80
80
80
70
ENDCHAR
STARTCHAR uni0329
ENCODING 809
SWIDTH 0 0
DWIDTH 0 0
BBX 1 6 -8 -7
BITMAP
80
80
80
80
80
80
ENDCHAR
STARTCHAR uni032A
ENCODING 810
SWIDTH 0 0
DWIDTH 0 0
BBX 7 5 -12 -6
BITMAP
FE
82
82
82
82
ENDCHAR
STARTCHAR uni032B
ENCODING 811
SWIDTH 0 0
DWIDTH 0 0
BBX 8 3 -12 -4
BITMAP
89
89
76
ENDCHAR
STARTCHAR uni032C
ENCODING 812
SWIDTH 0 0
DWIDTH 0 0
BBX 8 3 -12 -6
BITMAP
C1
22
1C
ENDCHAR
STARTCHAR uni032D
ENCODING 813
SWIDTH 0 0
DWIDTH 0 0
BBX 9 4 -12 -6
BITMAP
0800
1400
2200
C180
ENDCHAR
STARTCHAR uni032E
ENCODING 814
SWIDTH 0 0
DWIDTH 0 0
BBX 5 3 -10 -4
BITMAP
88
88
70
ENDCHAR
STARTCHAR uni032F
ENCODING 815
SWIDTH 0 0
DWIDTH 0 0
BBX 5 3 -10 -4
BITMAP
70
88
88
ENDCHAR
STARTCHAR uni0330
ENCODING 816
SWIDTH 0 0
DWIDTH 0 0
BBX 10 3 -12 -4
BITMAP
7040
8C80
8300
ENDCHAR
STARTCHAR uni0331
ENCODING 817
SWIDTH 0 0
DWIDTH 0 0
BBX 7 1 -12 -4
BITMAP
FE
ENDCHAR
STARTCHAR uni0332
ENCODING 818
SWIDTH 0 0
DWIDTH 0 0
BBX 13 1 -14 -3
BITMAP
FFF8
ENDCHAR
STARTCHAR uni0333
ENCODING 819
SWIDTH 0 0
DWIDTH 0 0
BBX 13 5 -14 -6
BITMAP
FFF8
0000
0000
0000
FFF8
ENDCHAR
STARTCHAR uni0334
ENCODING 820
SWIDTH 0 0
DWIDTH 0 0
BBX 10 3 -12 7
BITMAP
3040
4C40
8380
ENDCHAR
STARTCHAR uni0335
ENCODING 821
SWIDTH 0 0
DWIDTH 0 0
BBX 8 1 -12 8
BITMAP
FF
ENDCHAR
STARTCHAR uni0336
ENCODING 822
SWIDTH 0 0
DWIDTH 0 0
BBX 15 1 -15 8
BITMAP
FFFE
ENDCHAR
STARTCHAR uni0337
ENCODING 823
SWIDTH 0 0
DWIDTH 0 0
BBX 10 20 -13 -2
BITMAP
0040
0040
0080
0080
0100
0100
0200
0200
0400
0400
0800
0800
1000
1000
2000
2000
2000
4000
4000
8000
ENDCHAR
STARTCHAR uni0338
ENCODING 824
SWIDTH 0 0
DWIDTH 0 0
BBX 16 24 -15 -1
BITMAP
0001
0002
0004
0004
0008
0008
0010
0020
0020
0040
0080
0080
0100
0200
0200
0400
0400
0800
1000
1000
2000
4000
4000
8000
ENDCHAR
STARTCHAR uni0339
ENCODING 825
SWIDTH 0 0
DWIDTH 0 0
BBX 3 6 -9 -7
BITMAP
C0
20
20
20
20
C0
ENDCHAR
STARTCHAR uni033A
ENCODING 826
SWIDTH 0 0
DWIDTH 0 0
BBX 8 5 -11 -7
BITMAP
81
81
81
81
FF
ENDCHAR
STARTCHAR uni033B
ENCODING 827
SWIDTH 0 0
DWIDTH 0 0
BBX 5 6 -10 -7
BITMAP
F8
88
88
88
88
F8
ENDCHAR
STARTCHAR uni033C
ENCODING 828
SWIDTH 0 0
DWIDTH 0 0
BBX 9 3 -12 -5
BITMAP
7700
8880
8880
ENDCHAR
STARTCHAR uni033D
ENCODING 829
SWIDTH 0 0
DWIDTH 0 0
BBX 7 7 -9 18
BITMAP
C2
64
28
10
28
44
82
ENDCHAR
STARTCHAR uni033E
ENCODING 830
SWIDTH 0 0
DWIDTH 0 0
BBX 2 7 -9 17
BITMAP
40
80
80
80
40
40
C0
ENDCHAR
STARTCHAR uni033F
ENCODING 831
SWIDTH 0 0
DWIDTH 0 0
BBX 13 5 -14 22
BITMAP
FFF8
0000
0000
0000
FFF8
ENDCHAR
STARTCHAR uni0340
ENCODING 832
SWIDTH 0 0
DWIDTH 0 0
BBX 4 5 2 19
BITMAP
80
40
20
20
10
ENDCHAR
STARTCHAR uni0341
ENCODING 833
SWIDTH 0 0
DWIDTH 0 0
BBX 4 5 3 19
BITMAP
10
20
40
40
80
ENDCHAR
STARTCHAR uni0342
ENCODING 834
SWIDTH 0 0
DWIDTH 0 0
BBX 10 3 -12 19
BITMAP
3040
4C40
8380
ENDCHAR
STARTCHAR uni0343
ENCODING 835
SWIDTH 0 0
DWIDTH 0 0
BBX 2 6 -9 14
BITMAP
40
40
40
80
80
80
ENDCHAR
STARTCHAR uni0344
ENCODING 836
SWIDTH 0 0
DWIDTH 0 0
BBX 5 4 -9 20
BITMAP
20
20
20
88
ENDCHAR
STARTCHAR uni0345
ENCODING 837
SWIDTH 0 0
DWIDTH 0 0
BBX 2 6 -8 -7
BITMAP
80
80
80
80
80
C0
ENDCHAR
STARTCHAR uni0346
ENCODING 838
SWIDTH 0 0
DWIDTH 0 0
BBX 7 6 -12 18
BITMAP
FE
82
82
82
82
82
ENDCHAR
STARTCHAR uni0347
ENCODING 839
SWIDTH 0 0
DWIDTH 0 0
BBX 7 5 -12 -9
BITMAP
FE
00
00
00
FE
ENDCHAR
STARTCHAR uni0348
ENCODING 840
SWIDTH 0 0
DWIDTH 0 0
BBX 4 6 -9 -7
BITMAP
90
90
90
90
90
90
ENDCHAR
STARTCHAR uni0349
ENCODING 841
SWIDTH 0 0
DWIDTH 0 0
BBX 6 6 -11 -8
BITMAP
FC
04
04
04
04
04
ENDCHAR
STARTCHAR uni034A
ENCODING 842
SWIDTH 0 0
DWIDTH 0 0
BBX 10 5 -13 18
BITMAP
0200
3A40
4440
8B80
0800
ENDCHAR
STARTCHAR uni034B
ENCODING 843
SWIDTH 0 0
DWIDTH 0 0
BBX 9 7 -13 19
BITMAP
0800
0000
7080
8880
8700
0000
1800
ENDCHAR
STARTCHAR uni034C
ENCODING 844
SWIDTH 0 0
DWIDTH 0 0
BBX 10 5 -12 19
BITMAP
7840
8780
0000
7840
8780
ENDCHAR
STARTCHAR uni034D
ENCODING 845
SWIDTH 0 0
DWIDTH 0 0
BBX 9 7 -12 -8
BITMAP
3600
4100
8080
FF80
8080
4100
3600
ENDCHAR
STARTCHAR uni034E
ENCODING 846
SWIDTH 0 0
DWIDTH 0 0
BBX 8 7 -12 -8
BITMAP
08
18
2C
49
89
08
08
ENDCHAR
STARTCHAR uni034F
ENCODING 847
SWIDTH 0 0
DWIDTH 0 0
BBX 1 1 0 0
BITMAP
00
ENDCHAR
STARTCHAR uni0350
ENCODING 848
SWIDTH 0 0
DWIDTH 0 0
BBX 10 10 -12 19
BITMAP
8000
6000
1800
0700
0080
00C0
0300
0C00
3000
C000
ENDCHAR
STARTCHAR uni0351
ENCODING 849
SWIDTH 0 0
DWIDTH 0 0
BBX 2 5 -7 17
BITMAP
40
80
80
80
40
ENDCHAR
STARTCHAR uni0352
ENCODING 850
SWIDTH 0 0
DWIDTH 0 0
BBX 5 3 -10 20
BITMAP
70
88
A8
ENDCHAR
STARTCHAR uni0353
ENCODING 851
SWIDTH 0 0
DWIDTH 0 0
BBX 7 7 -9 -8
BITMAP
82
44
28
10
28
44
82
ENDCHAR
STARTCHAR uni0354
ENCODING 852
SWIDTH 0 0
DWIDTH 0 0
BBX 7 5 -9 -7
BITMAP
0E
70
80
70
0E
ENDCHAR
STARTCHAR uni0355
ENCODING 853
SWIDTH 0 0
DWIDTH 0 0
BBX 7 5 -8 -7
BITMAP
E0
1C
02
1C
E0
ENDCHAR
STARTCHAR uni0356
ENCODING 854
SWIDTH 0 0
DWIDTH 0 0
BBX 14 7 -11 -8
BITMAP
8020
6030
1C50
0248
1C48
6088
8084
ENDCHAR
STARTCHAR uni0357
ENCODING 855
SWIDTH 0 0
DWIDTH 0 0
BBX 3 6 -9 17
BITMAP
C0
20
20
20
20
80
ENDCHAR
STARTCHAR uni0358
ENCODING 856
SWIDTH 0 0
DWIDTH 0 0
BBX 1 1 1 19
BITMAP
80
ENDCHAR
STARTCHAR uni0359
ENCODING 857
SWIDTH 0 0
DWIDTH 0 0
BBX 6 6 -11 -7
BITMAP
10
10
D4
38
30
48
ENDCHAR
STARTCHAR uni035A
ENCODING 858
SWIDTH 0 0
DWIDTH 0 0
BBX 11 7 -13 -7
BITMAP
71C0
8A20
8420
8420
8420
8A20
71C0
ENDCHAR
STARTCHAR uni035B
ENCODING 859
SWIDTH 0 0
DWIDTH 0 0
BBX 4 7 -9 18
BITMAP
40
80
80
F0
10
20
20
ENDCHAR
STARTCHAR uni035C
ENCODING 860
SWIDTH 0 0
DWIDTH 0 0
BBX 19 4 -8 -5
BITMAP
800020
6000C0
180700
07F800
ENDCHAR
STARTCHAR uni035D
ENCODING 861
SWIDTH 0 0
DWIDTH 0 0
BBX 19 4 -9 19
BITMAP
800020
6000C0
1C0300
01FC00
ENDCHAR
STARTCHAR uni035E
ENCODING 862
SWIDTH 0 0
DWIDTH 0 0
BBX 18 1 -9 20
BITMAP
FFFFC0
ENDCHAR
STARTCHAR uni035F
ENCODING 863
SWIDTH 0 0
DWIDTH 0 0
BBX 18 1 -9 -4
BITMAP
FFFFC0
ENDCHAR
STARTCHAR uni0360
ENCODING 864
SWIDTH 0 0
DWIDTH 0 0
BBX 24 3 -11 19
BITMAP
7F8001
807E03
8001FC
ENDCHAR
STARTCHAR uni0361
ENCODING 865
SWIDTH 0 0
DWIDTH 0 0
BBX 19 4 -9 18
BITMAP
03F800
1C0700
2000C0
C00020
ENDCHAR
STARTCHAR uni0362
ENCODING 866
SWIDTH 0 0
DWIDTH 0 0
BBX 19 7 -8 -8
BITMAP
000300
000080
000040
FFFFE0
000060
000080
000300
ENDCHAR
STARTCHAR uni0363
ENCODING 867
SWIDTH 0 0
DWIDTH 0 0
BBX 6 9 -10 18
BITMAP
70
88
84
04
7C
84
84
8C
74
ENDCHAR
STARTCHAR uni0364
ENCODING 868
SWIDTH 0 0
DWIDTH 0 0
BBX 7 9 -11 18
BITMAP
3C
42
42
82
FE
80
40
42
3C
ENDCHAR
STARTCHAR uni0365
ENCODING 869
SWIDTH 0 0
DWIDTH 0 0
BBX 2 11 -8 18
BITMAP
C0
00
80
80
80
80
80
80
80
80
80
ENDCHAR
STARTCHAR uni0366
ENCODING 870
SWIDTH 0 0
DWIDTH 0 0
BBX 8 9 -11 18
BITMAP
3C
42
42
81
81
81
82
42
3C
ENDCHAR
STARTCHAR uni0367
ENCODING 871
SWIDTH 0 0
DWIDTH 0 0
BBX 6 9 -10 18
BITMAP
84
84
84
84
84
84
84
8C
74
ENDCHAR
STARTCHAR uni0368
ENCODING 872
SWIDTH 0 0
DWIDTH 0 0
BBX 7 9 -11 18
BITMAP
38
44
82
80
80
80
82
44
38
ENDCHAR
STARTCHAR uni0369
ENCODING 873
SWIDTH 0 0
DWIDTH 0 0
BBX 7 12 -11 18
BITMAP
02
02
02
3A
46
82
82
82
82
82
46
3A
ENDCHAR
STARTCHAR uni036A
ENCODING 874
SWIDTH 0 0
DWIDTH 0 0
BBX 6 11 -10 19
BITMAP
80
80
80
F8
84
84
84
84
84
84
84
ENDCHAR
STARTCHAR uni036B
ENCODING 875
SWIDTH 0 0
DWIDTH 0 0
BBX 11 8 -13 19
BITMAP
B9C0
C620
8420
8420
8420
8420
8420
8420
ENDCHAR
STARTCHAR uni036C
ENCODING 876
SWIDTH 0 0
DWIDTH 0 0
BBX 3 8 -9 18
BITMAP
E0
80
80
80
80
80
80
80
ENDCHAR
STARTCHAR uni036D
ENCODING 877
SWIDTH 0 0
DWIDTH 0 0
BBX 4 11 -9 18
BITMAP
20
20
20
F0
20
20
20
20
20
20
30
ENDCHAR
STARTCHAR uni036E
ENCODING 878
SWIDTH 0 0
DWIDTH 0 0
BBX 6 8 -10 18
BITMAP
84
84
84
48
48
50
30
30
ENDCHAR
STARTCHAR uni036F
ENCODING 879
SWIDTH 0 0
DWIDTH 0 0
BBX 6 8 -9 18
BITMAP
C4
48
28
10
30
28
48
84
ENDCHAR
STARTCHAR uni0370
ENCODING 880
SWIDTH 587 0
DWIDTH 18 0
BBX 13 22 2 0
BITMAP
8000
8000
8000
8000
8000
8000
8000
8000
8000
8000
FFF8
8000
8000
8000
8000
8000
8000
8000
8000
8000
8000
8000
ENDCHAR
STARTCHAR uni0371
ENCODING 881
SWIDTH 487 0
DWIDTH 15 0
BBX 11 17 2 0
BITMAP
C000
2000
2000
2000
2000
2000
2000
2000
3FE0
2000
2000
2000
2000
2000
2000
2000
2000
ENDCHAR
STARTCHAR uni0372
ENCODING 882
SWIDTH 636 0
DWIDTH 19 0
BBX 15 22 2 0
BITMAP
FFFE
8102
8102
8102
8102
8102
8102
8102
8102
0100
0100
0100
0100
0100
0100
0100
0100
0100
0100
0100
0100
0100
ENDCHAR
STARTCHAR uni0373
ENCODING 883
SWIDTH 430 0
DWIDTH 13 0
BBX 9 22 2 0
BITMAP
FF80
8880
8880
8880
8880
8880
0800
0800
0800
0800
0800
0800
0800
0800
0800
0800
0800
0800
0800
0800
0800
0800
ENDCHAR
STARTCHAR uni0374
ENCODING 884
SWIDTH 238 0
DWIDTH 7 0
BBX 1 7 5 15
BITMAP
80
80
80
80
80
80
80
ENDCHAR
STARTCHAR uni0375
ENCODING 885
SWIDTH 238 0
DWIDTH 7 0
BBX 3 6 2 -6
BITMAP
20
20
40
40
40
80
ENDCHAR
STARTCHAR uni0376
ENCODING 886
SWIDTH 730 0
DWIDTH 22 0
BBX 16 22 3 0
BITMAP
8001
8003
8003
8005
8009
8009
8011
8021
8041
8041
8081
8101
8201
8201
8401
8801
8801
9001
A001
C001
C001
8001
ENDCHAR
STARTCHAR uni0377
ENCODING 887
SWIDTH 576 0
DWIDTH 17 0
BBX 13 17 2 0
BITMAP
8010
8030
8050
8050
8090
8110
8110
8210
8410
8410
8810
9010
9010
A010
C010
C010
8018
ENDCHAR
STARTCHAR uni037A
ENCODING 890
SWIDTH 237 0
DWIDTH 7 0
BBX 2 5 3 -7
BITMAP
80
80
80
80
C0
ENDCHAR
STARTCHAR uni037B
ENCODING 891
SWIDTH 504 0
DWIDTH 15 0
BBX 13 17 1 0
BITMAP
0F80
3040
4020
4010
8010
8008
0008
0008
0008
0008
0008
0008
8010
4010
4020
3040
0F80
ENDCHAR
STARTCHAR uni037C
ENCODING 892
SWIDTH 504 0
DWIDTH 15 0
BBX 13 17 1 0
BITMAP
0FC0
1020
2010
4010
4008
8000
8000
8200
8200
8000
8000
8000
4008
4010
2010
1020
0FC0
ENDCHAR
STARTCHAR uni037D
ENCODING 893
SWIDTH 504 0
DWIDTH 15 0
BBX 13 17 1 0
BITMAP
0F80
3040
4020
4010
8010
0008
0008
0208
0208
0008
0008
0008
8010
4010
4020
3040
0F80
ENDCHAR
STARTCHAR uni037E
ENCODING 894
SWIDTH 256 0
DWIDTH 8 0
BBX 2 20 3 -5
BITMAP
C0
C0
00
00
00
00
00
00
00
00
00
00
40
40
80
80
80
80
80
80
ENDCHAR
STARTCHAR uni037F
ENCODING 895
SWIDTH 519 0
DWIDTH 16 0
BBX 10 22 2 0
BITMAP
0040
0040
0040
0040
0040
0040
0040
0040
0040
0040
0040
0040
0040
0040
0040
0040
0040
0040
8040
8080
4180
3E00
ENDCHAR
STARTCHAR uni0384
ENCODING 900
SWIDTH 159 0
DWIDTH 5 0
BBX 1 5 2 19
BITMAP
80
80
80
80
80
ENDCHAR
STARTCHAR uni0385
ENCODING 901
SWIDTH 502 0
DWIDTH 15 0
BBX 5 4 5 20
BITMAP
10
20
20
88
ENDCHAR
STARTCHAR uni0386
ENCODING 902
SWIDTH 616 0
DWIDTH 19 0
BBX 17 24 1 0
BITMAP
040000
040000
088000
098000
094000
0A4000
024000
022000
042000
042000
041000
081000
080800
080800
100800
100400
1FFC00
200400
200200
400200
400200
400100
800100
800180
ENDCHAR
STARTCHAR uni0387
ENCODING 903
SWIDTH 252 0
DWIDTH 8 0
BBX 2 2 3 15
BITMAP
C0
80
ENDCHAR
STARTCHAR uni0388
ENCODING 904
SWIDTH 596 0
DWIDTH 18 0
BBX 15 24 1 0
BITMAP
8000
8000
9FFC
9000
9000
9000
1000
1000
1000
1000
1000
1000
1FFC
1000
1000
1000
1000
1000
1000
1000
1000
1000
1000
1FFE
ENDCHAR
STARTCHAR uni0389
ENCODING 905
SWIDTH 798 0
DWIDTH 24 0
BBX 18 24 3 0
BITMAP
800000
800000
A00040
A00040
A00040
A00040
200040
200040
200040
200040
200040
200040
3FFFC0
200040
200040
200040
200040
200040
200040
200040
200040
200040
200040
200040
ENDCHAR
STARTCHAR uni038A
ENCODING 906
SWIDTH 223 0
DWIDTH 7 0
BBX 3 24 0 0
BITMAP
40
80
A0
A0
A0
A0
20
20
20
20
20
20
20
20
20
20
20
20
20
20
20
20
20
20
ENDCHAR
STARTCHAR uni038C
ENCODING 908
SWIDTH 758 0
DWIDTH 23 0
BBX 20 24 0 0
BITMAP
800000
800000
80FC00
830300
840080
880040
100020
100020
200020
200010
200010
200010
200010
200010
200010
200010
200010
200020
100020
100020
080040
040080
030300
00FC00
ENDCHAR
STARTCHAR uni038E
ENCODING 910
SWIDTH 665 0
DWIDTH 20 0
BBX 19 24 1 0
BITMAP
400000
400000
500020
880040
840040
840080
020100
010100
010200
008400
004400
004800
003000
001000
001000
001000
001000
001000
001000
001000
001000
001000
001000
001000
ENDCHAR
STARTCHAR uni038F
ENCODING 911
SWIDTH 708 0
DWIDTH 21 0
BBX 20 24 -1 0
BITMAP
400000
400000
40FC00
830300
840080
880040
080040
100020
100020
200010
200010
200010
200010
200010
200010
200010
200010
100020
100020
080040
040080
020100
010200
3F87F0
ENDCHAR
STARTCHAR uni0390
ENCODING 912
SWIDTH 215 0
DWIDTH 6 0
BBX 5 24 1 0
BITMAP
20
20
20
88
00
00
00
20
20
20
20
20
20
20
20
20
20
20
20
20
20
20
20
18
ENDCHAR
STARTCHAR uni0391
ENCODING 913
SWIDTH 616 0
DWIDTH 19 0
BBX 17 22 1 0
BITMAP
008000
018000
014000
024000
024000
022000
042000
042000
041000
081000
080800
080800
100800
100400
1FFC00
200400
200200
400200
400200
400100
800100
800180
ENDCHAR
STARTCHAR uni0392
ENCODING 914
SWIDTH 640 0
DWIDTH 19 0
BBX 14 22 3 0
BITMAP
FFC0
8030
8010
8008
8008
8008
8008
8008
8010
8030
FFC0
8030
8008
8008
8004
8004
8004
8004
8004
8008
8010
FFE0
ENDCHAR
STARTCHAR uni0393
ENCODING 915
SWIDTH 571 0
DWIDTH 17 0
BBX 12 22 3 0
BITMAP
FFF0
8000
8000
8000
8000
8000
8000
8000
8000
8000
8000
8000
8000
8000
8000
8000
8000
8000
8000
8000
8000
8000
ENDCHAR
STARTCHAR uni0394
ENCODING 916
SWIDTH 616 0
DWIDTH 19 0
BBX 17 22 1 0
BITMAP
008000
008000
018000
014000
024000
022000
022000
042000
041000
081000
081000
080800
100800
100400
100400
200400
200200
400200
400200
400100
800100
FFFF80
ENDCHAR
STARTCHAR uni0395
ENCODING 917
SWIDTH 583 0
DWIDTH 18 0
BBX 12 22 3 0
BITMAP
FFF0
8000
8000
8000
8000
8000
8000
8000
8000
8000
FFE0
8000
8000
8000
8000
8000
8000
8000
8000
8000
8000
FFF0
ENDCHAR
STARTCHAR uni0396
ENCODING 918
SWIDTH 605 0
DWIDTH 18 0
BBX 14 22 2 0
BITMAP
FFFC
0004
0008
0010
0010
0020
0040
0040
0080
0080
0100
0200
0200
0400
0800
0800
1000
1000
2000
4000
4000
FFFC
ENDCHAR
STARTCHAR uni0397
ENCODING 919
SWIDTH 735 0
DWIDTH 22 0
BBX 16 22 3 0
BITMAP
8001
8001
8001
8001
8001
8001
8001
8001
8001
8001
FFFF
8001
8001
8001
8001
8001
8001
8001
8001
8001
8001
8001
ENDCHAR
STARTCHAR uni0398
ENCODING 920
SWIDTH 747 0
DWIDTH 22 0
BBX 18 22 2 0
BITMAP
03F000
0C0C00
100200
200100
200080
400080
400040
800040
800040
800040
9FFE40
800040
800040
800040
800040
400040
400080
200080
200100
100200
0C0C00
03F000
ENDCHAR
STARTCHAR uni0399
ENCODING 921
SWIDTH 250 0
DWIDTH 8 0
BBX 1 22 3 0
BITMAP
80
80
80
80
80
80
80
80
80
80
80
80
80
80
80
80
80
80
80
80
80
80
ENDCHAR
STARTCHAR uni039A
ENCODING 922
SWIDTH 616 0
DWIDTH 19 0
BBX 14 22 3 0
BITMAP
8004
8008
8010
8020
8040
8040
8080
8100
8200
8400
8800
9800
A400
C200
C100
8080
8040
8020
8020
8010
8008
8004
ENDCHAR
STARTCHAR uni039B
ENCODING 923
SWIDTH 616 0
DWIDTH 19 0
BBX 17 22 1 0
BITMAP
008000
018000
014000
024000
024000
022000
042000
042000
041000
081000
080800
080800
100800
100400
100400
200400
200200
400200
400200
400100
800100
800180
ENDCHAR
STARTCHAR uni039C
ENCODING 924
SWIDTH 863 0
DWIDTH 26 0
BBX 20 22 3 0
BITMAP
800010
C00030
C00030
A00050
A00050
A00090
900090
900090
880110
880110
840210
840210
840410
820410
820410
810810
810810
809010
809010
809010
806010
806010
ENDCHAR
STARTCHAR uni039D
ENCODING 925
SWIDTH 772 0
DWIDTH 23 0
BBX 17 22 3 0
BITMAP
800080
C00080
A00080
900080
900080
880080
840080
840080
820080
810080
808080
808080
804080
802080
801080
801080
800880
800480
800480
800280
800180
800080
ENDCHAR
STARTCHAR uni039E
ENCODING 926
SWIDTH 424 0
DWIDTH 13 0
BBX 13 22 0 0
BITMAP
FFF8
0000
0000
0000
0000
0000
0000
0000
0000
0000
7FF0
0000
0000
0000
0000
0000
0000
0000
0000
0000
0000
FFF8
ENDCHAR
STARTCHAR uni039F
ENCODING 927
SWIDTH 747 0
DWIDTH 22 0
BBX 18 22 2 0
BITMAP
03F000
0C0C00
100200
200100
200080
400080
400040
800040
800040
800040
800040
800040
800040
800040
800040
400040
400080
200080
200100
100200
0C0C00
03F000
ENDCHAR
STARTCHAR uni03A0
ENCODING 928
SWIDTH 678 0
DWIDTH 20 0
BBX 14 22 3 0
BITMAP
FFFC
8004
8004
8004
8004
8004
8004
8004
8004
8004
8004
8004
8004
8004
8004
8004
8004
8004
8004
8004
8004
8004
ENDCHAR
STARTCHAR uni03A1
ENCODING 929
SWIDTH 606 0
DWIDTH 18 0
BBX 13 22 3 0
BITMAP
FFC0
8020
8010
8008
8008
8008
8008
8008
8008
8010
8010
8060
FF80
8000
8000
8000
8000
8000
8000
8000
8000
8000
ENDCHAR
STARTCHAR uni03A3
ENCODING 931
SWIDTH 622 0
DWIDTH 19 0
BBX 15 22 2 0
BITMAP
FFFC
8000
4000
2000
1000
0800
0800
0400
0200
0100
0080
0040
0080
0100
0200
0400
0800
1000
2000
4000
8000
FFFE
ENDCHAR
STARTCHAR uni03A4
ENCODING 932
SWIDTH 613 0
DWIDTH 18 0
BBX 15 22 2 0
BITMAP
FFFE
0100
0100
0100
0100
0100
0100
0100
0100
0100
0100
0100
0100
0100
0100
0100
0100
0100
0100
0100
0100
0100
ENDCHAR
STARTCHAR uni03A5
ENCODING 933
SWIDTH 613 0
DWIDTH 18 0
BBX 16 22 1 0
BITMAP
8001
4002
2002
2004
1008
0808
0810
0420
0220
0240
0180
0080
0080
0080
0080
0080
0080
0080
0080
0080
0080
0080
ENDCHAR
STARTCHAR uni03A6
ENCODING 934
SWIDTH 651 0
DWIDTH 20 0
BBX 17 22 1 0
BITMAP
008000
008000
008000
07F000
088C00
308200
208100
408080
808080
808080
808080
808080
808080
808080
408080
208100
308200
088C00
07F000
008000
008000
008000
ENDCHAR
STARTCHAR uni03A7
ENCODING 935
SWIDTH 585 0
DWIDTH 18 0
BBX 16 22 1 0
BITMAP
8003
4002
2004
2008
1008
0810
0820
0420
0440
0280
0180
0100
0280
0240
0420
0820
0810
1008
2008
2004
4002
8003
ENDCHAR
STARTCHAR uni03A8
ENCODING 936
SWIDTH 731 0
DWIDTH 22 0
BBX 16 22 3 0
BITMAP
8101
8101
8101
8101
8101
8101
8101
8101
8101
8101
8101
8102
4102
4102
2104
1918
07E0
0100
0100
0100
0100
0100
ENDCHAR
STARTCHAR uni03A9
ENCODING 937
SWIDTH 744 0
DWIDTH 22 0
BBX 18 22 2 0
BITMAP
03F000
0C0C00
100200
200100
200080
400080
400040
800040
800040
800040
800040
800040
800040
800040
400040
400080
400080
200100
100100
080600
040800
FE1FC0
ENDCHAR
STARTCHAR uni03AA
ENCODING 938
SWIDTH 250 0
DWIDTH 8 0
BBX 5 27 1 0
BITMAP
88
00
00
00
00
20
20
20
20
20
20
20
20
20
20
20
20
20
20
20
20
20
20
20
20
20
20
ENDCHAR
STARTCHAR uni03AB
ENCODING 939
SWIDTH 613 0
DWIDTH 18 0
BBX 16 27 1 0
BITMAP
0620
0000
0000
0000
0000
8001
4002
2002
2004
1008
0808
0810
0420
0220
0240
0180
0080
0080
0080
0080
0080
0080
0080
0080
0080
0080
0080
ENDCHAR
STARTCHAR uni03AC
ENCODING 940
SWIDTH 629 0
DWIDTH 19 0
BBX 15 24 2 0
BITMAP
0100
0100
0100
0100
0200
0200
0000
0F82
1062
2012
4012
800C
800C
8004
8004
8004
8004
8004
800C
800C
4012
2012
1022
0FC2
ENDCHAR
STARTCHAR uni03AD
ENCODING 941
SWIDTH 529 0
DWIDTH 16 0
BBX 12 24 2 0
BITMAP
0200
0200
0200
0200
0200
0200
0000
1F00
20C0
4040
8020
8020
8000
4000
6000
1E00
6000
8000
8000
8010
8010
8020
6040
1F80
ENDCHAR
STARTCHAR uni03AE
ENCODING 942
SWIDTH 568 0
DWIDTH 17 0
BBX 11 30 3 -6
BITMAP
0200
0200
0400
0400
0400
0400
0000
9F00
A080
C040
8020
8020
8020
8020
8020
8020
8020
8020
8020
8020
8020
8020
8020
8020
0020
0020
0020
0020
0020
0020
ENDCHAR
STARTCHAR uni03AF
ENCODING 943
SWIDTH 215 0
DWIDTH 6 0
BBX 3 24 3 0
BITMAP
80
80
80
80
80
80
00
80
80
80
80
80
80
80
80
80
80
80
80
80
80
80
80
60
ENDCHAR
STARTCHAR uni03B0
ENCODING 944
SWIDTH 588 0
DWIDTH 18 0
BBX 12 25 3 0
BITMAP
0400
0400
0400
1100
0000
0000
0000
0000
8040
8020
8020
8020
8010
8010
8010
8010
8010
8010
8010
8010
8020
8020
4040
2080
1F00
ENDCHAR
STARTCHAR uni03B1
ENCODING 945
SWIDTH 629 0
DWIDTH 19 0
BBX 15 17 2 0
BITMAP
0F82
1062
2012
4012
800C
800C
8004
8004
8004
8004
8004
800C
800C
4012
2012
1022
0FC2
ENDCHAR
STARTCHAR uni03B2
ENCODING 946
SWIDTH 585 0
DWIDTH 18 0
BBX 12 28 3 -6
BITMAP
1F80
2040
4020
8020
8020
8020
8020
8020
80C0
8F00
8040
8020
8010
8010
8010
8010
8010
8010
8010
C020
A040
9F80
8000
8000
8000
8000
8000
8000
ENDCHAR
STARTCHAR uni03B3
ENCODING 947
SWIDTH 521 0
DWIDTH 16 0
BBX 12 23 2 -6
BITMAP
8010
8010
8020
4020
4020
4040
2040
2040
1080
1080
1100
0900
0900
0A00
0600
0600
0400
0400
0400
0400
0400
0400
0400
ENDCHAR
STARTCHAR uni03B4
ENCODING 948
SWIDTH 427 0
DWIDTH 13 0
BBX 13 24 0 0
BITMAP
0F80
1060
2000
2000
2000
2000
2000
1800
0600
0D80
3040
4020
4010
8010
8008
8008
8008
8008
8008
8010
4010
4020
3040
0F80
ENDCHAR
STARTCHAR uni03B5
ENCODING 949
SWIDTH 529 0
DWIDTH 16 0
BBX 12 17 2 0
BITMAP
1F00
20C0
4040
8020
8020
8000
4000
6000
1E00
6000
8000
8000
8010
8010
8020
6040
1F80
ENDCHAR
STARTCHAR uni03B6
ENCODING 950
SWIDTH 500 0
DWIDTH 15 0
BBX 11 28 2 -6
BITMAP
FFE0
0020
0040
0080
0100
0200
0400
0400
0800
1000
2000
2000
4000
4000
4000
4000
4000
4000
4000
2000
3000
0C00
0300
00C0
0040
0040
0080
0080
ENDCHAR
STARTCHAR uni03B7
ENCODING 951
SWIDTH 568 0
DWIDTH 17 0
BBX 11 23 3 -6
BITMAP
9F00
A080
C040
8020
8020
8020
8020
8020
8020
8020
8020
8020
8020
8020
8020
8020
8020
0020
0020
0020
0020
0020
0020
ENDCHAR
STARTCHAR uni03B8
ENCODING 952
SWIDTH 423 0
DWIDTH 13 0
BBX 12 22 0 0
BITMAP
0F80
1040
2020
4020
4010
4010
8010
8010
8010
8010
FFF0
8010
8010
8010
8010
8010
4010
4010
4020
2020
1040
0F80
ENDCHAR
STARTCHAR uni03B9.dup1
ENCODING 953
SWIDTH 215 0
DWIDTH 6 0
BBX 3 17 3 0
BITMAP
80
80
80
80
80
80
80
80
80
80
80
80
80
80
80
80
60
ENDCHAR
STARTCHAR uni03BA
ENCODING 954
SWIDTH 561 0
DWIDTH 17 0
BBX 11 17 3 0
BITMAP
8060
8080
8100
8100
8200
8400
8800
9000
E000
A000
9000
8800
8400
8200
8100
8080
8060
ENDCHAR
STARTCHAR uni03BB
ENCODING 955
SWIDTH 557 0
DWIDTH 17 0
BBX 14 22 1 0
BITMAP
7000
0800
0400
0400
0400
0200
0200
0500
0500
0500
0880
0880
0880
1040
1040
1020
2020
2020
4010
4010
4010
800C
ENDCHAR
STARTCHAR uni03BC
ENCODING 956
SWIDTH 563 0
DWIDTH 17 0
BBX 11 23 3 -6
BITMAP
8020
8020
8020
8020
8020
8020
8020
8020
8020
8020
8020
8020
8020
8020
C060
A0A0
9F20
8000
8000
8000
8000
8000
8000
ENDCHAR
STARTCHAR uni03BD
ENCODING 957
SWIDTH 523 0
DWIDTH 16 0
BBX 13 17 1 0
BITMAP
8008
4008
4008
4008
2008
2010
1010
1010
1010
0820
0820
0840
0440
0480
0480
0300
0200
ENDCHAR
STARTCHAR uni03BE
ENCODING 958
SWIDTH 504 0
DWIDTH 15 0
BBX 11 28 2 -6
BITMAP
0FC0
3020
4000
4000
4000
4000
4000
2000
1800
07C0
1800
2000
4000
8000
8000
8000
8000
8000
4000
4000
3000
0E00
0180
0060
0020
0020
0040
0040
ENDCHAR
STARTCHAR uni03BF
ENCODING 959
SWIDTH 579 0
DWIDTH 17 0
BBX 13 17 2 0
BITMAP
0F80
1060
2010
4010
4008
8008
8008
8008
8008
8008
8008
8008
4008
4010
2010
1060
0F80
ENDCHAR
STARTCHAR uni03C0
ENCODING 960
SWIDTH 515 0
DWIDTH 15 0
BBX 15 17 0 0
BITMAP
FFFC
2010
2010
2010
2010
2010
2010
2010
2010
2010
2010
2010
2010
2010
2010
2010
200E
ENDCHAR
STARTCHAR uni03C1
ENCODING 961
SWIDTH 550 0
DWIDTH 17 0
BBX 12 23 3 -6
BITMAP
1F00
20C0
4040
8020
8020
8010
8010
8010
8010
8010
8010
8010
8020
8020
C040
E0C0
9F00
8000
8000
8000
8000
8000
8000
ENDCHAR
STARTCHAR uni03C2
ENCODING 962
SWIDTH 501 0
DWIDTH 15 0
BBX 12 22 2 -5
BITMAP
1F80
2040
4020
8020
8010
8000
8000
8000
8000
8000
8000
8000
8000
4000
2000
1C00
0380
0040
0020
0020
0020
0040
ENDCHAR
STARTCHAR uni03C3
ENCODING 963
SWIDTH 590 0
DWIDTH 18 0
BBX 14 17 2 0
BITMAP
0FFC
3040
4020
4010
8010
8008
8008
8008
8008
8008
8008
8010
8010
4010
4020
3040
0F80
ENDCHAR
STARTCHAR uni03C4
ENCODING 964
SWIDTH 382 0
DWIDTH 11 0
BBX 12 17 0 0
BITMAP
FFF0
0400
0400
0400
0400
0400
0400
0400
0400
0400
0400
0400
0400
0400
0400
0400
0380
ENDCHAR
STARTCHAR uni03C5
ENCODING 965
SWIDTH 588 0
DWIDTH 18 0
BBX 12 17 3 0
BITMAP
8040
8020
8020
8020
8010
8010
8010
8010
8010
8010
8010
8010
8020
8020
4040
2080
1F00
ENDCHAR
STARTCHAR uni03C6
ENCODING 966
SWIDTH 620 0
DWIDTH 19 0
BBX 17 23 1 -6
BITMAP
107000
208C00
208200
408200
408100
808100
808100
808080
808080
808080
808100
808100
408100
408200
208400
188800
07E000
008000
008000
008000
008000
008000
008000
ENDCHAR
STARTCHAR uni03C7
ENCODING 967
SWIDTH 639 0
DWIDTH 19 0
BBX 17 23 2 -6
BITMAP
E00600
200400
100800
080800
081000
041000
042000
022000
024000
014000
018000
008000
018000
014000
024000
022000
042000
041000
081000
080800
100800
200400
200380
ENDCHAR
STARTCHAR uni03C8
ENCODING 968
SWIDTH 692 0
DWIDTH 21 0
BBX 16 24 3 -7
BITMAP
8104
8102
8102
8102
8102
8101
8101
8101
8101
8101
8101
8101
8101
4102
4104
3108
0FF0
0100
0100
0100
0100
0100
0100
0100
ENDCHAR
STARTCHAR uni03C9
ENCODING 969
SWIDTH 690 0
DWIDTH 21 0
BBX 19 17 1 0
BITMAP
600080
400040
800040
800020
800020
800020
804020
804020
804020
804020
804020
804020
804020
80C040
40A040
211080
1E0F00
ENDCHAR
STARTCHAR uni03CA
ENCODING 970
SWIDTH 215 0
DWIDTH 6 0
BBX 5 21 1 0
BITMAP
88
00
00
00
20
20
20
20
20
20
20
20
20
20
20
20
20
20
20
20
18
ENDCHAR
STARTCHAR uni03CB
ENCODING 971
SWIDTH 588 0
DWIDTH 18 0
BBX 12 21 3 0
BITMAP
1100
0000
0000
0000
8040
8020
8020
8020
8010
8010
8010
8010
8010
8010
8010
8010
8020
8020
4040
2080
1F00
ENDCHAR
STARTCHAR uni03CC
ENCODING 972
SWIDTH 579 0
DWIDTH 17 0
BBX 13 24 2 0
BITMAP
0100
0100
0100
0100
0200
0200
0000
0F80
1060
2010
4010
4008
8008
8008
8008
8008
8008
8008
8008
4008
4010
2010
1060
0F80
ENDCHAR
STARTCHAR uni03CD
ENCODING 973
SWIDTH 588 0
DWIDTH 18 0
BBX 12 24 3 0
BITMAP
0200
0200
0400
0400
0400
0400
0000
8040
8020
8020
8020
8010
8010
8010
8010
8010
8010
8010
8010
8020
8020
4040
2080
1F00
ENDCHAR
STARTCHAR uni03CE
ENCODING 974
SWIDTH 690 0
DWIDTH 21 0
BBX 19 24 1 0
BITMAP
002000
004000
004000
004000
004000
004000
000000
600080
400040
800040
800020
800020
800020
804020
804020
804020
804020
804020
804020
804020
80C040
40A040
211080
1E0F00
ENDCHAR
STARTCHAR uni03CF
ENCODING 975
SWIDTH 539 0
DWIDTH 16 0
BBX 14 27 1 -5
BITMAP
8004
8008
8010
8020
8040
8080
8100
8200
8200
8400
8800
9800
A400
C200
8100
8080
8080
8040
8020
8010
8008
8004
0008
0010
0020
0040
0080
ENDCHAR
STARTCHAR uni03D0
ENCODING 976
SWIDTH 566 0
DWIDTH 17 0
BBX 13 24 2 0
BITMAP
07C0
0820
1010
2010
2010
4020
7060
4780
4000
4000
8F80
9060
A020
C010
8010
8008
8008
8008
8008
4010
4010
2020
1060
0F80
ENDCHAR
STARTCHAR uni03D1
ENCODING 977
SWIDTH 591 0
DWIDTH 18 0
BBX 14 22 2 0
BITMAP
0780
0840
1020
1020
1020
1020
1020
1020
0820
8420
8320
80FC
8020
8020
8020
8020
8020
8020
8020
4040
20C0
1F00
ENDCHAR
STARTCHAR uni03D2
ENCODING 978
SWIDTH 617 0
DWIDTH 19 0
BBX 14 22 2 0
BITMAP
C00C
2010
1010
1020
0820
0840
0440
0440
0280
0280
0100
0100
0100
0100
0100
0100
0100
0100
0100
0100
0100
0100
ENDCHAR
STARTCHAR uni03D3
ENCODING 979
SWIDTH 644 0
DWIDTH 19 0
BBX 17 23 0 0
BITMAP
800000
980180
840200
840200
820400
820400
010800
010800
009000
009000
006000
006000
002000
002000
002000
002000
002000
002000
002000
002000
002000
002000
002000
ENDCHAR
STARTCHAR uni03D4
ENCODING 980
SWIDTH 617 0
DWIDTH 19 0
BBX 14 27 2 0
BITMAP
0440
0000
0000
0000
0000
C00C
2010
1010
1020
0820
0840
0440
0440
0280
0280
0100
0100
0100
0100
0100
0100
0100
0100
0100
0100
0100
0100
ENDCHAR
STARTCHAR uni03D5
ENCODING 981
SWIDTH 606 0
DWIDTH 18 0
BBX 15 28 2 -6
BITMAP
0100
0100
0100
0100
0100
0100
0FC0
3130
4108
4104
8104
8104
8102
8102
8102
8102
8104
8104
4104
4108
3110
0FE0
0100
0100
0100
0100
0100
0100
ENDCHAR
STARTCHAR uni03D6
ENCODING 982
SWIDTH 690 0
DWIDTH 21 0
BBX 19 17 1 0
BITMAP
FFFFC0
400040
800040
800020
800020
800020
804020
804020
804020
804020
804020
804020
804020
80C040
40A040
211080
1E0F00
ENDCHAR
STARTCHAR uni03D7
ENCODING 983
SWIDTH 615 0
DWIDTH 18 0
BBX 15 23 2 -6
BITMAP
C008
2010
2010
2030
2050
2050
2090
2110
2110
2210
2410
2808
2808
3008
2004
2004
4002
0002
0002
0002
0002
0004
0038
ENDCHAR
STARTCHAR uni03D8
ENCODING 984
SWIDTH 741 0
DWIDTH 22 0
BBX 18 28 2 -6
BITMAP
03F000
0C0C00
100200
200100
200080
400080
400040
800040
800040
800040
800040
800040
800040
800040
800040
400040
400080
400080
200100
100200
0C0C00
03F000
004000
004000
004000
004000
004000
004000
ENDCHAR
STARTCHAR uni03D9
ENCODING 985
SWIDTH 569 0
DWIDTH 17 0
BBX 13 23 2 -6
BITMAP
0F80
1040
2020
4010
8008
8008
8008
8008
8008
8008
8008
8008
8008
4010
2030
3060
0F80
0200
0200
0200
0200
0200
0200
ENDCHAR
STARTCHAR uni03DA
ENCODING 986
SWIDTH 678 0
DWIDTH 20 0
BBX 15 29 3 -7
BITMAP
07E0
1810
2008
4004
4004
8002
8002
8000
8000
8000
8000
8000
8000
8000
8000
8000
8000
8000
4000
2000
1800
0600
0180
0030
000C
0004
0004
0004
0008
ENDCHAR
STARTCHAR uni03DB
ENCODING 987
SWIDTH 487 0
DWIDTH 15 0
BBX 12 23 1 -6
BITMAP
0F80
1060
2010
4010
4010
8010
8000
8000
8000
8000
8000
8000
4000
4000
3000
0C00
0380
0060
0010
0010
0010
0010
0060
ENDCHAR
STARTCHAR uni03DC
ENCODING 988
SWIDTH 576 0
DWIDTH 17 0
BBX 12 22 3 0
BITMAP
FFF0
8000
8000
8000
8000
8000
8000
8000
8000
8000
FFE0
8020
8020
8020
8020
8000
8000
8000
8000
8000
8000
8000
ENDCHAR
STARTCHAR uni03DD
ENCODING 989
SWIDTH 503 0
DWIDTH 15 0
BBX 11 23 2 -6
BITMAP
FFE0
8000
8000
8000
8000
8000
8000
8000
FFC0
8040
8040
8040
8000
8000
8000
8000
8000
8000
8000
8000
8000
8000
8000
ENDCHAR
STARTCHAR uni03DE
ENCODING 990
SWIDTH 518 0
DWIDTH 16 0
BBX 14 22 1 0
BITMAP
C000
2000
2000
2000
2008
2008
2038
2048
2088
2110
4210
4410
5810
7010
6010
4010
0010
0020
0020
0020
0010
000C
ENDCHAR
STARTCHAR uni03DF
ENCODING 991
SWIDTH 422 0
DWIDTH 13 0
BBX 11 22 1 0
BITMAP
1000
1000
1000
2000
2000
2000
4000
4000
4000
8000
FFE0
0040
0040
0040
0040
0080
0080
0080
0100
0100
0100
0200
ENDCHAR
STARTCHAR uni03E0
ENCODING 992
SWIDTH 664 0
DWIDTH 20 0
BBX 20 28 0 -6
BITMAP
03F800
0C0600
100100
200080
200080
4000C0
400120
800620
001820
002020
00C010
030010
000010
000030
0000D0
000310
000C10
001010
00E020
000020
000020
000020
000040
000040
000080
000100
000600
007800
ENDCHAR
STARTCHAR uni03E1
ENCODING 993
SWIDTH 683 0
DWIDTH 21 0
BBX 17 29 2 -6
BITMAP
800000
600000
180000
040000
030000
008000
004000
002000
001000
007000
008800
030400
0C0400
100400
600200
800200
000500
001900
002100
00C100
030100
0C0080
100080
000080
000080
000080
000080
000080
000080
ENDCHAR
STARTCHAR uni03F0
ENCODING 1008
SWIDTH 598 0
DWIDTH 18 0
BBX 14 17 2 0
BITMAP
C008
2010
2010
2030
2050
20D0
2090
2110
2210
2210
2410
2810
2810
3010
2010
2010
400C
ENDCHAR
STARTCHAR uni03F1
ENCODING 1009
SWIDTH 580 0
DWIDTH 17 0
BBX 13 24 2 -7
BITMAP
0F80
1060
2010
4010
4008
4008
8008
8008
8008
8008
8008
4008
4010
6010
5060
4F80
2000
2000
1000
0E00
01C0
0020
0010
0010
ENDCHAR
STARTCHAR uni03F2
ENCODING 1010
SWIDTH 552 0
DWIDTH 17 0
BBX 13 17 2 0
BITMAP
0F80
1060
2010
4010
4008
8000
8000
8000
8000
8000
8000
8000
4008
4010
2010
1060
0F80
ENDCHAR
STARTCHAR uni03F3
ENCODING 1011
SWIDTH 221 0
DWIDTH 7 0
BBX 4 27 0 -6
BITMAP
10
00
00
00
10
10
10
10
10
10
10
10
10
10
10
10
10
10
10
10
10
10
10
10
10
20
C0
ENDCHAR
STARTCHAR uni03F4
ENCODING 1012
SWIDTH 747 0
DWIDTH 22 0
BBX 18 22 2 0
BITMAP
03F000
0C0C00
100200
200100
200080
400080
400040
800040
800040
800040
FFFFC0
800040
800040
800040
800040
400040
400080
200080
200100
100200
0C0C00
03F000
ENDCHAR
STARTCHAR uni03F5
ENCODING 1013
SWIDTH 399 0
DWIDTH 12 0
BBX 10 17 1 0
BITMAP
0FC0
3000
4000
8000
8000
8000
8000
8000
FE00
8000
8000
8000
8000
8000
4000
2000
1FC0
ENDCHAR
STARTCHAR uni03F6
ENCODING 1014
SWIDTH 379 0
DWIDTH 11 0
BBX 10 16 1 0
BITMAP
FC00
0200
0100
0080
0080
0040
0040
3FC0
0040
0040
0040
0080
0080
0100
0200
FC00
ENDCHAR
STARTCHAR uni03F7
ENCODING 1015
SWIDTH 590 0
DWIDTH 18 0
BBX 12 22 3 0
BITMAP
8000
8000
8000
8000
8000
FF80
8060
8020
8010
8010
8010
8010
8010
8010
8020
8040
FF80
8000
8000
8000
8000
8000
ENDCHAR
STARTCHAR uni03F8
ENCODING 1016
SWIDTH 575 0
DWIDTH 17 0
BBX 12 28 3 -6
BITMAP
8000
8000
8000
8000
8000
8F80
B040
C020
C020
8010
8010
8010
8010
8010
8010
8010
8010
8010
C020
C020
B040
8F80
8000
8000
8000
8000
8000
8000
ENDCHAR
STARTCHAR uni03F9
ENCODING 1017
SWIDTH 723 0
DWIDTH 22 0
BBX 18 22 2 0
BITMAP
03F000
0C0C00
100200
200100
200080
400080
400040
800000
800000
800000
800000
800000
800000
800000
800000
400040
400080
200080
200100
100200
0C0C00
03F000
ENDCHAR
STARTCHAR uni03FA
ENCODING 1018
SWIDTH 863 0
DWIDTH 26 0
BBX 20 22 3 0
BITMAP
800010
C00030
C00030
A00050
A00050
A00090
900090
900090
880110
880110
840210
840210
840410
820410
820410
810810
810810
809010
809010
809010
806010
806010
ENDCHAR
STARTCHAR uni03FB
ENCODING 1019
SWIDTH 652 0
DWIDTH 20 0
BBX 16 23 2 -6
BITMAP
8001
C003
C003
A005
A005
A009
9009
9011
8811
8811
8421
8421
8241
8241
8181
8181
8101
8000
8000
8000
8000
8000
8000
ENDCHAR
STARTCHAR uni03FC
ENCODING 1020
SWIDTH 550 0
DWIDTH 17 0
BBX 16 23 -1 -6
BITMAP
01F0
020C
0404
0802
0802
0801
1001
1001
1001
1001
1001
1001
0802
0802
1404
160C
11F0
1000
1000
FF00
1000
1000
1000
ENDCHAR
STARTCHAR uni03FD
ENCODING 1021
SWIDTH 573 0
DWIDTH 17 0
BBX 15 22 1 0
BITMAP
0FC0
1030
2008
4004
4004
8002
8002
0002
0002
0002
0002
0002
0002
0002
0002
8002
8002
8004
4004
2008
1030
0FC0
ENDCHAR
STARTCHAR uni03FE
ENCODING 1022
SWIDTH 723 0
DWIDTH 22 0
BBX 18 22 2 0
BITMAP
03F000
0C0C00
100200
200100
200080
400080
400040
800000
800000
800000
80C000
804000
800000
800000
800000
400040
400080
200080
200100
100200
0C0C00
03F000
ENDCHAR
STARTCHAR uni03FF
ENCODING 1023
SWIDTH 723 0
DWIDTH 22 0
BBX 18 22 2 0
BITMAP
03F000
080800
300600
200200
400100
800080
800080
000080
000080
000040
008040
008040
000040
000080
000080
800080
800080
400100
200200
300600
080800
03F000
ENDCHAR
STARTCHAR uni0400
ENCODING 1024
SWIDTH 583 0
DWIDTH 18 0
BBX 12 29 3 0
BITMAP
1000
0800
0800
0400
0200
0000
0000
FFF0
8000
8000
8000
8000
8000
8000
8000
8000
8000
FFE0
8000
8000
8000
8000
8000
8000
8000
8000
8000
8000
FFF0
ENDCHAR
STARTCHAR uni0401
ENCODING 1025
SWIDTH 583 0
DWIDTH 18 0
BBX 12 27 3 0
BITMAP
0880
0000
0000
0000
0000
FFF0
8000
8000
8000
8000
8000
8000
8000
8000
8000
FFE0
8000
8000
8000
8000
8000
8000
8000
8000
8000
8000
FFF0
ENDCHAR
STARTCHAR uni0402
ENCODING 1026
SWIDTH 765 0
DWIDTH 23 0
BBX 19 22 2 0
BITMAP
FFFE00
010000
010000
010000
010000
010000
010000
010000
013E00
01C180
010040
010040
010020
010020
010020
010020
010020
010020
010020
010040
010080
010600
ENDCHAR
STARTCHAR uni0403
ENCODING 1027
SWIDTH 571 0
DWIDTH 17 0
BBX 12 31 3 0
BITMAP
0040
0080
0080
0100
0200
0200
0000
0000
0000
FFF0
8000
8000
8000
8000
8000
8000
8000
8000
8000
8000
8000
8000
8000
8000
8000
8000
8000
8000
8000
8000
8000
ENDCHAR
STARTCHAR uni0404
ENCODING 1028
SWIDTH 641 0
DWIDTH 19 0
BBX 15 22 2 0
BITMAP
07E0
1810
2008
4004
4002
4002
8000
8000
8000
8000
FFE0
8000
8000
8000
8000
8002
4002
4002
2004
2008
1810
07E0
ENDCHAR
STARTCHAR uni0405
ENCODING 1029
SWIDTH 612 0
DWIDTH 18 0
BBX 14 22 2 0
BITMAP
0FC0
1030
2008
4008
4004
4004
4000
4000
2000
1800
0700
00E0
0010
0008
0004
0004
0004
8004
4004
4008
3030
0FC0
ENDCHAR
STARTCHAR uni0406
ENCODING 1030
SWIDTH 250 0
DWIDTH 8 0
BBX 1 22 3 0
BITMAP
80
80
80
80
80
80
80
80
80
80
80
80
80
80
80
80
80
80
80
80
80
80
ENDCHAR
STARTCHAR uni0407
ENCODING 1031
SWIDTH 250 0
DWIDTH 8 0
BBX 5 27 1 0
BITMAP
88
00
00
00
00
20
20
20
20
20
20
20
20
20
20
20
20
20
20
20
20
20
20
20
20
20
20
ENDCHAR
STARTCHAR uni0408
ENCODING 1032
SWIDTH 519 0
DWIDTH 16 0
BBX 10 22 2 0
BITMAP
0040
0040
0040
0040
0040
0040
0040
0040
0040
0040
0040
0040
0040
0040
0040
0040
0040
0040
8040
8080
4180
3E00
ENDCHAR
STARTCHAR uni0409
ENCODING 1033
SWIDTH 1056 0
DWIDTH 32 0
BBX 30 22 0 0
BITMAP
07FF0000
04010000
04010000
04010000
04010000
04010000
04010000
04010000
04010000
04010000
0401FFC0
04010030
04010008
08010008
08010004
08010004
08010004
08010004
08010008
10010008
10010010
C001FFE0
ENDCHAR
STARTCHAR uni040A
ENCODING 1034
SWIDTH 1086 0
DWIDTH 33 0
BBX 28 22 3 0
BITMAP
80040000
80040000
80040000
80040000
80040000
80040000
80040000
80040000
80040000
80040000
FFFFFF00
800400C0
80040020
80040020
80040010
80040010
80040010
80040010
80040020
80040020
80040040
8007FF80
ENDCHAR
STARTCHAR uni040B
ENCODING 1035
SWIDTH 897 0
DWIDTH 27 0
BBX 22 22 2 0
BITMAP
FFFF00
008000
008000
008000
008000
008000
008000
008000
008FC0
00F030
008008
008004
008004
008004
008004
008004
008004
008004
008004
008004
008004
008004
ENDCHAR
STARTCHAR uni040C
ENCODING 1036
SWIDTH 616 0
DWIDTH 19 0
BBX 14 29 3 0
BITMAP
0040
0080
0100
0100
0200
0000
0000
8004
8008
8010
8020
8040
8040
8080
8100
8200
8400
8800
9400
A400
C200
8100
8080
8040
8020
8020
8010
8008
8004
ENDCHAR
STARTCHAR uni040D
ENCODING 1037
SWIDTH 772 0
DWIDTH 23 0
BBX 17 29 3 0
BITMAP
040000
020000
010000
010000
008000
000000
000000
800080
800180
800280
800480
800480
800880
801080
801080
802080
804080
808080
808080
810080
820080
820080
840080
880080
900080
900080
A00080
C00080
800080
ENDCHAR
STARTCHAR uni040E
ENCODING 1038
SWIDTH 573 0
DWIDTH 17 0
BBX 15 28 1 0
BITMAP
0440
0380
0000
0000
0000
0000
8002
4002
4004
4004
2004
2008
1008
1010
1010
0810
0820
0420
0440
0240
0240
0280
0180
0100
0100
0200
0200
3C00
ENDCHAR
STARTCHAR uni040F
ENCODING 1039
SWIDTH 711 0
DWIDTH 21 0
BBX 15 27 3 -5
BITMAP
8002
8002
8002
8002
8002
8002
8002
8002
8002
8002
8002
8002
8002
8002
8002
8002
8002
8002
8002
8002
8002
FFFE
0100
0100
0100
0100
0100
ENDCHAR
STARTCHAR uni0410
ENCODING 1040
SWIDTH 616 0
DWIDTH 19 0
BBX 17 22 1 0
BITMAP
008000
018000
014000
024000
024000
022000
042000
042000
041000
081000
080800
080800
100800
100400
1FFC00
200400
200200
400200
400200
400100
800100
800180
ENDCHAR
STARTCHAR uni0411
ENCODING 1041
SWIDTH 666 0
DWIDTH 20 0
BBX 15 22 3 0
BITMAP
FFF0
8000
8000
8000
8000
8000
8000
8000
8000
8000
FFE0
8018
8004
8004
8002
8002
8002
8002
8004
8004
8008
FFF0
ENDCHAR
STARTCHAR uni0412
ENCODING 1042
SWIDTH 640 0
DWIDTH 19 0
BBX 14 22 3 0
BITMAP
FFC0
8030
8010
8008
8008
8008
8008
8008
8010
8030
FFC0
8030
8008
8008
8004
8004
8004
8004
8004
8008
8010
FFE0
ENDCHAR
STARTCHAR uni0413
ENCODING 1043
SWIDTH 571 0
DWIDTH 17 0
BBX 12 22 3 0
BITMAP
FFF0
8000
8000
8000
8000
8000
8000
8000
8000
8000
8000
8000
8000
8000
8000
8000
8000
8000
8000
8000
8000
8000
ENDCHAR
STARTCHAR uni0414
ENCODING 1044
SWIDTH 708 0
DWIDTH 21 0
BBX 19 27 1 -5
BITMAP
07FF00
080100
080100
080100
080100
080100
080100
080100
080100
080100
080100
080100
080100
080100
080100
080100
100100
100100
100100
200100
200100
FFFFE0
800020
800020
800020
800020
800020
ENDCHAR
STARTCHAR uni0415
ENCODING 1045
SWIDTH 583 0
DWIDTH 18 0
BBX 12 22 3 0
BITMAP
FFF0
8000
8000
8000
8000
8000
8000
8000
8000
8000
FFE0
8000
8000
8000
8000
8000
8000
8000
8000
8000
8000
FFF0
ENDCHAR
STARTCHAR uni0416
ENCODING 1046
SWIDTH 812 0
DWIDTH 24 0
BBX 24 22 0 0
BITMAP
600802
200804
100808
080808
080810
040810
020820
020840
010840
010880
00FF00
010880
010840
020840
040820
040810
080808
100808
200804
200802
400802
800801
ENDCHAR
STARTCHAR uni0417
ENCODING 1047
SWIDTH 613 0
DWIDTH 18 0
BBX 13 22 3 0
BITMAP
1F80
2040
4020
4010
8010
8010
0010
0010
0020
0040
0780
0040
0020
0010
0008
0008
8008
8008
8010
4010
2060
1F80
ENDCHAR
STARTCHAR uni0418
ENCODING 1048
SWIDTH 772 0
DWIDTH 23 0
BBX 17 22 3 0
BITMAP
800080
800180
800280
800480
800480
800880
801080
801080
802080
804080
808080
808080
810080
820080
820080
840080
880080
900080
900080
A00080
C00080
800080
ENDCHAR
STARTCHAR uni0419
ENCODING 1049
SWIDTH 772 0
DWIDTH 23 0
BBX 17 28 3 0
BITMAP
022000
022000
01C000
000000
000000
000000
800080
800180
800280
800480
800480
800880
801080
801080
802080
804080
808080
808080
810080
820080
820080
840080
880080
900080
900080
A00080
C00080
800080
ENDCHAR
STARTCHAR uni041A
ENCODING 1050
SWIDTH 585 0
DWIDTH 18 0
BBX 14 22 3 0
BITMAP
8010
8020
8020
8040
8080
8080
8100
8200
8200
8400
FC00
8200
8200
8100
8080
8080
8040
8020
8020
8010
8008
800C
ENDCHAR
STARTCHAR uni041B
ENCODING 1051
SWIDTH 703 0
DWIDTH 21 0
BBX 17 22 1 0
BITMAP
07FF80
040080
040080
040080
040080
040080
080080
080080
080080
080080
080080
080080
080080
080080
080080
080080
080080
080080
100080
100080
200080
C00080
ENDCHAR
STARTCHAR uni041C
ENCODING 1052
SWIDTH 863 0
DWIDTH 26 0
BBX 20 22 3 0
BITMAP
800010
C00030
C00030
A00050
A00050
A00090
900090
900090
880110
880110
840210
840210
840410
820410
820410
810810
810810
809010
809010
80A010
806010
806010
ENDCHAR
STARTCHAR uni041D
ENCODING 1053
SWIDTH 735 0
DWIDTH 22 0
BBX 16 22 3 0
BITMAP
8001
8001
8001
8001
8001
8001
8001
8001
8001
8001
FFFF
8001
8001
8001
8001
8001
8001
8001
8001
8001
8001
8001
ENDCHAR
STARTCHAR uni041E
ENCODING 1054
SWIDTH 747 0
DWIDTH 22 0
BBX 18 22 2 0
BITMAP
03F000
0C0C00
100200
200100
200080
400080
400040
800040
800040
800040
800040
800040
800040
800040
800040
400040
400080
200080
200100
100200
0C0C00
03F000
ENDCHAR
STARTCHAR uni041F
ENCODING 1055
SWIDTH 678 0
DWIDTH 20 0
BBX 14 22 3 0
BITMAP
FFFC
8004
8004
8004
8004
8004
8004
8004
8004
8004
8004
8004
8004
8004
8004
8004
8004
8004
8004
8004
8004
8004
ENDCHAR
STARTCHAR uni0420
ENCODING 1056
SWIDTH 606 0
DWIDTH 18 0
BBX 13 22 3 0
BITMAP
FFC0
8020
8010
8008
8008
8008
8008
8008
8008
8010
8010
8060
FF80
8000
8000
8000
8000
8000
8000
8000
8000
8000
ENDCHAR
STARTCHAR uni0421
ENCODING 1057
SWIDTH 723 0
DWIDTH 22 0
BBX 18 22 2 0
BITMAP
03F000
0C0C00
100200
200100
200080
400080
400040
800000
800000
800000
800000
800000
800000
800000
800000
400040
400080
200080
200100
100200
0C0C00
03F000
ENDCHAR
STARTCHAR uni0422
ENCODING 1058
SWIDTH 613 0
DWIDTH 18 0
BBX 15 22 2 0
BITMAP
FFFE
0100
0100
0100
0100
0100
0100
0100
0100
0100
0100
0100
0100
0100
0100
0100
0100
0100
0100
0100
0100
0100
ENDCHAR
STARTCHAR uni0423
ENCODING 1059
SWIDTH 573 0
DWIDTH 17 0
BBX 15 22 1 0
BITMAP
8002
4002
4004
4004
2004
2008
1008
1010
1010
0810
0820
0420
0440
0240
0240
0280
0180
0100
0100
0200
0200
3C00
ENDCHAR
STARTCHAR uni0424
ENCODING 1060
SWIDTH 725 0
DWIDTH 22 0
BBX 18 23 2 -1
BITMAP
008000
008000
008000
07F800
188400
208200
208100
408080
408080
808080
808040
808040
808040
808040
808080
408080
408080
208100
208200
188400
07F800
008000
008000
ENDCHAR
STARTCHAR uni0425
ENCODING 1061
SWIDTH 585 0
DWIDTH 18 0
BBX 16 22 1 0
BITMAP
8003
4002
2004
2008
1008
0810
0820
0420
0240
0280
0180
0180
0280
0240
0420
0820
0810
1008
2008
2004
4002
8003
ENDCHAR
STARTCHAR uni0426
ENCODING 1062
SWIDTH 685 0
DWIDTH 21 0
BBX 16 27 3 -5
BITMAP
8002
8002
8002
8002
8002
8002
8002
8002
8002
8002
8002
8002
8002
8002
8002
8002
8002
8002
8002
8002
8002
FFFF
0001
0001
0001
0001
0001
ENDCHAR
STARTCHAR uni0427
ENCODING 1063
SWIDTH 683 0
DWIDTH 21 0
BBX 14 22 3 0
BITMAP
8004
8004
8004
8004
8004
8004
8004
8004
8004
8004
8004
4004
201C
1FE4
0004
0004
0004
0004
0004
0004
0004
0004
ENDCHAR
STARTCHAR uni0428
ENCODING 1064
SWIDTH 910 0
DWIDTH 27 0
BBX 21 22 3 0
BITMAP
802008
802008
802008
802008
802008
802008
802008
802008
802008
802008
802008
802008
802008
802008
802008
802008
802008
802008
802008
802008
802008
FFFFF8
ENDCHAR
STARTCHAR uni0429
ENCODING 1065
SWIDTH 881 0
DWIDTH 26 0
BBX 22 27 3 -5
BITMAP
802008
802008
802008
802008
802008
802008
802008
802008
802008
802008
802008
802008
802008
802008
802008
802008
802008
802008
802008
802008
802008
FFFFFC
000004
000004
000004
000004
000004
ENDCHAR
STARTCHAR uni042A
ENCODING 1066
SWIDTH 808 0
DWIDTH 24 0
BBX 20 22 2 0
BITMAP
FE0000
020000
020000
020000
020000
020000
020000
020000
020000
020000
03FF80
020040
020020
020010
020010
020010
020010
020010
020010
020020
020060
03FF80
ENDCHAR
STARTCHAR uni042B
ENCODING 1067
SWIDTH 840 0
DWIDTH 25 0
BBX 19 22 3 0
BITMAP
800020
800020
800020
800020
800020
800020
800020
800020
800020
800020
FFE020
801820
800420
800420
800220
800220
800220
800220
800420
800420
800820
FFF020
ENDCHAR
STARTCHAR uni042C
ENCODING 1068
SWIDTH 653 0
DWIDTH 20 0
BBX 15 22 3 0
BITMAP
8000
8000
8000
8000
8000
8000
8000
8000
8000
8000
FFE0
8018
8004
8004
8002
8002
8002
8002
8004
8004
8008
FFF0
ENDCHAR
STARTCHAR uni042D
ENCODING 1069
SWIDTH 642 0
DWIDTH 19 0
BBX 15 22 2 0
BITMAP
0FE0
1010
2008
4004
4004
8002
0002
0002
0002
0002
0FFE
0002
0002
0002
0002
8002
8002
4004
4004
2008
1010
0FE0
ENDCHAR
STARTCHAR uni042E
ENCODING 1070
SWIDTH 973 0
DWIDTH 29 0
BBX 24 22 3 0
BITMAP
800FC0
803030
804008
808004
810002
810002
820002
820001
820001
820001
FE0001
820001
820001
820001
820001
820002
810002
810002
808004
804008
803030
800FC0
ENDCHAR
STARTCHAR uni042F
ENCODING 1071
SWIDTH 644 0
DWIDTH 19 0
BBX 14 22 2 0
BITMAP
07FC
1804
2004
2004
4004
4004
4004
4004
4004
2004
2004
1804
07FC
0404
0804
0804
1004
1004
2004
2004
4004
8004
ENDCHAR
STARTCHAR uni0430
ENCODING 1072
SWIDTH 541 0
DWIDTH 16 0
BBX 11 17 2 0
BITMAP
1F80
2040
4020
8020
0020
0020
0020
03E0
3C20
4020
8020
8020
8020
8060
8060
40A0
3F20
ENDCHAR
STARTCHAR uni0431
ENCODING 1073
SWIDTH 571 0
DWIDTH 17 0
BBX 13 23 2 0
BITMAP
0010
0FE0
1000
2000
4000
4000
8780
9860
A020
C010
C008
8008
8008
8008
8008
8008
8008
8008
8008
4010
4010
3060
0F80
ENDCHAR
STARTCHAR uni0432
ENCODING 1074
SWIDTH 549 0
DWIDTH 16 0
BBX 12 17 3 0
BITMAP
FF80
8040
8020
8020
8020
8020
8020
8040
FF80
8040
8020
8010
8010
8010
8020
8040
FF80
ENDCHAR
STARTCHAR uni0433
ENCODING 1075
SWIDTH 454 0
DWIDTH 14 0
BBX 9 17 3 0
BITMAP
FF80
8000
8000
8000
8000
8000
8000
8000
8000
8000
8000
8000
8000
8000
8000
8000
8000
ENDCHAR
STARTCHAR uni0434
ENCODING 1076
SWIDTH 576 0
DWIDTH 17 0
BBX 15 21 1 -4
BITMAP
0FF8
0808
0808
0808
0808
0808
0808
0808
0808
1008
1008
1008
1008
2008
2008
2008
FFFE
8002
8002
8002
8002
ENDCHAR
STARTCHAR uni0435
ENCODING 1077
SWIDTH 576 0
DWIDTH 17 0
BBX 13 17 2 0
BITMAP
0F80
1060
2010
4008
8008
8008
8008
FFF8
8000
8000
8000
8000
4000
4008
2010
1020
0FC0
ENDCHAR
STARTCHAR uni0436
ENCODING 1078
SWIDTH 786 0
DWIDTH 24 0
BBX 20 17 2 0
BITMAP
804030
404040
204080
104100
084200
044400
024800
015000
00E000
015000
024800
044400
084200
104100
204080
404040
804030
ENDCHAR
STARTCHAR uni0437
ENCODING 1079
SWIDTH 484 0
DWIDTH 15 0
BBX 11 17 2 0
BITMAP
1F00
6080
4040
8020
0020
0040
00C0
0F00
00C0
0040
0020
0020
8020
8020
8040
4080
3F00
ENDCHAR
STARTCHAR uni0438
ENCODING 1080
SWIDTH 588 0
DWIDTH 18 0
BBX 12 17 3 0
BITMAP
8030
8030
8050
8090
8090
8110
8110
8210
8410
8410
8810
9010
9010
A010
A010
C010
8010
ENDCHAR
STARTCHAR uni0439
ENCODING 1081
SWIDTH 588 0
DWIDTH 18 0
BBX 12 22 3 0
BITMAP
1100
0E00
0000
0000
0000
8030
8030
8050
8090
8090
8110
8110
8210
8410
8410
8810
9010
9010
A010
A010
C010
8010
ENDCHAR
STARTCHAR uni043A
ENCODING 1082
SWIDTH 474 0
DWIDTH 14 0
BBX 10 17 3 0
BITMAP
8040
8080
8100
8200
8400
8400
8800
9000
F000
8800
8800
8400
8200
8100
8100
8080
8040
ENDCHAR
STARTCHAR uni043B
ENCODING 1083
SWIDTH 582 0
DWIDTH 17 0
BBX 13 17 1 0
BITMAP
0FF8
0808
0808
0808
0808
0808
0808
0808
0808
1008
1008
1008
1008
1008
1008
2008
E008
ENDCHAR
STARTCHAR uni043C
ENCODING 1084
SWIDTH 714 0
DWIDTH 21 0
BBX 15 17 3 0
BITMAP
8002
8002
C006
C006
A006
A00A
900A
9012
8812
8822
8422
8442
8442
8282
8282
8182
8102
ENDCHAR
STARTCHAR uni043D
ENCODING 1085
SWIDTH 583 0
DWIDTH 18 0
BBX 12 17 3 0
BITMAP
8010
8010
8010
8010
8010
8010
8010
8010
FFF0
8010
8010
8010
8010
8010
8010
8010
8010
ENDCHAR
STARTCHAR uni043E
ENCODING 1086
SWIDTH 579 0
DWIDTH 17 0
BBX 13 17 2 0
BITMAP
0F80
1060
2010
4010
4008
8008
8008
8008
8008
8008
8008
8008
4008
4010
2010
1060
0F80
ENDCHAR
STARTCHAR uni043F
ENCODING 1087
SWIDTH 579 0
DWIDTH 17 0
BBX 11 17 3 0
BITMAP
FFE0
8020
8020
8020
8020
8020
8020
8020
8020
8020
8020
8020
8020
8020
8020
8020
8020
ENDCHAR
STARTCHAR uni0440
ENCODING 1088
SWIDTH 580 0
DWIDTH 17 0
BBX 13 23 3 -6
BITMAP
8F80
B040
A020
C010
8010
8010
8008
8008
8008
8008
8010
8010
8010
C010
A020
B040
8F00
8000
8000
8000
8000
8000
8000
ENDCHAR
STARTCHAR uni0441
ENCODING 1089
SWIDTH 552 0
DWIDTH 17 0
BBX 13 17 2 0
BITMAP
0F80
1060
2010
4010
4008
8000
8000
8000
8000
8000
8000
8000
4008
4010
2010
1060
0F80
ENDCHAR
STARTCHAR uni0442
ENCODING 1090
SWIDTH 510 0
DWIDTH 15 0
BBX 12 17 2 0
BITMAP
FFF0
0400
0400
0400
0400
0400
0400
0400
0400
0400
0400
0400
0400
0400
0400
0400
0400
ENDCHAR
STARTCHAR uni0443
ENCODING 1091
SWIDTH 522 0
DWIDTH 16 0
BBX 12 23 2 -6
BITMAP
8010
8010
8020
4020
4020
4040
2040
2040
2080
1080
1080
1100
0900
0900
0A00
0600
0400
0400
0400
0400
0800
1000
E000
ENDCHAR
STARTCHAR uni0444
ENCODING 1092
SWIDTH 713 0
DWIDTH 21 0
BBX 17 27 2 -5
BITMAP
008000
008000
008000
008000
008000
07F000
088C00
308200
408100
408080
808080
808080
808080
808080
808080
808080
808080
408080
408100
208200
188C00
07F000
008000
008000
008000
008000
008000
ENDCHAR
STARTCHAR uni0445
ENCODING 1093
SWIDTH 500 0
DWIDTH 15 0
BBX 11 17 2 0
BITMAP
8020
4040
4040
2080
1100
1100
0A00
0A00
0400
0A00
0A00
1100
1100
2080
4040
4040
8020
ENDCHAR
STARTCHAR uni0446
ENCODING 1094
SWIDTH 548 0
DWIDTH 16 0
BBX 12 22 3 -5
BITMAP
8010
8010
8010
8010
8010
8010
8010
8010
8010
8010
8010
8010
8010
8010
8010
8010
FFF0
0010
0010
0010
0010
0010
ENDCHAR
STARTCHAR uni0447
ENCODING 1095
SWIDTH 562 0
DWIDTH 17 0
BBX 11 17 3 0
BITMAP
8020
8020
8020
8020
8020
8020
8020
8020
8020
4060
3FA0
0020
0020
0020
0020
0020
0020
ENDCHAR
STARTCHAR uni0448
ENCODING 1096
SWIDTH 781 0
DWIDTH 23 0
BBX 17 17 3 0
BITMAP
808080
808080
808080
808080
808080
808080
808080
808080
808080
808080
808080
808080
808080
808080
808080
808080
FFFF80
ENDCHAR
STARTCHAR uni0449
ENCODING 1097
SWIDTH 772 0
DWIDTH 23 0
BBX 19 22 3 -5
BITMAP
808040
808040
808040
808040
808040
808040
808040
808040
808040
808040
808040
808040
808040
808040
808040
808040
FFFFE0
000020
000020
000020
000020
000020
ENDCHAR
STARTCHAR uni044A
ENCODING 1098
SWIDTH 606 0
DWIDTH 18 0
BBX 16 17 0 0
BITMAP
FC00
0400
0400
0400
0400
0400
0400
07FC
0402
0401
0401
0401
0401
0401
0401
0402
07FC
ENDCHAR
STARTCHAR uni044B
ENCODING 1099
SWIDTH 684 0
DWIDTH 21 0
BBX 15 17 3 0
BITMAP
8002
8002
8002
8002
8002
8002
8002
FF02
80C2
8042
8022
8022
8022
8022
8042
80C2
FF02
ENDCHAR
STARTCHAR uni044C
ENCODING 1100
SWIDTH 521 0
DWIDTH 16 0
BBX 11 17 3 0
BITMAP
8000
8000
8000
8000
8000
8000
8000
FF00
8080
8040
8020
8020
8020
8020
8040
80C0
FF00
ENDCHAR
STARTCHAR uni044D
ENCODING 1101
SWIDTH 528 0
DWIDTH 16 0
BBX 12 17 2 0
BITMAP
1F00
2080
4040
8020
8020
0010
0010
0010
1FF0
0010
0010
0010
8020
8020
4040
2080
1F00
ENDCHAR
STARTCHAR uni044E
ENCODING 1102
SWIDTH 794 0
DWIDTH 24 0
BBX 21 17 1 0
BITMAP
801F00
8020C0
804020
808020
808010
810010
810008
810008
FF0008
810008
810008
810010
808010
808020
804020
8020C0
801F00
ENDCHAR
STARTCHAR uni044F
ENCODING 1103
SWIDTH 546 0
DWIDTH 16 0
BBX 12 17 1 0
BITMAP
0FF0
1010
2010
2010
2010
2010
2010
1010
0FF0
0410
0810
0810
1010
2010
2010
4010
C010
ENDCHAR
STARTCHAR uni0450
ENCODING 1104
SWIDTH 576 0
DWIDTH 17 0
BBX 13 24 2 0
BITMAP
1000
0800
0400
0400
0200
0000
0000
0F80
1060
2010
4008
8008
8008
8008
FFF8
8000
8000
8000
8000
4000
4008
2010
1020
0FC0
ENDCHAR
STARTCHAR uni0451
ENCODING 1105
SWIDTH 576 0
DWIDTH 17 0
BBX 13 21 2 0
BITMAP
0880
0000
0000
0000
0F80
1060
2010
4008
8008
8008
8008
FFF8
8000
8000
8000
8000
4000
4008
2010
1020
0FC0
ENDCHAR
STARTCHAR uni0452
ENCODING 1106
SWIDTH 568 0
DWIDTH 17 0
BBX 15 28 -1 -6
BITMAP
0800
0800
FF00
0800
0800
09F0
0A0C
0C04
0802
0802
0802
0802
0802
0802
0802
0802
0802
0802
0802
0802
0802
0802
0002
0002
0002
0002
0002
001C
ENDCHAR
STARTCHAR uni0453
ENCODING 1107
SWIDTH 454 0
DWIDTH 14 0
BBX 9 24 3 0
BITMAP
0300
0200
0400
0400
0800
0000
0000
FF80
8000
8000
8000
8000
8000
8000
8000
8000
8000
8000
8000
8000
8000
8000
8000
8000
ENDCHAR
STARTCHAR uni0454
ENCODING 1108
SWIDTH 464 0
DWIDTH 14 0
BBX 12 17 0 0
BITMAP
0F80
1040
2020
4010
4010
4000
8000
8000
FE00
8000
8000
4000
4010
4010
2020
1060
0F80
ENDCHAR
STARTCHAR uni0455
ENCODING 1109
SWIDTH 492 0
DWIDTH 15 0
BBX 11 17 2 0
BITMAP
1F00
2080
4040
4020
8000
4000
4000
3000
0F00
0080
0040
0020
0020
8020
8040
60C0
1F00
ENDCHAR
STARTCHAR uni0456
ENCODING 1110
SWIDTH 221 0
DWIDTH 7 0
BBX 1 21 3 0
BITMAP
80
00
00
00
80
80
80
80
80
80
80
80
80
80
80
80
80
80
80
80
80
ENDCHAR
STARTCHAR uni0457
ENCODING 1111
SWIDTH 221 0
DWIDTH 7 0
BBX 5 21 1 0
BITMAP
88
00
00
00
20
20
20
20
20
20
20
20
20
20
20
20
20
20
20
20
20
ENDCHAR
STARTCHAR uni0458
ENCODING 1112
SWIDTH 221 0
DWIDTH 7 0
BBX 4 27 0 -6
BITMAP
10
00
00
00
10
10
10
10
10
10
10
10
10
10
10
10
10
10
10
10
10
10
10
10
10
20
C0
ENDCHAR
STARTCHAR uni0459
ENCODING 1113
SWIDTH 896 0
DWIDTH 27 0
BBX 24 17 1 0
BITMAP
0FFC00
080400
080400
080400
080400
080400
080400
0807F8
080406
080401
080401
080401
100401
100401
100401
100402
E007FC
ENDCHAR
STARTCHAR uni045A
ENCODING 1114
SWIDTH 885 0
DWIDTH 27 0
BBX 22 17 3 0
BITMAP
801000
801000
801000
801000
801000
801000
801000
FFFFE0
801010
801008
801004
801004
801004
801004
801008
801018
801FE0
ENDCHAR
STARTCHAR uni045B
ENCODING 1115
SWIDTH 568 0
DWIDTH 17 0
BBX 15 22 -1 0
BITMAP
0800
0800
FF00
0800
0800
09F0
0A08
0C04
0802
0802
0802
0802
0802
0802
0802
0802
0802
0802
0802
0802
0802
0802
ENDCHAR
STARTCHAR uni045C
ENCODING 1116
SWIDTH 474 0
DWIDTH 14 0
BBX 10 24 3 0
BITMAP
0300
0200
0400
0400
0800
0000
0000
8040
8080
8100
8200
8400
8400
8800
9000
F000
8800
8800
8400
8200
8100
8100
8080
8040
ENDCHAR
STARTCHAR uni045D
ENCODING 1117
SWIDTH 588 0
DWIDTH 18 0
BBX 12 24 3 0
BITMAP
3000
1000
0800
0800
0400
0000
0000
8030
8030
8050
8090
8090
8110
8110
8210
8410
8410
8810
9010
9010
A010
A010
C010
8010
ENDCHAR
STARTCHAR uni045E
ENCODING 1118
SWIDTH 522 0
DWIDTH 16 0
BBX 12 28 2 -6
BITMAP
1100
0E00
0000
0000
0000
8010
8010
8020
4020
4020
4040
2040
2040
2080
1080
1080
1100
0900
0900
0A00
0600
0400
0400
0400
0400
0800
1000
E000
ENDCHAR
STARTCHAR uni045F
ENCODING 1119
SWIDTH 567 0
DWIDTH 17 0
BBX 11 22 3 -5
BITMAP
8020
8020
8020
8020
8020
8020
8020
8020
8020
8020
8020
8020
8020
8020
8020
8020
FFE0
0400
0400
0400
0400
0400
ENDCHAR
STARTCHAR uni0460
ENCODING 1120
SWIDTH 791 0
DWIDTH 24 0
BBX 17 22 3 0
BITMAP
808080
808080
808080
808080
808080
808080
808080
808080
808080
808080
808080
808080
808080
808080
808080
808080
808080
808080
808080
40C080
412100
3E1E00
ENDCHAR
STARTCHAR uni0461
ENCODING 1121
SWIDTH 725 0
DWIDTH 22 0
BBX 16 17 3 0
BITMAP
8101
8101
8101
8101
8101
8101
8101
8101
8101
8101
8101
8101
8101
8101
8181
4242
3C3C
ENDCHAR
STARTCHAR uni0462
ENCODING 1122
SWIDTH 653 0
DWIDTH 20 0
BBX 18 22 0 0
BITMAP
100000
100000
100000
100000
FF0000
100000
100000
100000
100000
100000
1FFC00
100300
100080
100080
100040
100040
100040
100040
100080
100080
100100
1FFE00
ENDCHAR
STARTCHAR uni0463
ENCODING 1123
SWIDTH 531 0
DWIDTH 16 0
BBX 14 26 0 0
BITMAP
1000
1000
1000
1000
1000
1000
1000
1000
FFC0
1000
1000
1000
1000
1000
1000
1000
1FE0
1018
1004
1004
1004
1004
1004
1004
1008
1FF0
ENDCHAR
STARTCHAR uni0464
ENCODING 1124
SWIDTH 888 0
DWIDTH 27 0
BBX 22 22 3 0
BITMAP
803F80
804040
818030
810010
820008
840004
840004
840000
880000
880000
FFFE00
880000
880000
880000
840000
840004
840008
820008
810010
818030
804040
801F00
ENDCHAR
STARTCHAR uni0465
ENCODING 1125
SWIDTH 751 0
DWIDTH 23 0
BBX 18 17 3 0
BITMAP
807C00
808300
810080
820080
820040
840000
840000
840000
FFF800
840000
840000
840000
820040
820080
810080
808300
807C00
ENDCHAR
STARTCHAR uni0466
ENCODING 1126
SWIDTH 518 0
DWIDTH 16 0
BBX 16 22 0 0
BITMAP
0100
0180
0180
0280
0240
0240
0440
0420
0420
0820
0810
0810
1010
1008
1FF8
2108
2104
2104
4104
4102
4102
8103
ENDCHAR
STARTCHAR uni0467
ENCODING 1127
SWIDTH 428 0
DWIDTH 13 0
BBX 14 16 -1 0
BITMAP
0100
0100
0280
0280
0440
0440
0840
0820
0820
1010
1FF0
2108
2108
4108
4104
C104
ENDCHAR
STARTCHAR uni0468
ENCODING 1128
SWIDTH 775 0
DWIDTH 23 0
BBX 19 22 2 0
BITMAP
802000
803000
803000
805000
804800
804800
808800
808400
808400
810400
810200
810200
820200
820100
FFFF00
842100
842080
842080
882080
882040
882040
902020
ENDCHAR
STARTCHAR uni0469
ENCODING 1129
SWIDTH 656 0
DWIDTH 20 0
BBX 15 17 2 0
BITMAP
8080
8180
8180
8240
8240
8220
8420
8420
8810
8810
8808
FFF8
9088
A084
A084
A082
C082
ENDCHAR
STARTCHAR uni046A
ENCODING 1130
SWIDTH 689 0
DWIDTH 21 0
BBX 19 22 1 0
BITMAP
3FFF80
100100
100200
080200
040400
040800
020800
011000
012000
00A000
1FFF00
204080
404040
804020
804020
804020
804020
804020
804020
804020
804020
804020
ENDCHAR
STARTCHAR uni046B
ENCODING 1131
SWIDTH 679 0
DWIDTH 20 0
BBX 16 17 2 0
BITMAP
3FFC
1008
0808
0810
0410
0420
0240
0140
0180
1FF8
2086
4081
8081
8081
8081
8081
8081
ENDCHAR
STARTCHAR uni046C
ENCODING 1132
SWIDTH 854 0
DWIDTH 26 0
BBX 24 22 1 0
BITMAP
81FFFC
808008
808010
804010
802020
802040
801040
800880
800900
800500
FFFFF8
810204
820202
840201
840201
840201
880201
880201
880201
880201
880201
880201
ENDCHAR
STARTCHAR uni046D
ENCODING 1133
SWIDTH 889 0
DWIDTH 27 0
BBX 22 17 3 0
BITMAP
80FFF0
808020
804040
802040
802080
801100
801100
800A00
800E00
FFFFE0
810410
820408
820408
840404
840404
840404
840404
ENDCHAR
STARTCHAR uni046E
ENCODING 1134
SWIDTH 507 0
DWIDTH 15 0
BBX 11 35 2 -6
BITMAP
2080
1100
0A00
0600
0000
0000
0000
FF00
00C0
0020
0020
0020
0020
0020
0020
0040
0180
3E00
0180
0040
0020
0020
0020
0020
0020
0020
0040
0080
3F00
4000
8000
8000
8000
4000
2000
ENDCHAR
STARTCHAR uni046F
ENCODING 1135
SWIDTH 431 0
DWIDTH 13 0
BBX 11 30 0 -6
BITMAP
4100
2200
2400
1800
0800
0000
0000
FF80
0040
0020
0020
0020
0040
0080
1F00
0080
0040
0020
0020
0020
0040
0040
0080
3E00
4000
8000
8000
8000
4000
3000
ENDCHAR
STARTCHAR uni0470
ENCODING 1136
SWIDTH 731 0
DWIDTH 22 0
BBX 16 22 3 0
BITMAP
8101
8101
8101
8101
8101
8101
8101
8101
8101
8101
8101
8102
4102
4102
2104
1918
07E0
0100
0100
0100
0100
0100
ENDCHAR
STARTCHAR uni0471
ENCODING 1137
SWIDTH 692 0
DWIDTH 21 0
BBX 16 24 3 -7
BITMAP
8104
8102
8102
8102
8102
8101
8101
8101
8101
8101
8101
8101
8101
4102
4104
3108
0FF0
0100
0100
0100
0100
0100
0100
0100
ENDCHAR
STARTCHAR uni0472
ENCODING 1138
SWIDTH 747 0
DWIDTH 22 0
BBX 18 22 2 0
BITMAP
03F000
0C0C00
100200
200100
200080
400080
400040
800040
800040
800040
FFFFC0
800040
800040
800040
800040
400040
400080
200080
200100
100200
0C0C00
03F000
ENDCHAR
STARTCHAR uni0473
ENCODING 1139
SWIDTH 579 0
DWIDTH 17 0
BBX 13 17 2 0
BITMAP
0F80
1060
2010
4010
4008
8008
8008
8008
FFF8
8008
8008
8008
4008
4010
2010
1060
0F80
ENDCHAR
STARTCHAR uni0474
ENCODING 1140
SWIDTH 649 0
DWIDTH 19 0
BBX 17 22 1 0
BITMAP
800080
800100
400100
400200
400200
200200
200400
200400
100400
100800
080800
080800
081000
041000
041000
042000
022000
024000
024000
014000
018000
008000
ENDCHAR
STARTCHAR uni0475
ENCODING 1141
SWIDTH 585 0
DWIDTH 18 0
BBX 14 17 2 0
BITMAP
800C
8010
8020
4020
4020
4040
2040
2040
2080
1080
1080
1100
0900
0900
0A00
0600
0600
ENDCHAR
STARTCHAR uni0476
ENCODING 1142
SWIDTH 649 0
DWIDTH 19 0
BBX 17 29 1 0
BITMAP
090000
048000
028000
024000
014000
000000
000000
800080
800100
400100
400200
400200
200200
200400
200400
100400
100800
080800
080800
081000
041000
041000
042000
022000
024000
024000
014000
018000
008000
ENDCHAR
STARTCHAR uni0477
ENCODING 1143
SWIDTH 585 0
DWIDTH 18 0
BBX 14 24 2 0
BITMAP
2400
1200
0A00
0900
0580
0000
0000
800C
8010
8020
4020
4020
4040
2040
2040
2080
1080
1080
1100
0900
0900
0A00
0600
0600
ENDCHAR
STARTCHAR uni0478
ENCODING 1144
SWIDTH 1269 0
DWIDTH 38 0
BBX 35 28 2 -6
BITMAP
03F0000000
0C0C000000
1002000000
2001000000
2000800000
4000820020
4000420040
8000410040
8000410080
8000410080
8000408080
8000408100
8000408100
8000404100
8000404200
4000402200
4000802200
2000802400
2001001400
1002001400
0C0C001800
03F0000800
0000000800
0000001000
0000001000
0000002000
0000002000
000003C000
ENDCHAR
STARTCHAR uni0479
ENCODING 1145
SWIDTH 1082 0
DWIDTH 32 0
BBX 29 23 2 -6
BITMAP
0F808008
10604008
20104010
40104010
40082020
80082020
80082020
80041040
80041040
80040840
80080880
80080880
40080480
40100500
20100500
10600300
0F800200
00000200
00000200
00000400
00000400
00000800
00007000
ENDCHAR
STARTCHAR uni047A
ENCODING 1146
SWIDTH 741 0
DWIDTH 22 0
BBX 18 28 2 -3
BITMAP
004000
004000
004000
03F000
0C4C00
104200
200100
400080
400080
400040
800040
800040
800040
800040
800040
800040
800040
800040
400040
400080
400080
200100
104200
0C4400
03F800
004000
004000
004000
ENDCHAR
ENDFONT
